<?xml version="1.0" encoding="UTF-8" standalone="no"?>
<svg width="31px" height="31px" viewBox="0 0 31 31" version="1.1" xmlns="http://www.w3.org/2000/svg" xmlns:xlink="http://www.w3.org/1999/xlink" xmlns:sketch="http://www.bohemiancoding.com/sketch/ns">
    <!-- Generator: Sketch 3.2.2 (9983) - http://www.bohemiancoding.com/sketch -->
    <title>abduzeedo</title>
    <desc>Created with Sketch.</desc>
    <defs></defs>
    <g id="Page-1" stroke="none" stroke-width="1" fill="none" fill-rule="evenodd" sketch:type="MSPage">
        <g id="SVG_icons" sketch:type="MSLayerGroup" transform="translate(-1.000000, 0.000000)">
            <g id="abduzeedo" transform="translate(1.246269, 0.245833)" sketch:type="MSShapeGroup">
                <rect id="Rectangle-1" fill="#000000" x="0" y="0" width="29.9922002" height="29.9922002" rx="2"></rect>
                <path d="M7.25110499,23.0652304 C7.77611494,23.4711918 8.18885708,23.1906142 8.18885708,23.1906142 L15.1810572,17.1669121 L19.7500594,17.0784342 L18.9896371,17.92587 L21.6068153,23.1843292 C21.6068153,23.1843292 22.2984079,23.4547667 22.6480485,23.1413106 C23.0566946,22.914868 23.035582,22.1501133 23.035582,22.1501133 L15.6556652,6.53210461 C15.6556652,6.53210461 15.4451487,6.19204412 14.9960073,6.19820707 C14.5359613,6.14994081 14.2409941,6.50745282 14.2409941,6.50745282 L6.98079723,22.2150378 C6.98079723,22.2150378 6.72609504,22.6592691 7.25110499,23.0652304 Z M14.9854904,8.98324939 L17.8087918,15.0141517 L17.8197143,15.4562974 L14.5454193,15.4366492 L10.1822352,19.3349885 L14.9854904,8.98324939 Z" id="Path-1" fill="#FFFFFF"></path>
            </g>
        </g>
    </g>
</svg>