<?xml version="1.0" encoding="UTF-8" standalone="no"?>
<svg width="31px" height="31px" viewBox="0 0 31 31" version="1.1" xmlns="http://www.w3.org/2000/svg" xmlns:xlink="http://www.w3.org/1999/xlink" xmlns:sketch="http://www.bohemiancoding.com/sketch/ns">
    <!-- Generator: Sketch 3.2.2 (9983) - http://www.bohemiancoding.com/sketch -->
    <title>angel</title>
    <desc>Created with Sketch.</desc>
    <defs></defs>
    <g id="Page-1" stroke="none" stroke-width="1" fill="none" fill-rule="evenodd" sketch:type="MSPage">
        <g id="SVG_icons" sketch:type="MSLayerGroup" transform="translate(-176.000000, -1.000000)">
            <g id="angel" transform="translate(176.116457, 1.279724)" sketch:type="MSShapeGroup">
                <rect id="Rectangle-2" fill="#000000" x="0.118527056" y="0.142528745" width="29.8147315" height="29.8147315" rx="2"></rect>
                <path d="M7.15795706,22.3285779 C7.40204014,22.9277532 7.76816476,23.5550148 8.25633091,24.2103628 C9.02613139,25.2027468 9.93674903,25.961078 10.9881838,26.4853564 C12.0583942,27.0096348 13.2694218,27.271774 14.6212666,27.271774 C17.0433217,27.271774 19.0804766,26.3636489 20.7327313,24.5473989 C22.3662104,22.749873 23.1829499,20.4748794 23.1829499,17.7224179 C23.1829499,16.8611034 23.126623,16.1963934 23.0139693,15.7282877 C22.9200912,15.3163547 22.7417228,14.9980428 22.4788641,14.7733521 C21.9719223,14.3426948 20.9768144,13.9682103 19.4935403,13.6498984 C18.0102662,13.3128623 16.433114,13.1443443 14.7620837,13.1443443 C14.34902,13.1443443 14.0861613,13.200517 13.9735076,13.3128623 C13.8420783,13.369035 13.5988485,14.0210495 13.5988485,14.3393614 C13.5988485,15.1070547 14.420173,15.6566473 15.2838516,15.9749591 C16.2226326,16.3681679 17.5596513,16.4484397 19.7188478,16.4484397 L20.4950989,16.4484398 C20.7844705,16.4968856 20.8462387,16.551423 20.977668,16.7573895 C21.038998,16.9490369 20.6013124,17.7772528 19.8878388,18.039392 C19.2119164,18.282807 18.7425155,18.4530282 18.4233299,18.6964431 C17.672305,19.2394457 17.0714851,19.8854316 16.6208702,20.6344007 C16.1890309,21.3646455 15.7955965,22.2349568 15.7955965,22.8903047 C15.7955965,23.2835135 15.8894746,23.7609813 16.0772308,24.3227081 C16.2837627,24.9406076 16.3870286,25.3431785 16.3870286,25.5304208 L16.2095138,25.6989388 L16.0968601,25.7652044 C15.2707327,25.7090317 15.0249424,25.1476702 14.64943,24.4361496 C14.3302444,23.8369743 14.4130273,23.479813 14.4693544,22.4880992 C14.4130275,22.5068234 13.9453442,22.5161855 13.7763636,22.5161855 L13.2890511,22.5161855 C13.3078267,22.6098067 13.3172145,22.8996668 13.3172145,23.0307364 C13.3172145,23.5924632 13.1012948,24.0699311 12.6694555,24.4631398 C12.2376163,24.8563486 11.9081893,24.8754382 11.326145,24.8754382 C10.4436908,24.8754382 9.72936358,24.0991135 8.82813375,23.2565233 C8.36198304,22.8110183 8.137255,22.164221 8.06282229,21.6398306 C7.99335094,21.1503938 8.05797996,20.7653097 8.09332369,20.8119155 C8.25633088,20.7448674 8.62245553,21.3545527 8.79143612,21.5792434 C9.58001222,22.6839728 10.2934858,23.2363376 10.931857,23.2363376 C11.1008376,23.2363376 11.6154599,23.1801649 11.7656649,23.0678195 C11.8783186,22.9554741 11.9346455,22.6843382 11.9346455,22.6094413 C11.9346455,22.4596475 11.8219918,22.1881462 11.5966843,21.7949374 C11.4464793,21.514074 10.9216155,20.8403672 10.3771225,20.1288465 C9.85140512,19.4547743 9.25143885,18.8091539 8.93225328,18.5470147 C8.65061896,18.2848755 8.44408713,18.3313207 8.31265778,18.3313207 C7.95592097,18.3313207 7.60857198,18.714802 7.27061079,19.126735 C6.93264961,19.538668 6.76366901,20.0535842 6.76366901,20.6714838 C6.76366901,20.6714838 6.89509836,21.6919542 7.15795706,22.3285779 Z M9.69477957,16.8545589 C9.95763827,17.360113 10.434303,17.9313303 11.0163473,18.6990236 C11.5983915,19.4479927 12.1241089,20.0284437 12.5934995,20.4403767 C13.0441144,20.8148613 13.3820755,21.0021036 13.607383,21.0021036 C13.7388124,21.0021036 14.0477565,20.9365688 14.1791858,20.8054992 C14.3106152,20.6557054 14.3495904,20.5015345 14.3763299,20.3561177 C14.4122265,20.1609018 14.3848641,19.5884244 14.0469029,18.7271099 C13.6526148,17.7721743 13.0432608,16.7333451 12.5738702,15.9656517 C12.1608065,15.3103038 11.7946819,14.8515602 11.4754964,14.589421 C11.1750864,14.3085576 10.8840643,14.1681259 10.60243,14.1681259 C10.3958981,14.1681259 9.95763827,14.3931585 9.69477957,14.6740219 C9.41314525,14.9548853 9.2983779,15.3005763 9.2983779,15.525267 C9.2983779,15.768682 9.39436963,16.2553836 9.69477957,16.8545589 Z M11.140121,6.80027002 C11.5865376,8.23703466 12.1723871,9.94479647 13.0652203,12.3528949 C13.268137,12.2314782 13.7921071,12.0770633 14.1573571,12.0770633 C14.1776488,12.0770633 14.2435967,12.0821223 14.3552008,12.0922404 C14.466805,12.1023585 14.5733362,12.1074175 14.6747946,12.1074175 C14.7559612,12.1074175 15.0197529,12.1276536 15.4661695,12.1681259 L13.5086608,6.14221714 C12.9404942,4.5233274 12.3513989,3.42612129 12.0267322,2.94045437 C11.7629406,2.51549582 11.4991489,2.30301654 11.2353573,2.30301654 C11.0527323,2.30301654 10.9005448,2.38396102 10.7787948,2.54585 C10.6367532,2.72797509 10.5657323,2.96069049 10.5657323,3.2439962 C10.5657323,3.93202433 10.5132718,5.31830754 11.140121,6.80027002 Z M14.8053507,17.3357037 C14.9743313,17.7663609 15.485146,19.0262883 15.6729023,19.5318425 C16.0484147,19.1011852 17.3384199,18.0079144 17.7139323,17.727051 C17.6200542,17.7083267 17.3336065,17.708245 17.1458503,17.6801586 C16.9580941,17.6520723 16.4422554,17.5990308 16.3483773,17.5803066 C15.9728648,17.5054097 15.5704967,17.4658119 15.4015161,17.4096393 L14.8053507,17.3357037 Z M17.8318978,12.2378117 L20.1251604,12.7273834 C21.0382853,10.2181044 21.7213589,8.46671703 22.2083589,6.9490079 C22.7156505,5.30988205 22.732335,3.95111983 22.732335,3.647578 C22.732335,3.32380005 22.6613142,3.07084853 22.5192725,2.88872344 C22.4381058,2.74707059 22.2859184,2.67624416 22.06271,2.67624416 C21.7786267,2.67624416 21.4641059,2.9494318 21.1191476,3.49580709 C20.733606,4.08265462 20.2973352,5.10457876 19.8103352,6.56157952 L17.8318978,12.2378117 Z" id="Shape" fill="#FFFFFF"></path>
            </g>
        </g>
    </g>
</svg>