<?xml version="1.0" encoding="UTF-8" standalone="no"?>
<svg width="31px" height="31px" viewBox="0 0 31 31" version="1.1" xmlns="http://www.w3.org/2000/svg" xmlns:xlink="http://www.w3.org/1999/xlink" xmlns:sketch="http://www.bohemiancoding.com/sketch/ns">
    <!-- Generator: Sketch 3.2.2 (9983) - http://www.bohemiancoding.com/sketch -->
    <title>awwwards</title>
    <desc>Created with Sketch.</desc>
    <defs></defs>
    <g id="Page-1" stroke="none" stroke-width="1" fill="none" fill-rule="evenodd" sketch:type="MSPage">
        <g id="SVG_icons" sketch:type="MSLayerGroup" transform="translate(-357.000000, 0.000000)">
            <g id="awwwards" transform="translate(357.992537, 0.245833)" sketch:type="MSShapeGroup">
                <rect id="Rectangle-3" fill="#000000" x="0" y="0" width="29.9922002" height="29.9922002" rx="2"></rect>
                <g id="www" transform="translate(3.035714, 11.607143)">
                    <path d="M15.5842857,0.00107142857 L14.4453571,4.78214286 C14.3582143,5.17142857 14.3292857,5.51142857 14.3292857,5.51142857 L14.3092857,5.51142857 C14.2989286,5.51142857 14.2892857,5.18071429 14.1825,4.78214286 L12.9560714,0.00107142857 L11.8657143,0.00107142857 L10.62,4.78214286 C10.5125,5.18 10.5032143,5.51142857 10.4932143,5.51142857 L10.4739286,5.51142857 C10.4739286,5.51142857 10.4432143,5.17071429 10.3575,4.78214286 L9.54178571,1.20214286 L8.92857143,3.8125 L9.70464286,6.91214286 L11.1553571,6.91214286 L12.2164286,2.82392857 C12.3328571,2.37607143 12.3921429,1.91892857 12.3921429,1.91892857 L12.4107143,1.91892857 C12.4107143,1.91892857 12.4689286,2.37607143 12.5864286,2.82392857 L13.6489286,6.91214286 L15.0985714,6.91214286 L16.8814286,0 L15.5842857,0.00107142857 L15.5842857,0.00107142857 Z" id="Shape" fill="#3C948B"></path>
                    <path d="M23.09,2.18079523e-16 L21.9503571,4.78107143 C21.8635714,5.17035714 21.8342857,5.51035714 21.8342857,5.51035714 L21.8139286,5.51035714 C21.805,5.51035714 21.7953571,5.17964286 21.6885714,4.78107143 L20.4610714,2.18079523e-16 L19.3717857,2.18079523e-16 L18.1253571,4.78107143 C18.0175,5.17892857 18.0089286,5.51035714 17.9989286,5.51035714 L17.9789286,5.51035714 C17.9789286,5.51035714 17.9496429,5.16964286 17.8625,4.78107143 L17.0417857,1.185 L16.4285714,3.79535714 L17.2103571,6.91178571 L18.6603571,6.91178571 L19.7210714,2.82357143 C19.8375,2.37535714 19.8971429,1.91821429 19.8971429,1.91821429 L19.9164286,1.91821429 C19.9164286,1.91821429 19.975,2.37535714 20.0917857,2.82357143 L21.1535714,6.91178571 L22.6035714,6.91178571 L24.3864286,0 L23.09,0 L23.09,2.18079523e-16 L23.09,2.18079523e-16 Z" id="Shape" fill="#3C948B"></path>
                    <path d="M6.21178571,4.78142857 C6.31857143,5.18 6.32785714,5.51071429 6.3375,5.51071429 L6.35714286,5.51071429 C6.35714286,5.51071429 6.38714286,5.16928571 6.47392857,4.78142857 L7.6125,0 L8.9075,0 L7.12535714,6.91214286 L5.67535714,6.91214286 L4.61464286,2.82357143 C4.49821429,2.37571429 4.43857143,1.91857143 4.43857143,1.91857143 L4.41928571,1.91857143 C4.41928571,1.91857143 4.36142857,2.37571429 4.24392857,2.82357143 L3.1825,6.91178571 L1.73214286,6.91178571 L0,0.00107142857 L1.29464286,0.00107142857 L2.38535714,4.78214286 C2.47321429,5.17142857 2.50214286,5.51142857 2.50214286,5.51142857 L2.52178571,5.51142857 C2.53214286,5.51142857 2.54035714,5.18071429 2.64857143,4.78214286 L3.89464286,0.00107142857 L4.98357143,0.00107142857 L6.21178571,4.78142857 L6.21178571,4.78142857 Z" id="Shape" fill="#E1E3E4"></path>
                </g>
            </g>
        </g>
    </g>
</svg>