<?xml version="1.0" encoding="UTF-8" standalone="no"?>
<svg width="30px" height="31px" viewBox="0 0 30 31" version="1.1" xmlns="http://www.w3.org/2000/svg" xmlns:xlink="http://www.w3.org/1999/xlink" xmlns:sketch="http://www.bohemiancoding.com/sketch/ns">
    <!-- Generator: Sketch 3.2.2 (9983) - http://www.bohemiancoding.com/sketch -->
    <title>Behance</title>
    <desc>Created with Sketch.</desc>
    <defs></defs>
    <g id="Page-1" stroke="none" stroke-width="1" fill="none" fill-rule="evenodd" sketch:type="MSPage">
        <g id="SVG_icons" sketch:type="MSLayerGroup" transform="translate(-1.000000, -181.000000)">
            <g id="Behance" transform="translate(1.083254, 181.254760)" sketch:type="MSShapeGroup">
                <rect id="Rectangle-5" fill="#0098D8" x="0.00548337233" y="0.0873042399" width="29.8235294" height="29.8235294" rx="2"></rect>
                <g id="letters" transform="translate(6.000000, 9.176471)" fill="#FFFFFF">
                    <path d="M5.40831384,0.149695577 C5.93850992,0.149695577 6.42792168,0.190466369 6.87654914,0.312778742 C7.32517659,0.394320324 7.69223541,0.557403489 8.01850992,0.761257436 C8.34478443,0.965111391 8.58949031,1.25050693 8.75262757,1.61744405 C8.91576482,1.98438117 8.99733345,2.43285987 8.99733345,2.92210936 C8.99733345,3.49290044 8.87498051,3.98214993 8.58949031,4.34908721 C8.34478443,4.71602433 7.93694129,5.04219066 7.44752953,5.28681541 C8.14086286,5.49066936 8.67105894,5.85760648 8.99733345,6.34685598 C9.32360796,6.83610547 9.52752953,7.44766734 9.52752953,8.14077078 C9.52752953,8.71156186 9.40517659,9.20081135 9.20125502,9.60851926 C8.99733345,10.0162272 8.67105894,10.3831643 8.30400012,10.627789 C7.93694129,10.8724138 7.48831384,11.0762677 6.99890208,11.1985801 C6.50949031,11.3208925 6.02007855,11.4024341 5.53066678,11.4024341 L0.0655687436,11.4024341 L0.0655687436,0.149695577 L5.40831384,0.149695577 L5.40831384,0.149695577 Z M5.08203933,4.71602433 C5.53066678,4.71602433 5.89772561,4.59371196 6.1832158,4.389858 C6.468706,4.18600389 6.59105894,3.81906677 6.59105894,3.37058806 C6.59105894,3.12596332 6.55027463,2.88133857 6.468706,2.71825541 C6.38713737,2.55517224 6.26478443,2.43285987 6.10164717,2.3105475 C5.93850992,2.22900591 5.77537267,2.14746433 5.5714511,2.10669354 C5.36752953,2.06592275 5.16360796,2.06592275 4.91890208,2.06592275 L2.55341188,2.06592275 L2.55341188,4.71602433 L5.08203933,4.71602433 L5.08203933,4.71602433 Z M5.20439227,9.52697768 C5.44909816,9.52697768 5.69380404,9.48620689 5.89772561,9.4454361 C6.10164717,9.40466531 6.30556874,9.32312372 6.468706,9.20081135 C6.63184325,9.07849898 6.75419619,8.95618661 6.87654914,8.75233265 C6.95811776,8.54847869 7.03968639,8.30385395 7.03968639,8.01845841 C7.03968639,7.44766734 6.87654914,7.03995942 6.55027463,6.75456389 C6.22400012,6.50993914 5.77537267,6.38762677 5.24517659,6.38762677 L2.55341188,6.38762677 L2.55341188,9.52697768 L5.20439227,9.52697768 L5.20439227,9.52697768 Z" id="path12"></path>
                    <path d="M12.4647844,9.26896552 C12.7910589,9.59513185 13.2804707,9.75821501 13.9330197,9.75821501 C14.3816472,9.75821501 14.7894903,9.63590264 15.1157648,9.43204868 C15.4420393,9.18742394 15.6459609,8.94279919 15.7275295,8.69817444 L17.7259609,8.69817444 C17.3996864,9.67667343 16.9102746,10.3697769 16.2577256,10.8182556 C15.6051766,11.2259635 14.8302746,11.4705882 13.8922354,11.4705882 C13.2396864,11.4705882 12.668706,11.3482759 12.1385099,11.1444219 C11.6083138,10.940568 11.2004707,10.6551724 10.8334119,10.2474645 C10.4663531,9.88052738 10.1808629,9.43204868 10.0177256,8.9020284 C9.81380404,8.37200811 9.73223541,7.80121704 9.73223541,7.14888438 C9.73223541,6.53732252 9.81380404,5.96653144 10.0177256,5.43651116 C10.2216472,4.90649087 10.5071374,4.45801217 10.8741962,4.05030426 C11.241255,3.68336698 11.6898825,3.35720065 12.1792942,3.15334669 C12.7094903,2.94949274 13.2396864,2.82718036 13.8922354,2.82718036 C14.5855687,2.82718036 15.1973334,2.94949274 15.7275295,3.23488828 C16.2577256,3.52028381 16.6655687,3.84645014 16.9918433,4.3356998 C17.3181178,4.7841785 17.5628236,5.31419878 17.7259609,5.88498986 C17.8075295,6.45578093 17.8483138,7.02657201 17.8075295,7.67890467 L11.893804,7.67890467 C11.893804,8.33123732 12.1385099,8.94279919 12.4647844,9.26896552 L12.4647844,9.26896552 Z M15.0341962,4.98803245 C14.748706,4.70263692 14.3000785,4.53955375 13.7698825,4.53955375 C13.4028236,4.53955375 13.1173334,4.62109533 12.8726276,4.74340771 C12.6279217,4.86572008 12.4647844,5.02880325 12.3016472,5.19188641 C12.1385099,5.35496957 12.0569413,5.55882353 12.016157,5.76267748 C11.9753727,5.96653144 11.9345884,6.1296146 11.9345884,6.29269777 L15.6051766,6.29269777 C15.523608,5.6811359 15.3196864,5.27342799 15.0341962,4.98803245 L15.0341962,4.98803245 Z" id="path14"></path>
                    <rect id="rect24" x="11.363608" y="0.788640811" width="4.56784314" height="1.10081136"></rect>
                </g>
            </g>
        </g>
    </g>
</svg>