<?xml version="1.0" encoding="UTF-8" standalone="no"?>
<svg width="30px" height="31px" viewBox="0 0 30 31" version="1.1" xmlns="http://www.w3.org/2000/svg" xmlns:xlink="http://www.w3.org/1999/xlink" xmlns:sketch="http://www.bohemiancoding.com/sketch/ns">
    <!-- Generator: Sketch 3.4.4 (17249) - http://www.bohemiancoding.com/sketch -->
    <title>designerNews</title>
    <desc>Created with Sketch.</desc>
    <defs>
        <rect id="path-1" x="0.00549692568" y="0.0875127691" width="29.8089172" height="29.8089172" rx="2"></rect>
        <rect id="path-3" x="0" y="0" width="30" height="30"></rect>
    </defs>
    <g id="Page-1" stroke="none" stroke-width="1" fill="none" fill-rule="evenodd" sketch:type="MSPage">
        <g id="SVG_icons" sketch:type="MSLayerGroup" transform="translate(-358.000000, -179.000000)">
            <g id="designerNews" transform="translate(358.155552, 179.604167)">
                <g id="designernews-+-Mask">
                    <mask id="mask-2" sketch:name="Mask" fill="white">
                        <use xlink:href="#path-1"></use>
                    </mask>
                    <use id="Mask" sketch:type="MSShapeGroup" xlink:href="#path-1"></use>
                    <g id="designernews" mask="url(#mask-2)">
                        <g id="shadow">
                            <mask id="mask-4" sketch:name="Mask" fill="white">
                                <use xlink:href="#path-3"></use>
                            </mask>
                            <use id="Mask" fill="#2D72D9" sketch:type="MSShapeGroup" xlink:href="#path-3"></use>
                            <path d="M17.5068592,29.92978 L50.7074267,29.92978 L24.8327273,9.668085 L24.8327277,14.7366515 L22.5916625,13.1316684 L18.4215727,9.668085 L15.9390326,13.7149641 L12.4488467,10.8012463 L6.31187275,10.4119392 L4.76190476,20.4495679 L17.5068592,29.92978 Z" id="Shape" fill="#245BAE" sketch:type="MSShapeGroup" mask="url(#mask-4)"></path>
                        </g>
                        <path d="M14.2752381,15.0390476 C14.2752381,11.817619 12.2952381,9.63333333 8.52380952,9.63333333 L4.79952381,9.63333333 L4.79952381,20.4761905 L8.60238095,20.4761905 C12.2638095,20.4761905 14.2752381,18.2604762 14.2752381,15.0390476 L14.2752381,15.0390476 L14.2752381,15.0390476 Z M11.572381,15.0547619 C11.572381,17.3804762 10.3780952,18.3861905 8.46095238,18.3861905 L7.48666667,18.3861905 L7.48666667,11.7233333 L8.46095238,11.7233333 C10.2995238,11.7233333 11.572381,12.7761905 11.572381,15.0547619 L11.572381,15.0547619 L11.572381,15.0547619 Z M24.9766667,20.4761905 L24.9766667,9.63333333 L22.4780952,9.63333333 L22.4780952,15.6990476 L18.4866667,9.63333333 L15.8780952,9.63333333 L15.8780952,20.4761905 L18.3766667,20.4761905 L18.3766667,13.9861905 L22.6509524,20.4761905 L24.9766667,20.4761905 L24.9766667,20.4761905 Z" id="letters" fill="#FFFFFF" sketch:type="MSShapeGroup"></path>
                    </g>
                </g>
            </g>
        </g>
    </g>
</svg>