<?xml version="1.0" encoding="UTF-8" standalone="no"?>
<svg width="30px" height="31px" viewBox="0 0 30 31" version="1.1" xmlns="http://www.w3.org/2000/svg" xmlns:xlink="http://www.w3.org/1999/xlink" xmlns:sketch="http://www.bohemiancoding.com/sketch/ns">
    <!-- Generator: Sketch 3.2.2 (9983) - http://www.bohemiancoding.com/sketch -->
    <title>designerNews</title>
    <desc>Created with Sketch.</desc>
    <defs>
        <rect id="path-1" x="0.00549692568" y="0.0875127691" width="29.8089172" height="29.8089172" rx="2"></rect>
    </defs>
    <g id="Page-1" stroke="none" stroke-width="1" fill="none" fill-rule="evenodd" sketch:type="MSPage">
        <g id="SVG_icons" sketch:type="MSLayerGroup" transform="translate(-358.000000, -179.000000)">
            <g id="designerNews" transform="translate(358.155552, 179.604167)">
                <g id="Path-25-+-Path-26">
                    <mask id="mask-2" sketch:name="Mask" fill="white">
                        <use xlink:href="#path-1"></use>
                    </mask>
                    <use id="Mask" sketch:type="MSShapeGroup" xlink:href="#path-1"></use>
                    <g mask="url(#mask-2)" fill="#3473D6" sketch:type="MSShapeGroup">
                        <g transform="translate(-0.191083, -0.191083)">
                            <path d="M0.0109244516,0.0674732161 L17.9326928,0.0500174029 C17.9326928,0.0500174029 17.6567951,4.74719073 13.834902,8.90944753 C10.0130088,13.0717043 4.22352371,15.0060199 4.22352371,15.0060199 C4.22352371,15.0060199 4.22184388,16.3949144 5.09032728,18.4930347 C5.95881069,20.5911549 7.28751691,22.4081489 7.28751691,22.4081489 C7.28751691,22.4081489 4.90180488,21.8076767 3.2448689,21.1777733 C1.58793293,20.5478699 0.000835226769,19.6380323 0.000835226769,19.6380323 L0.0109244516,0.0674732161 Z" id="Path-25"></path>
                            <path d="M21.4481788,9.99205361 C24.6473328,6.88854828 30.081859,6.19826592 30.081859,6.19826592 L30.0682907,29.9689356 L11.2431236,30.0089457 C11.2431236,30.0089457 11.1810456,29.6216122 11.2072895,29.3137377 C11.2248167,29.1081204 11.4071387,28.5161713 11.1654322,28.4164268 C10.9237257,28.3166824 10.8397938,27.8795958 10.8397938,27.8795958 C10.8397938,27.8795958 10.8088415,27.585727 10.9237257,27.3864258 C11.0386099,27.1871247 11.2874597,27.1029849 11.2874597,27.1029849 C11.2874597,27.1029849 13.907173,27.1654173 14.3858084,27.1029849 C14.8644438,27.0405525 15.2710509,26.583372 15.2710509,26.583372 L16.2402253,25.6754105 C16.2402253,25.6754105 15.0212295,25.7586645 14.0975697,25.6754105 C13.1739099,25.5921565 12.2624615,25.316875 12.2624615,25.316875 C12.2624615,25.316875 12.7805955,24.0935632 13.0670772,23.5947121 C13.3693656,23.0683366 14.0975697,22.0401942 14.0975697,22.0401942 L11.1105503,20.3911383 L16.3717332,18.0498125 C16.3717332,18.0498125 18.2490248,13.0955589 21.4481788,9.99205361 Z M21.0871095,20.7063968 C22.0216893,20.7063968 22.779316,19.9536582 22.779316,19.0251081 C22.779316,18.0965581 22.0216893,17.3438195 21.0871095,17.3438195 C20.1525296,17.3438195 19.394903,18.0965581 19.394903,19.0251081 C19.394903,19.9536582 20.1525296,20.7063968 21.0871095,20.7063968 Z" id="Path-26"></path>
                        </g>
                    </g>
                </g>
            </g>
        </g>
    </g>
</svg>