<?xml version="1.0" encoding="UTF-8" standalone="no"?>
<svg width="31px" height="31px" viewBox="0 0 31 31" version="1.1" xmlns="http://www.w3.org/2000/svg" xmlns:xlink="http://www.w3.org/1999/xlink" xmlns:sketch="http://www.bohemiancoding.com/sketch/ns">
    <!-- Generator: Sketch 3.2.2 (9983) - http://www.bohemiancoding.com/sketch -->
    <title>dribbble</title>
    <desc>Created with Sketch.</desc>
    <defs></defs>
    <g id="Page-1" stroke="none" stroke-width="1" fill="none" fill-rule="evenodd" sketch:type="MSPage">
        <g id="SVG_icons" sketch:type="MSLayerGroup" transform="translate(-536.000000, -178.000000)">
            <g id="dribbble" transform="translate(536.365672, 178.604167)" sketch:type="MSShapeGroup">
                <rect id="Rectangle-7" fill="#EC4989" x="0.00545130582" y="0.0867936888" width="29.8235294" height="29.8235294" rx="2"></rect>
                <g id="logo" transform="translate(6.434331, 6.395833)" fill="#FFFFFF">
                    <path d="M0,8.5 C0,6.95866667 0.379666667,5.53633333 1.139,4.233 C1.89833333,2.92966667 2.92966667,1.89833333 4.233,1.139 C5.53633333,0.379666667 6.95866667,0 8.5,0 C10.0413333,0 11.4636667,0.379666667 12.767,1.139 C14.0703333,1.89833333 15.1016667,2.92966667 15.861,4.233 C16.6203333,5.53633333 17,6.95866667 17,8.5 C17,10.0413333 16.6203333,11.4636667 15.861,12.767 C15.1016667,14.0703333 14.0703333,15.1016667 12.767,15.861 C11.4636667,16.6203333 10.0413333,17 8.5,17 C6.95866667,17 5.53633333,16.6203333 4.233,15.861 C2.92966667,15.1016667 1.89833333,14.0703333 1.139,12.767 C0.379666667,11.4636667 0,10.0413333 0,8.5 L0,8.5 Z M1.411,8.5 C1.411,10.268 2.006,11.8263333 3.196,13.175 C3.74,12.1096667 4.60133333,11.0953333 5.78,10.132 C6.95866667,9.16866667 8.109,8.56233333 9.231,8.313 C9.061,7.91633333 8.89666667,7.55933333 8.738,7.242 C6.78866667,7.86533333 4.68066667,8.177 2.414,8.177 C1.972,8.177 1.64333333,8.17133333 1.428,8.16 C1.428,8.20533333 1.42516667,8.262 1.4195,8.33 C1.41383333,8.398 1.411,8.45466667 1.411,8.5 L1.411,8.5 Z M1.632,6.749 C1.88133333,6.77166667 2.24966667,6.783 2.737,6.783 C4.62966667,6.783 6.426,6.528 8.126,6.018 C7.26466667,4.488 6.31833333,3.213 5.287,2.193 C4.39166667,2.64633333 3.62383333,3.27533333 2.9835,4.08 C2.34316667,4.88466667 1.89266667,5.77433333 1.632,6.749 L1.632,6.749 Z M4.165,14.093 C5.44566667,15.0903333 6.89066667,15.589 8.5,15.589 C9.33866667,15.589 10.1716667,15.4303333 10.999,15.113 C10.7723333,13.175 10.3303333,11.2993333 9.673,9.486 C8.63033333,9.71266667 7.57916667,10.285 6.5195,11.203 C5.45983333,12.121 4.675,13.0843333 4.165,14.093 L4.165,14.093 Z M6.766,1.649 C7.76333333,2.68033333 8.687,3.96666667 9.537,5.508 C11.0783333,4.862 12.24,4.04033333 13.022,3.043 C11.7073333,1.955 10.2,1.411 8.5,1.411 C7.922,1.411 7.344,1.49033333 6.766,1.649 L6.766,1.649 Z M10.149,6.715 C10.319,7.07766667 10.5116667,7.53666667 10.727,8.092 C11.5656667,8.01266667 12.478,7.973 13.464,7.973 C14.1666667,7.973 14.8636667,7.99 15.555,8.024 C15.4643333,6.48266667 14.909,5.11133333 13.889,3.91 C13.1523333,5.00933333 11.9056667,5.94433333 10.149,6.715 L10.149,6.715 Z M11.152,9.282 C11.73,10.9593333 12.121,12.682 12.325,14.45 C13.2203333,13.872 13.9513333,13.1296667 14.518,12.223 C15.0846667,11.3163333 15.4246667,10.336 15.538,9.282 C14.7106667,9.22533333 13.957,9.197 13.277,9.197 C12.6536667,9.197 11.9453333,9.22533333 11.152,9.282 L11.152,9.282 Z" id="Shape"></path>
                </g>
            </g>
        </g>
    </g>
</svg>