<?xml version="1.0" encoding="UTF-8" standalone="no"?>
<svg width="31px" height="31px" viewBox="0 0 31 31" version="1.1" xmlns="http://www.w3.org/2000/svg" xmlns:xlink="http://www.w3.org/1999/xlink" xmlns:sketch="http://www.bohemiancoding.com/sketch/ns">
    <!-- Generator: Sketch 3.2.2 (9983) - http://www.bohemiancoding.com/sketch -->
    <title>dribbble</title>
    <desc>Created with Sketch.</desc>
    <defs></defs>
    <g id="Page-1" stroke="none" stroke-width="1" fill="none" fill-rule="evenodd" sketch:type="MSPage">
        <g id="SVG_icons" sketch:type="MSLayerGroup" transform="translate(-536.000000, -178.000000)">
            <g id="dribbble" transform="translate(536.365672, 178.604167)" sketch:type="MSShapeGroup">
                <rect id="Rectangle-7" fill="#EC4989" x="0.00545130582" y="0.0867936888" width="29.8235294" height="29.8235294" rx="2"></rect>
                <path d="M21.7329946,10.1645825 C21.435562,9.72269009 21.0929225,9.3092395 20.7165246,8.93121076 C20.3393439,8.55520426 19.9242625,8.2138368 19.4835768,7.91516474 C19.0384227,7.61362241 18.5619239,7.3552321 18.0679424,7.14527774 C17.5645673,6.9324531 17.0376102,6.76930386 16.5025316,6.66023327 C15.9531994,6.54793362 15.3884068,6.49095207 14.8240383,6.49095207 C14.2592457,6.49095207 13.6944532,6.54793362 13.1459364,6.66023327 C12.6100097,6.76927124 12.0830853,6.93242049 11.5801342,7.14527774 C11.0861527,7.35526471 10.6092298,7.61362241 10.1640757,7.91516474 C9.72339011,8.2138368 9.3083413,8.55520426 8.9319434,8.93121076 C8.5551541,9.3092395 8.21251459,9.72269009 7.91465795,10.1645825 C7.61435505,10.6089538 7.35554072,11.0858441 7.14640178,11.580641 C6.93315313,12.0831681 6.77000388,12.6105165 6.65972647,13.1468346 C6.54817701,13.6949926 6.49122807,14.2597852 6.49122807,14.8245777 C6.49122807,15.3889462 6.54820962,15.952532 6.65969385,16.5018968 C6.76997126,17.0381822 6.93312051,17.5647479 7.14636916,18.0680904 C7.3555081,18.5624959 7.61432243,19.0389948 7.91462533,19.4833335 C8.21248197,19.9248671 8.55512148,20.3391005 8.93191078,20.7167052 C9.30830868,21.0926791 9.72335749,21.4348946 10.1640431,21.7339907 C10.6091972,22.034261 11.0861201,22.2926513 11.5801016,22.5022468 C12.0830527,22.7146475 12.6100097,22.8774053 13.1459038,22.9872587 C13.6944206,23.1004064 14.2592131,23.1581707 14.8240057,23.1581707 C15.3883742,23.1581707 15.9531994,23.1004064 16.502499,22.9872587 C17.0375776,22.8774053 17.5645673,22.7146475 18.0679098,22.5022468 C18.5619239,22.2926513 19.0383901,22.034261 19.4835442,21.7339907 C19.9242298,21.434862 20.3392787,21.0926791 20.716492,20.7167052 C21.0928899,20.3391005 21.4355294,19.9248671 21.732962,19.4833335 C22.0348958,19.0389948 22.2932861,18.5625285 22.5016096,18.0680904 C22.7148256,17.5647479 22.8775835,17.0382149 22.9874695,16.5018968 C23.1001605,15.952532 23.1575335,15.3889462 23.1575335,14.8245777 C23.1575335,14.2597852 23.1001605,13.6949926 22.9874695,13.1468346 C22.8775835,12.6105165 22.7148256,12.0831681 22.5016096,11.580641 C22.2932861,11.0858767 22.0348958,10.6089538 21.7329946,10.1645825 L21.7329946,10.1645825 Z M14.8240057,7.70847207 C16.6258231,7.70847207 18.2709494,8.37861689 19.5238586,9.48341322 C19.5063434,9.50944143 18.4927436,11.0524771 15.8075001,12.0591621 C14.5904368,9.82442189 13.2537023,8.05111158 13.1471106,7.90785858 C13.6846355,7.77846773 14.245775,7.70847207 14.8240057,7.70847207 L14.8240057,7.70847207 Z M13.1627524,7.91519736 L13.1677524,7.91519736 C13.1427524,7.91769736 13.1215524,7.92019736 13.0966524,7.93269736 C13.1390524,7.92009736 13.1627524,7.91519736 13.1627524,7.91519736 L13.1627524,7.91519736 Z M11.7876097,8.38758651 C11.8824267,8.51417232 13.1983842,10.3000727 14.4300926,12.4884645 C11.0132542,13.3963205 8.04766927,13.3588765 7.86005742,13.3572456 C8.32191134,11.1533935 9.80307296,9.32473248 11.7876097,8.38758651 L11.7876097,8.38758651 Z M9.53085313,19.5797813 C8.39719092,18.3195333 7.70747602,16.6528147 7.70747602,14.8245777 C7.70747602,14.7480587 7.7111291,14.6740186 7.71318396,14.5975321 C7.83931313,14.6023921 11.3554697,14.6813247 15.0197065,13.5843238 C15.2235615,13.9839122 15.4185121,14.3892086 15.5971217,14.793657 C15.5035441,14.8205006 15.4091185,14.8481923 15.3163563,14.879113 C11.4759235,16.1209978 9.52840687,19.5760956 9.52840687,19.5760956 C9.52840687,19.5760956 9.53003771,19.5781505 9.53085313,19.5797813 L9.53085313,19.5797813 Z M14.8240057,21.9406834 C13.1735629,21.9406834 11.6582188,21.3738359 10.4512993,20.4310473 L10.4500599,20.434309 C10.4500599,20.434309 10.3853807,20.3854816 10.2909551,20.3089626 C10.3426201,20.35293 10.3987862,20.3903415 10.4512993,20.4310473 C10.4643134,20.4033556 11.8351976,17.4524483 16.0349697,15.9883452 C16.0504627,15.9826699 16.0663145,15.9781362 16.0821662,15.9728849 C17.0835673,18.57551 17.4969853,20.7549321 17.6023701,21.3767062 C16.7482666,21.7400248 15.8095224,21.9406834 14.8240057,21.9406834 L14.8240057,21.9406834 Z M18.8007767,20.7264577 C18.7283348,20.2975793 18.3490666,18.2084731 17.4156063,15.6432595 C19.7126447,15.2749831 21.7036721,15.9053028 21.8501542,15.9524994 C21.5335755,17.9358619 20.3987065,19.6481462 18.8007767,20.7264577 L18.8007767,20.7264577 Z M16.9818681,14.5201977 C16.9318339,14.3981456 16.8805603,14.2760609 16.8280473,14.15153 C16.6803584,13.8043894 16.5204056,13.4589774 16.3552341,13.1195996 C19.1649759,11.9720753 20.3063683,10.3228393 20.3198064,10.3037584 C21.3183372,11.5159293 21.9218133,13.0642489 21.9380891,14.7512878 C21.8351178,14.7301521 19.4265953,14.212556 16.9818681,14.5201977 L16.9818681,14.5201977 Z M13.1627524,7.91519736 C13.1627524,7.91519736 13.1390524,7.92019736 13.0966524,7.93269736 C13.1216524,7.92019736 13.1427524,7.91769736 13.1677524,7.91519736 L13.1627524,7.91519736 L13.1627524,7.91519736 Z M10.2909877,20.3089626 C10.3426527,20.35293 10.3988189,20.3903415 10.4513319,20.4310473 L10.4500925,20.434309 C10.4500925,20.4342763 10.3853807,20.385449 10.2909877,20.3089626 L10.2909877,20.3089626 Z" id="Shape" stroke="#FFFFFF" stroke-width="0.5" fill="#FFFFFF"></path>
            </g>
        </g>
    </g>
</svg>
