<?xml version="1.0" encoding="UTF-8" standalone="no"?>
<svg width="31px" height="31px" viewBox="0 0 31 31" version="1.1" xmlns="http://www.w3.org/2000/svg" xmlns:xlink="http://www.w3.org/1999/xlink" xmlns:sketch="http://www.bohemiancoding.com/sketch/ns">
    <!-- Generator: Sketch 3.2.2 (9983) - http://www.bohemiancoding.com/sketch -->
    <title>fastCoDesign</title>
    <desc>Created with Sketch.</desc>
    <defs></defs>
    <g id="Page-1" stroke="none" stroke-width="1" fill="none" fill-rule="evenodd" sketch:type="MSPage">
        <g id="SVG_icons" sketch:type="MSLayerGroup" transform="translate(-1.000000, -356.000000)">
            <g id="fastCoDesign" transform="translate(1.246269, 356.962500)" sketch:type="MSShapeGroup">
                <rect id="Rectangle-8" fill="#FFFFFF" x="0" y="0" width="29.8235294" height="29.8235294" rx="2"></rect>
                <g id="Group" transform="translate(2.857143, 1.071429)" fill="#000000">
                    <path d="M6.23161094,2.54182754 L0.0847682371,2.54182754 L0.0847682371,23.6389961 L7.23966565,23.6389961 C12.3995821,22.8764479 14.3400874,18.8484138 14.3400874,12.9251931 L14.3400874,11.2249646 C14.3400874,5.86882561 12.7025076,2.54182754 6.23161094,2.54182754 L6.23161094,2.54182754 Z" id="Shape"></path>
                    <path d="M10.8437158,0 C15.8458055,1.52509653 17.9039172,5.79765444 17.9039172,12.245 L17.9039172,12.3301512 C17.9039172,17.1819916 16.8538602,21.8597169 13.9264286,23.6389961 L23.7587804,23.6389961 L23.7587804,0 L10.8437158,0 L10.8437158,0 Z" id="Shape"></path>
                </g>
                <g id="Group" transform="translate(6.675532, 26.235521)" fill="#000000">
                    <path d="M1.73507599,0.669263192 C1.62536094,0.641048906 1.50368161,0.628848134 1.37385638,0.628848134 C0.890957447,0.628848134 0.667708967,0.920395753 0.667708967,1.43537001 L0.667708967,1.60541828 C0.667708967,2.23375804 0.93168693,2.52149292 1.41458587,2.52149292 C1.5362652,2.52149292 1.66227204,2.50522523 1.77987842,2.47294402 L1.77987842,2.07591055 L2.22230243,2.07591055 L2.22230243,2.61503218 C2.0924772,2.75661197 1.80024316,2.91878057 1.37385638,2.91878057 C0.618833587,2.91878057 0.119642857,2.42439511 0.119642857,1.5446686 L0.119642857,1.53678893 C0.119642857,0.73001287 0.566139818,0.211225869 1.33338146,0.211225869 C1.77987842,0.211225869 2.06396657,0.35712677 2.18971884,0.491335264 L2.18971884,1.03833655 L1.73507599,1.03833655 L1.73507599,0.669263192 L1.73507599,0.669263192 Z" id="Shape"></path>
                    <path d="M2.57970365,1.85299228 L2.57970365,1.84511261 C2.57970365,1.21651866 2.99768997,0.844140927 3.58215805,0.844140927 C4.16662614,0.844140927 4.58461246,1.21728121 4.58461246,1.84129987 L4.58461246,1.84917954 C4.58461246,2.58681789 4.10960486,2.90302124 3.58215805,2.90302124 C3.05471125,2.90276705 2.57970365,2.58656371 2.57970365,1.85299228 L2.57970365,1.85299228 Z M4.06531155,1.90967503 L4.06531155,1.76377413 C4.06531155,1.39088803 3.87031915,1.18805019 3.58241261,1.18805019 C3.29425152,1.18805019 3.10333207,1.39088803 3.10333207,1.76377413 L3.10333207,1.90967503 C3.10333207,2.40380631 3.31461626,2.56622909 3.58241261,2.56622909 C3.85020897,2.56622909 4.06531155,2.40406049 4.06531155,1.90967503 L4.06531155,1.90967503 Z" id="Shape"></path>
                    <path d="M4.84884498,2.57868404 C4.84884498,2.40024775 4.99496201,2.25460103 5.16551672,2.25460103 C5.34014438,2.25460103 5.48218845,2.40024775 5.48218845,2.57868404 C5.48218845,2.7487323 5.34014438,2.89488739 5.16551672,2.89488739 C4.99496201,2.8946332 4.84884498,2.7487323 4.84884498,2.57868404 L4.84884498,2.57868404 Z" id="Shape"></path>
                    <path d="M5.87573708,0.268416988 L7.11365881,0.268416988 C7.86868161,0.268416988 8.28666793,0.714253539 8.28666793,1.52890927 L8.28666793,1.53704311 C8.28666793,2.43659588 7.82387918,2.85803089 7.03652736,2.85803089 L5.87548252,2.85803089 L5.87548252,2.49327864 L6.1068769,2.49327864 L6.1068769,0.661129344 L5.87548252,0.661129344 L5.87573708,0.268416988 L5.87573708,0.268416988 Z M6.99197948,2.4731982 C7.54793693,2.4731982 7.73885638,2.15699485 7.73885638,1.60999356 L7.73885638,1.4193565 C7.73885638,0.965131918 7.59273936,0.693918919 7.07318389,0.693918919 L6.63075988,0.693918919 L6.63075988,2.4731982 L6.99197948,2.4731982 L6.99197948,2.4731982 Z" id="Shape"></path>
                    <path d="M10.2029901,0.689597812 L9.37083587,0.689597812 L9.37083587,1.38707529 L10.3086322,1.38707529 L10.3086322,1.7759749 L9.37083587,1.7759749 L9.37083587,2.48107786 L10.2353191,2.48107786 L10.2353191,2.10819176 L10.6655243,2.10819176 L10.6655243,2.85777671 L8.61555851,2.85777671 L8.61555851,2.49302445 L8.84695289,2.49302445 L8.84695289,0.660875161 L8.61555851,0.660875161 L8.61555851,0.267908623 L10.6370137,0.267908623 L10.6370137,1.037574 L10.2027356,1.037574 L10.2027356,0.689597812 L10.2029901,0.689597812 Z" id="Shape"></path>
                    <path d="M12.3341603,0.653249678 C12.2328457,0.62478121 12.1231307,0.61283462 12.021307,0.61283462 C11.761402,0.61283462 11.5549544,0.685785071 11.5549544,0.961319176 C11.5549544,1.07900579 11.5951748,1.16771557 11.725,1.22490669 C11.9686132,1.3382722 12.3906725,1.33420528 12.6342857,1.49637387 C12.8409878,1.62600708 12.9227014,1.82045689 12.9227014,2.09599099 C12.9227014,2.6633269 12.5006421,2.91878057 11.9607219,2.91878057 C11.5142249,2.91878057 11.2018807,2.79346847 11.0473632,2.65138031 L11.0473632,2.09192407 L11.4938602,2.09192407 L11.4938602,2.47726512 C11.62394,2.51386744 11.7657295,2.53776062 11.9159195,2.53776062 C12.2122264,2.53776062 12.4072188,2.43227477 12.4072188,2.15241956 C12.4072188,2.03066602 12.3667439,1.95415701 12.248883,1.89722008 C12.0783283,1.79986808 11.6440502,1.77546654 11.4004369,1.64202059 C11.1690426,1.51238739 11.0715464,1.29353604 11.0715464,1.00122587 C11.0715464,0.445836551 11.5180433,0.211225869 11.9805775,0.211225869 C12.3580889,0.211225869 12.6383587,0.312390605 12.7760752,0.44202381 L12.7760752,0.989025097 L12.3339058,0.989025097 L12.3341603,0.653249678 L12.3341603,0.653249678 Z" id="Shape"></path>
                    <path d="M13.2638108,0.268416988 L14.2985942,0.268416988 L14.2985942,0.661383526 L14.0430167,0.661383526 L14.0430167,2.49353282 L14.2985942,2.49353282 L14.2985942,2.85828507 L13.2638108,2.85828507 L13.2638108,2.49353282 L13.5193883,2.49353282 L13.5193883,0.661383526 L13.2638108,0.661383526 L13.2638108,0.268416988 L13.2638108,0.268416988 Z" id="Shape"></path>
                    <path d="M15.8735524,1.48391892 L16.8396049,1.48391892 L16.8396049,2.57842986 C16.6611588,2.76067889 16.3363412,2.91878057 15.8860258,2.91878057 C15.1472948,2.91878057 14.6315578,2.44040862 14.6315578,1.54848134 L14.6315578,1.54060167 C14.6315578,0.734079794 15.1391489,0.211225869 15.910209,0.211225869 C16.3488146,0.211225869 16.6043921,0.332979408 16.7464362,0.462612613 L16.7464362,1.03833655 L16.2958663,1.03833655 L16.2958663,0.669517375 C16.1899696,0.64511583 16.0726178,0.628848134 15.9468655,0.628848134 C15.4680395,0.628848134 15.1755509,0.92471686 15.1755509,1.46002574 L15.1755509,1.59753861 C15.1755509,2.23401223 15.4471657,2.51361326 15.9305737,2.51361326 C16.0685448,2.51361326 16.202443,2.49327864 16.3243769,2.46099743 L16.3243769,1.87739382 L15.873807,1.87739382 L15.873807,1.4841731 L15.8735524,1.4841731 L15.8735524,1.48391892 Z" id="Shape"></path>
                    <path d="M18.8900798,0.268416988 L19.8683511,0.268416988 L19.8683511,0.661383526 L19.6369567,0.661383526 L19.6369567,2.85828507 L18.9348822,2.85828507 L17.9039172,0.734842342 L17.9039172,2.493787 L18.2368807,2.493787 L18.2368807,2.85853925 L17.2300988,2.85853925 L17.2300988,2.493787 L17.4617477,2.493787 L17.4617477,0.661637709 L17.2300988,0.661637709 L17.2300988,0.268671171 L18.2368807,0.268671171 L19.1950418,2.2830695 L19.1950418,0.661891892 L18.8905889,0.661891892 L18.8900798,0.268416988 L18.8900798,0.268416988 Z" id="Shape"></path>
                </g>
            </g>
        </g>
    </g>
</svg>