<?xml version="1.0" encoding="UTF-8" standalone="no"?>
<svg width="31px" height="31px" viewBox="0 0 31 31" version="1.1" xmlns="http://www.w3.org/2000/svg" xmlns:xlink="http://www.w3.org/1999/xlink" xmlns:sketch="http://www.bohemiancoding.com/sketch/ns">
    <!-- Generator: Sketch 3.2.2 (9983) - http://www.bohemiancoding.com/sketch -->
    <title>fastCompany</title>
    <desc>Created with Sketch.</desc>
    <defs></defs>
    <g id="Page-1" stroke="none" stroke-width="1" fill="none" fill-rule="evenodd" sketch:type="MSPage">
        <g id="SVG_icons" sketch:type="MSLayerGroup" transform="translate(-179.000000, -356.000000)">
            <g id="fastCompany" transform="translate(179.619403, 356.962500)" sketch:type="MSShapeGroup">
                <rect id="Rectangle-8" fill="#000000" x="0" y="0" width="29.997936" height="29.997936" rx="2"></rect>
                <g id="FastCompany-logo-white" transform="translate(1.578947, 4.385965)" fill="#FFFFFF">
                    <g id="Group">
                        <g id="company" transform="translate(0.000000, 14.385965)">
                            <path d="M6.23793012,1.62962595 C6.23011057,2.45150612 6.15950464,4.96441576 6.15950464,4.96441576 C6.14777532,5.45703409 6.32084034,5.68341609 6.77126935,5.69117842 L6.77126935,5.8888282 L4.97507298,5.8888282 L4.97507298,5.68341609 C5.43470146,5.68341609 5.66319328,5.45460113 5.68101725,4.96441576 L5.83004865,0.847252565 C5.69677134,0.523320093 5.56337904,0.412677921 5.20264485,0.396689838 L5.20264485,0.191509434 L6.59084476,0.191509434 L8.0340115,4.06352201 L9.52421053,0.191509434 L10.7714286,0.191509434 L10.7714286,0.396805693 C10.4044847,0.396805693 10.2154356,0.538613042 10.2301548,0.934260179 L10.3791862,4.93290301 C10.4010349,5.52249255 10.5102786,5.68353194 10.9754268,5.68353194 L10.9754268,5.88894406 L8.91256081,5.88894406 L8.91256081,5.68353194 C9.30836798,5.68353194 9.50650155,5.55562728 9.48511278,4.91714664 C9.48511278,4.91714664 9.38357364,2.12641509 9.37529412,1.62974181 L8.36369748,4.40332671 C8.23363998,4.75969878 8.10714728,5.16403509 8.0027333,5.61251241 L7.65752322,5.62838464 C7.58231756,5.34233697 7.37544449,4.78275405 7.37544449,4.78275405 C7.37544449,4.78275405 6.53070323,2.41663357 6.23793012,1.62962595 L6.23793012,1.62962595 Z" id="Shape"></path>
                            <path d="M4.55155241,5.93644489 C4.42908448,5.90666998 4.33076515,5.90481629 4.20645732,5.90481629 C3.99463954,5.90481629 3.63011057,6.01545846 3.15541796,6.01545846 C1.40843874,6.01545846 0.112118532,4.95074479 0.112118532,2.9968388 C0.112118532,1.32840119 1.32529854,0.0649950348 3.18681115,0.0649950348 C3.61769129,0.0649950348 4.12032729,0.129526647 4.52015922,0.309913936 C4.59467492,0.227424694 4.6262981,0.180271433 4.70840336,0.0887454485 L4.85743476,0.0965077789 C4.83294118,0.391939755 4.731977,1.36871897 4.731977,1.36871897 L4.56719151,1.3529626 C4.44909332,0.783647799 4.15402034,0.420324396 3.21026979,0.420324396 C2.08034498,0.420324396 1.05333923,1.30175439 1.05333923,2.96486263 C1.05333923,4.84913936 2.10403361,5.64379345 3.27305617,5.64379345 C4.0283326,5.64379345 4.48566121,5.22926183 4.77900929,4.67975836 L4.97507298,4.75077789 L4.55155241,5.93644489 L4.55155241,5.93644489 Z" id="Shape"></path>
                            <path d="M19.7442459,1.58224098 L19.7442459,4.83801721 C19.7442459,5.53384641 19.898797,5.6836478 20.3402565,5.6836478 L20.3402565,5.88905991 L17.1481557,5.88905991 L17.1481557,5.6836478 C17.4120655,5.6836478 17.6187085,5.59177425 17.6187085,5.43884475 C17.6187085,5.32820258 17.5944449,5.13854684 17.5324635,4.94101291 L17.2892525,4.166286 L15.5088103,4.166286 C15.478107,4.2663853 15.1715347,5.15893744 15.1715347,5.42297253 C15.1715347,5.6386958 15.3935869,5.6836478 15.5794162,5.6836478 L15.5794162,5.88905991 L14.0815126,5.88905991 L14.0815126,5.6836478 C14.3471473,5.6836478 14.5758691,5.65132406 14.7483591,5.09880834 L16.136559,0.649950348 C16.0445644,0.46041046 15.9533746,0.413373055 15.7677753,0.396921549 L15.7677753,0.191509434 L16.9756656,0.191509434 L18.4189474,4.83790136 C18.5705086,5.32565376 18.6965414,5.56501159 18.9052543,5.68353194 C19.223096,5.58401192 19.3053162,5.46108904 19.3053162,4.83025488 L19.3053162,0.94225422 C19.0826891,0.598742138 19.0434763,0.396921549 18.5837329,0.396921549 L18.5837329,0.191509434 L19.9564087,0.191509434 L22.238912,4.07151605 L22.238912,1.10815955 C22.238912,0.524710361 22.0859708,0.396805693 21.6427864,0.396805693 L21.6427864,0.191509434 L24.6545776,0.191509434 L24.6545776,0.396805693 C24.4504644,0.396805693 24.2934985,0.460178749 24.2934985,0.657596822 C24.2934985,0.793379676 24.3541,0.941443231 24.4191862,1.08440914 L25.2740469,2.96497848 L26.1133835,1.14743462 C26.2310217,0.892436279 26.2701194,0.761519364 26.2701194,0.625852367 C26.2701194,0.471069182 26.1548961,0.396573982 25.9093852,0.396573982 L25.9093852,0.191509434 L27.352667,0.191509434 L27.352667,0.396805693 C26.988368,0.396805693 26.7916143,0.707878186 26.60751,1.09217147 L25.5094383,3.38379676 L25.5094383,4.86153592 C25.5094383,5.52527309 25.6795135,5.68341609 26.1055639,5.68341609 L26.1055639,5.8888282 L24.0658116,5.8888282 L24.0658116,5.68341609 C24.4842724,5.68341609 24.6619372,5.51936445 24.6619372,4.86153592 L24.6619372,3.58133069 L23.4776205,1.06077458 C23.2544184,0.585650447 23.157134,0.458672625 23.0306413,0.397037405 C22.7744361,0.504783184 22.6931358,0.680652102 22.6931358,1.10839126 L22.6931358,5.30445217 C22.6931358,5.30445217 22.7077399,5.62664681 22.7481026,5.99981794 L22.3872534,6.03944058 L19.7442459,1.58224098 L19.7442459,1.58224098 Z M16.3714905,1.29781529 L15.6183989,3.77121814 L17.1714993,3.77121814 L16.3714905,1.29781529 L16.3714905,1.29781529 Z" id="Shape"></path>
                            <path d="M13.0225387,3.77121814 C13.0225387,3.77121814 12.792782,3.77075472 12.6144272,3.77121814 L12.6144272,4.94865938 C12.6144272,5.54913936 12.7981866,5.6836478 13.2577001,5.6836478 L13.2577001,5.88905991 L11.1713755,5.88905991 L11.1713755,5.6836478 C11.61341,5.6836478 11.7675011,5.50974843 11.7675011,4.92502483 L11.7675011,1.09240318 C11.7675011,0.493892751 11.6150199,0.396921549 11.1713755,0.396921549 L11.1713755,0.191509434 L12.7320655,0.191509434 C14.2393985,0.191509434 15.1242724,0.652151605 15.1242724,1.90628931 C15.1242724,3.19842767 14.0692083,3.77121814 13.0225387,3.77121814 L13.0225387,3.77121814 Z M12.7713932,0.586577292 L12.6222468,0.586577292 L12.6222468,3.37603443 L12.8812119,3.37603443 C13.7688456,3.37603443 14.230199,2.97053956 14.230199,1.92181397 C14.230429,0.906802383 13.8100133,0.586577292 12.7713932,0.586577292 L12.7713932,0.586577292 Z" id="Shape"></path>
                            <path d="M3.61033171,4.81438265 C2.60747457,4.81438265 1.88474126,4.0815955 1.88474126,3.02058921 C1.88474126,2.01473022 2.63886776,1.23467395 3.61815126,1.23467395 C4.58179567,1.23467395 5.32016807,1.99908971 5.32016807,3.01271102 C5.32016807,4.0183383 4.56627156,4.81438265 3.61033171,4.81438265 L3.61033171,4.81438265 Z M3.6260858,1.55072824 C2.9240513,1.55072824 2.66922601,2.2408805 2.66922601,3.02070506 C2.66922601,3.75372393 2.90093764,4.49844422 3.61826625,4.49844422 C4.31202123,4.49844422 4.54373286,3.74607746 4.54373286,3.00483284 C4.54361787,2.25663688 4.26521893,1.55072824 3.6260858,1.55072824 L3.6260858,1.55072824 Z" id="Shape"></path>
                        </g>
                        <g id="fast" transform="translate(0.526316, 0.000000)">
                            <path d="M25.8756639,2.64090367 L25.4804442,2.5913671 C25.447127,1.51364449 25.1033317,1.22343264 24.2455336,1.22343264 L22.5987446,1.22343264 L22.5987446,10.0902383 C22.5987446,11.5705362 22.8580396,11.8539821 23.8505553,11.8539821 L23.8505553,12.2824131 L19.5690488,12.2824131 L19.5690488,11.8539821 C20.544423,11.8539821 20.8203766,11.5611122 20.8203766,10.0571334 L20.8203766,1.22343264 L19.2066634,1.22343264 C18.141719,1.22343264 17.9756156,1.46048328 17.658619,2.62423039 L17.2633993,2.5913671 L17.5434573,0.0529195631 L17.8563496,0.10245614 C17.938677,0.399433962 18.2020763,0.399433962 18.8606953,0.399433962 L24.3606953,0.399433962 C25.3488653,0.399433962 25.6122646,0.399433962 25.8261709,0.0534028467 L26.1554804,0.086266137 L25.8756639,2.64090367 L25.8756639,2.64090367 Z" id="Shape"></path>
                            <path d="M13.8713182,12.5796326 C13.0782231,12.5796326 12.4591985,12.4621946 11.9942057,12.315518 C11.5422501,12.1734326 11.2293578,12.0120159 11.0226944,11.9199503 C10.8305167,12.1456438 10.6605505,12.3981595 10.6605505,12.3981595 L10.2817479,12.3152764 L10.5782231,9.66204899 L11.0062772,9.71158557 C11.1883148,10.9321185 12.0717045,11.8375505 13.7892323,11.8375505 C15.1581362,11.8375505 16.0618059,10.6994174 16.0618059,9.48081761 C16.0618059,8.42532605 15.697972,7.91836147 14.2996137,6.94261172 C13.8877354,6.65529957 13.5019314,6.40109235 13.1139546,6.13480305 C11.9113955,5.31056273 11.1052632,4.40319762 11.1052632,2.93739821 C11.1052632,1.27127772 12.5120715,0.152234359 14.3985997,0.152234359 C15.4760985,0.152234359 16.1528247,0.455978153 16.358281,0.564233697 L16.7368421,0.119129427 L17.0169,0.168666005 L16.7699179,2.60779874 L16.3913568,2.55826216 C16.3580396,1.41916253 15.704732,0.893591526 14.5634959,0.893591526 C13.4531627,0.893591526 12.6697248,1.45903343 12.6697248,2.57469381 C12.6697248,3.51419729 13.4381941,4.15817279 14.2836794,4.71733201 C14.6955577,4.98990401 15.0572187,5.24870242 15.3870111,5.47802052 C17.3957026,6.87591857 17.8239981,7.74969547 17.8239981,9.11762992 C17.8235152,11.0889441 16.2865765,12.5796326 13.8713182,12.5796326 L13.8713182,12.5796326 Z" id="Shape"></path>
                            <path d="M7.39956543,2.62447203 L6.98768711,2.62447203 C6.95436987,1.59604436 6.51327861,1.22367428 5.58812168,1.22367428 L3.03573153,1.22367428 L3.03573153,5.65731877 L4.68252052,5.65731877 C5.52752294,5.65731877 5.74456784,5.24072824 5.85176243,4.47061569 L6.21390633,4.47061569 L6.21390633,7.65158888 L5.85176243,7.65158888 C5.73370352,6.82662363 5.53790439,6.46512744 4.66610333,6.46512744 L3.03597296,6.46512744 L3.03597296,10.2721946 C3.03597296,11.6915988 3.37324964,11.8544654 4.28754225,11.8544654 L4.28754225,12.2828964 L0.00579430227,12.2828964 L0.00579430227,11.8544654 C1.09753742,11.8544654 1.25736359,11.5787521 1.25736359,10.2888679 L1.25736359,1.96527309 C1.25736359,1.14344919 0.924191212,0.827864945 0.00579430227,0.827864945 L0.00579430227,0.399433962 L5.901014,0.399433962 C6.91839691,0.399433962 7.13182038,0.341439921 7.28416224,0.00386626945 L7.67938194,0.00386626945 L7.39956543,2.62447203 L7.39956543,2.62447203 Z" id="Shape"></path>
                            <path d="M9.75446644,9.36555445 L9.75446644,8.95355511 C10.2897151,8.95355511 10.4133269,8.77643165 10.4133269,8.62419729 C10.4133269,8.41880172 10.3568324,8.2402284 10.2979237,8.04691493 C10.2979237,8.04691493 10.1704491,7.59891096 10.0673588,7.28888448 L7.87735394,7.28888448 L7.66320618,7.98094671 C7.60260744,8.17691824 7.51496861,8.36491559 7.51496861,8.57441907 C7.51496861,8.81871897 7.77909223,8.95307183 8.10791888,8.95307183 L8.10791888,9.36507117 L5.91767262,9.36507117 L5.91767262,8.95307183 C6.43674553,8.95307183 6.67624336,8.79938762 6.88918397,8.16241973 L8.58522453,3.0857663 C8.52486721,2.83252565 8.38218252,2.69213174 8.05818445,2.65733532 L8.05818445,2.27844091 L9.8696282,2.27844091 C11.3042009,6.56565045 11.6974891,7.7337471 11.6974891,7.7337471 C12.0231772,8.70538894 12.2684693,8.95331347 12.7679865,8.95331347 L12.7679865,9.36531281 L9.75446644,9.36531281 L9.75446644,9.36555445 Z M8.96378561,3.8440384 L8.07460164,6.62944389 L9.8696282,6.62944389 L8.96378561,3.8440384 L8.96378561,3.8440384 Z" id="Shape"></path>
                        </g>
                    </g>
                </g>
            </g>
        </g>
    </g>
</svg>