<?xml version="1.0" encoding="UTF-8" standalone="no"?>
<svg width="31px" height="31px" viewBox="0 0 31 31" version="1.1" xmlns="http://www.w3.org/2000/svg" xmlns:xlink="http://www.w3.org/1999/xlink" xmlns:sketch="http://www.bohemiancoding.com/sketch/ns">
    <!-- Generator: Sketch 3.2.2 (9983) - http://www.bohemiancoding.com/sketch -->
    <title>fffound</title>
    <desc>Created with Sketch.</desc>
    <defs></defs>
    <g id="Page-1" stroke="none" stroke-width="1" fill="none" fill-rule="evenodd" sketch:type="MSPage">
        <g id="SVG_icons" sketch:type="MSLayerGroup" transform="translate(-357.000000, -353.000000)">
            <g id="fffound" transform="translate(357.992537, 353.333369)" sketch:type="MSShapeGroup">
                <rect id="Rectangle-8" fill="#FFFFFF" x="0" y="0" width="29.997936" height="29.997936" rx="2"></rect>
                <g id="Logo" transform="translate(4.561404, 3.684211)" fill="#000000">
                    <path d="M9.86686033,16.0926387 C9.02835682,16.252007 8.18969843,16.4115302 7.12879169,16.6131799 C7.17928156,17.4097118 7.23952867,18.3577133 7.29977579,19.3058696 C7.21676177,19.3151623 7.13374776,19.3243 7.05073374,19.3337475 C6.98769884,19.0907456 6.92466395,18.8475889 6.86147417,18.6045871 C6.79704538,18.6098529 6.73277147,18.6151187 6.66834268,18.6205394 C6.68088771,18.8962203 6.69327786,19.172056 6.70551314,19.4410772 C7.17014383,19.4791769 7.53441428,19.5089133 7.89868474,19.5389594 C7.90131765,19.6046272 7.90379568,19.670295 7.90642859,19.7358079 C7.55268976,19.7615175 7.19910581,19.787227 6.83669387,19.8135561 C6.8190379,20.6294476 7.28939904,20.7482382 7.99455354,20.5515445 C7.98634506,20.6269696 7.97813659,20.7023946 7.97008299,20.7776648 C7.6724096,20.8411643 7.3747362,20.904509 7.03849846,20.976217 C7.01588644,21.4318648 6.9926549,21.8997479 6.96942337,22.3674761 C6.89028128,22.3679407 6.81129406,22.3682505 6.73199709,22.3687151 C6.73199709,21.9079564 6.80897091,21.4298514 6.71015945,20.9913949 C6.61243213,20.5578945 6.33380859,20.1660559 6.14129661,19.7528444 C6.02374505,19.5002402 5.80025769,19.2288958 5.82658676,18.9882171 C6.03830347,17.0539596 5.33578188,15.2022514 5.34693301,13.2834816 C5.35080493,12.6133292 5.07884111,11.9365172 4.89329859,11.2734892 C4.84683552,11.1074612 4.67507704,10.9282686 4.51462458,10.8492814 C2.414339,9.81454886 2.23808909,8.42855553 2.57076466,6.72707795 C2.83142248,5.39358788 3.75944483,4.28110714 5.1988707,3.77496945 C5.59179338,3.63666438 5.98084415,3.33604833 6.24413487,3.00770931 C7.40013602,1.56534078 8.85876662,0.623844135 10.6604495,0.249042048 C11.3092289,0.113989395 12.0146931,-0.0322143943 12.6408604,0.0930810142 C13.1679065,0.198861934 13.6218507,0.684710755 14.0991813,1.01521805 C14.2446107,1.11604291 14.3406343,1.29879765 14.493343,1.37747511 C16.0255401,2.16688264 15.8841375,3.61699502 15.9479468,4.99354086 C15.9762892,5.60607898 15.8680303,6.29930797 16.1162979,6.81380902 C16.9139139,8.46681012 16.3417987,9.68445227 15.1057262,10.7644089 C13.8879292,11.8284131 13.1894344,13.1766165 12.8593917,14.7404085 C12.8183493,14.9349339 12.7375036,15.1289947 12.637608,15.3015275 C12.0933706,16.24194 11.5773208,17.2029512 10.9652473,18.0978299 C10.7324673,18.4377846 10.296334,18.7507909 9.90263689,18.8316366 C9.6089903,18.8921935 9.15644001,18.6290576 8.92985511,18.3728912 C8.81958276,18.2482153 9.0110106,17.7786286 9.16062169,17.520139 C9.38767121,17.1283005 9.69727013,16.7840092 9.97171199,16.4195838 C9.93686469,16.3105505 9.90186251,16.201672 9.86686033,16.0926387 L9.86686033,16.0926387 Z M11.8999293,8.18710245 C10.4285988,8.32865993 10.0578235,9.37531799 9.99928007,10.3305987 C9.93299276,11.4110199 10.278678,12.5166861 10.4451707,13.6115108 C10.5387163,13.6218876 10.6322619,13.6325741 10.7258076,13.6429508 C11.1142388,11.8372411 11.5029799,10.0313765 11.8999293,8.18710245 L11.8999293,8.18710245 Z M7.21954956,15.7322402 C7.55501291,15.4728214 7.71500074,15.2711716 7.91850898,15.2064331 C8.48861084,15.025382 8.48164138,14.654297 8.38081652,14.1738688 C8.06115061,12.6494156 7.76843327,11.1193867 7.42398706,9.38306183 C7.24510424,9.83127557 6.98909273,10.1713852 6.99575244,10.506384 C7.03013511,12.192219 7.13281849,13.8765052 7.21954956,15.7322402 L7.21954956,15.7322402 Z" id="stangethin"></path>
                    <path d="M10.7106297,20.7751868 C11.7524865,21.4272185 11.2087138,23.3470725 12.9679604,23.1217266 C13.1888149,22.5477528 13.221339,22.040531 12.7694082,21.5697052 C12.6611493,21.4568 12.6399311,21.2342419 12.6323422,21.0598505 C12.6270764,20.9378075 12.6876332,20.7307371 12.7639875,20.7070409 C12.8697685,20.6743619 13.1115313,20.752265 13.1324397,20.82769 C13.285458,21.3818396 13.4818419,21.9463658 13.4881919,22.5094982 C13.4914443,22.8006668 13.187421,23.278462 12.9306351,23.3517188 C12.3876367,23.5067506 11.7881082,23.4463486 11.5167639,22.7687622 C11.2717486,22.1565338 11.0225517,21.5456993 10.7106297,20.7751868 L10.7106297,20.7751868 Z" id="U"></path>
                    <path d="M0.541049895,22.2291711 C0.602514285,22.4638912 0.664780438,22.6805925 0.667482472,22.9317863 C0.671806851,23.3338006 0.796317984,23.7723949 0.888586174,24.1246916 C0.805417281,24.1524146 0.750651365,24.0969686 0.667482472,24.1246916 C0.51492873,23.6091064 0.381654243,23.1151735 0.269368494,22.5907603 C0.137413379,21.9754344 0.282768285,21.2763684 0.214622451,20.6505109 C0.208376379,20.5934039 -0.0321805492,20.3923578 0.00616775799,20.3158409 C0.034996421,20.2583186 0.265097206,20.0355445 0.372849854,20.0364926 C0.445185897,20.0371291 0.407855409,20.254827 0.421537983,20.2560394 C1.00170683,20.3069939 1.57769401,20.4034822 2.18217853,20.6483426 C1.69509069,20.6920179 1.20800286,20.7356931 0.667482493,20.7841696 C0.722618668,21.1128184 0.775276813,21.4267539 0.83924097,21.8083705 C1.26902436,21.7767756 1.69245779,21.7458003 2.11573634,21.71467 C2.12425457,21.7790988 2.1327728,21.8433727 2.14129103,21.9078015 C1.719871,22.0042898 1.10108475,21.9561991 0.541049895,22.084592 L0.541049895,22.2291711 Z" id="F1"></path>
                    <path d="M3.01030529,23.8501126 C2.8929086,22.6504362 2.77551192,21.4509147 2.67329317,20.4054956 C3.21923422,20.4356966 3.7174732,20.4632647 4.47094929,20.5049266 C3.86739403,20.885614 3.43668138,21.1572681 3.00596874,21.4289221 C3.04825013,21.4978423 3.09037665,21.5667626 3.13281292,21.6356828 L4.04410857,21.6356828 C4.05541458,21.6861727 4.06672059,21.7366625 4.07787173,21.7873073 C3.81767855,21.8791493 3.55748536,21.9709913 3.14752622,22.1156463 L3.14752622,23.8713308 C3.10183754,23.8640516 3.05614885,23.8570821 3.01030529,23.8501126 L3.01030529,23.8501126 Z" id="F2"></path>
                    <path d="M17.1157569,21.0379403 C17.0696945,20.7648008 16.8721339,20.6639761 16.7471046,20.4009474 C16.7037595,20.3097609 16.8100196,20.0997961 16.7471046,20.0110077 C17.0509446,19.8680475 17.4901522,20.0371366 17.8547748,20.1222416 C18.3473373,20.2372086 18.7514205,20.3536111 18.9496159,20.7948561 C19.6874494,22.4365512 18.3510167,22.7540488 17.2136007,23.1596714 C17.0579659,22.5361394 17.2264553,21.6943557 17.1157569,21.0379403 Z M18.8706286,21.2511235 C18.7656221,20.6599583 18.215964,20.3079232 17.4338357,20.3209328 L17.4338357,22.7315917 C18.6963921,22.3619005 19.0067654,22.0186933 18.8706286,21.2511235 Z" id="D"></path>
                    <path d="M14.2360924,20.9427636 C14.2608727,21.4185454 14.2435265,21.7047579 14.2997468,21.9756376 C14.3486879,22.2112053 14.480643,22.4294269 14.5758923,22.6552374 C14.4851345,22.6801726 14.3942217,22.7052626 14.303309,22.7301978 C14.152304,22.0925696 14.0014539,21.4549414 13.8502941,20.8170035 C13.9223118,20.7679075 13.9944845,20.7185018 14.0665022,20.669251 C14.7403716,21.1018221 15.4140861,21.5342384 16.1271393,21.9917448 C16.0836189,21.6315011 16.0377754,21.2515881 15.9919318,20.8716751 C16.0538825,20.8606788 16.1162979,20.8496825 16.1782487,20.8386863 C16.2953356,21.4595878 16.4124226,22.0804892 16.5295095,22.7012358 C16.4703465,22.7266356 16.4111835,22.7518806 16.3521754,22.7772804 C15.6835719,22.197731 15.0151232,21.6181817 14.2360924,20.9427636 L14.2360924,20.9427636 Z" id="N"></path>
                    <path d="M10.5168787,21.7874621 C10.5557528,22.2891084 10.3383056,22.8765565 10.0489956,23.3004545 C9.95390114,23.439534 9.21823589,23.288529 8.88989687,23.0854854 C8.44044412,22.8074814 8.58920676,21.8169304 9.12229304,20.9596868 C9.09172762,21.1502164 9.33909226,20.7493012 9.41276123,20.9596868 C9.48616671,21.16932 8.87978088,21.9293532 8.89562732,22.1151817 C8.92226614,22.4275684 9.07822718,22.7867279 9.29799749,23.0010775 C9.41492955,23.1150669 9.93872321,23.0518771 10.0161617,22.917444 C10.1913274,22.612956 10.3468238,22.1659813 10.2452246,21.8672237 C10.1225621,21.5077545 9.72499309,21.2421406 9.41276127,20.8987785 C10.1080037,20.783705 10.4773851,21.2782269 10.5168787,21.7874621 Z" id="O"></path>
                    <path d="M5.15782832,21.4196295 C5.52271829,21.440383 5.80986005,21.4566451 6.09684694,21.4729072 C6.09591768,21.5275787 6.09483354,21.5819405 6.09390428,21.6364572 C5.85678775,21.6644899 5.61967123,21.6923677 5.32927705,21.7267504 C5.3765145,22.2990205 5.42406171,22.8737687 5.47129916,23.448362 C5.42375195,23.4525436 5.37620475,23.4567253 5.32865754,23.460907 C5.09169589,22.4675266 4.85488912,21.4741462 4.6042983,20.4234613 C5.0929349,20.3879945 5.61998098,20.349585 6.14702705,20.3113305 C6.16313425,20.3718873 6.17939633,20.4322893 6.1956584,20.4930011 C5.80862104,20.5969234 5.42158368,20.7008458 5.00837212,20.8118926 C5.0554547,21.002546 5.10331166,21.197536 5.15782832,21.4196295 L5.15782832,21.4196295 Z" id="F3"></path>
                    <path id="exclamationmark" d="M19.7836279,19.8508814 L19.7836279,22.3193094 C19.7334478,22.3199289 19.6834226,22.3205484 19.6332425,22.3211679 L19.6332425,19.8578509 C19.6834226,19.8553729 19.7334478,19.8532046 19.7836279,19.8508814 L19.7836279,19.8508814 Z"></path>
                    <circle id="Oval-2" cx="19.8245614" cy="23.3333333" r="0.175438596"></circle>
                </g>
            </g>
        </g>
    </g>
</svg>