<?xml version="1.0" encoding="UTF-8" standalone="no"?>
<svg width="31px" height="31px" viewBox="0 0 31 31" version="1.1" xmlns="http://www.w3.org/2000/svg" xmlns:xlink="http://www.w3.org/1999/xlink" xmlns:sketch="http://www.bohemiancoding.com/sketch/ns">
    <!-- Generator: Sketch 3.2.2 (9983) - http://www.bohemiancoding.com/sketch -->
    <title>github</title>
    <desc>Created with Sketch.</desc>
    <defs></defs>
    <g id="Page-1" stroke="none" stroke-width="1" fill="none" fill-rule="evenodd" sketch:type="MSPage">
        <g id="SVG_icons" sketch:type="MSLayerGroup" transform="translate(-536.000000, -356.000000)">
            <g id="github" transform="translate(536.365672, 356.962500)" sketch:type="MSShapeGroup">
                <rect id="Rectangle-9" fill="#000000" x="0" y="0" width="29.997936" height="29.997936" rx="2"></rect>
                <g id="Logo" transform="translate(3.157895, 3.508772)" fill="#FFFFFF">
                    <path d="M11.9461488,0.0110317715 C5.41288149,0.0110317715 0.115071142,5.31906539 0.115071142,11.8673745 C0.115071142,17.105904 3.50503499,21.550241 8.20588412,23.1180105 C8.79716372,23.2277641 9.01424052,22.8608059 9.01424052,22.5476447 C9.01424052,22.2649161 9.00326913,21.3309299 8.99817527,20.3402017 C5.70675802,21.0574293 5.0122298,18.941284 5.0122298,18.941284 C4.4740439,17.5708355 3.69860167,17.2064298 3.69860167,17.2064298 C2.62516863,16.47055 3.77951568,16.4856681 3.77951568,16.4856681 C4.96756057,16.5691123 5.59312576,17.7074877 5.59312576,17.7074877 C6.64833846,19.5200923 8.36085502,18.9960627 9.03598739,18.6931111 C9.14217478,17.9269951 9.44878597,17.4035544 9.78713582,17.1076711 C7.1592918,16.8078609 4.39685233,15.7912159 4.39685233,11.2481203 C4.39685233,9.95365513 4.85902217,8.89597519 5.61585222,8.06565619 C5.49301182,7.76682774 5.08804995,6.56110795 5.73046407,4.92795746 C5.73046407,4.92795746 6.72396269,4.60929874 8.98485287,6.14329787 C9.9285884,5.88059586 10.9406992,5.74885217 11.9461488,5.74433637 C12.9515984,5.74885217 13.9644929,5.88059586 14.9099917,6.14329787 C17.168139,4.60929874 18.1602662,4.92795746 18.1602662,4.92795746 C18.8042477,6.56110795 18.3990899,7.76682774 18.2762495,8.06565619 C19.0348428,8.89597519 19.4938779,9.95365513 19.4938779,11.2481203 C19.4938779,15.8020146 16.7261487,16.8047195 14.0916435,17.0982468 C14.5160012,17.4661867 14.8941223,18.1877337 14.8941223,19.2939094 C14.8941223,20.8801348 14.8804081,22.1569295 14.8804081,22.5476447 C14.8804081,22.863162 15.0933706,23.232869 15.6930747,23.1164397 C20.3913769,21.5469032 23.7770305,17.104137 23.7770305,11.8673745 C23.7770305,5.31906539 18.4800039,0.0110317715 11.9461488,0.0110317715" id="Fill-51"></path>
                    <path id="Fill-52" d="M4.54619445,17.0972241 C4.52013739,17.1563222 4.42766424,17.1737964 4.34341963,17.1333505 C4.25760768,17.0946716 4.20941193,17.0143689 4.23723224,16.9552707 C4.26270154,16.8946019 4.35537061,16.877913 4.44098665,16.9181626 C4.52699451,16.9570378 4.57597394,17.0381259 4.54619445,17.0972241"></path>
                    <path id="Fill-53" d="M5.12815201,17.6176518 C5.07172772,17.6700744 4.96142605,17.6457283 4.8865855,17.5628732 C4.80919801,17.4802143 4.7947001,17.3696753 4.85190806,17.3164673 C4.91009562,17.2640447 5.01706668,17.2885871 5.09465009,17.371246 C5.17203757,17.4548865 5.18712324,17.5646402 5.12815201,17.6176518"></path>
                    <path id="Fill-54" d="M5.52739695,18.2834737 C5.4549074,18.3339329 5.3363772,18.2866151 5.26310398,18.1811809 C5.19061443,18.0757467 5.19061443,17.9493042 5.26467132,17.8986486 C5.33814046,17.8479931 5.4549074,17.8935438 5.52916021,17.9981927 C5.60145384,18.1051976 5.60145384,18.2318365 5.52739695,18.2834737"></path>
                    <path id="Fill-55" d="M6.20260555,19.0545896 C6.1377568,19.1262534 5.99963482,19.1070122 5.89854129,19.0092352 C5.79509675,18.9136179 5.76629685,18.7779475 5.83134153,18.7062836 C5.89697395,18.6344234 6.0358796,18.6546464 6.1377568,18.751638 C6.24041767,18.8470589 6.2717645,18.9837111 6.20260555,19.0545896"></path>
                    <path id="Fill-56" d="M7.07524715,19.3149096 C7.04664316,19.4077781 6.91361505,19.449991 6.77960735,19.4105268 C6.64579556,19.3698846 6.55822035,19.2611126 6.585257,19.1672624 C6.61307731,19.0738049 6.74669318,19.0298249 6.88168047,19.0720378 C7.01529633,19.1124837 7.10306746,19.2204703 7.07524715,19.3149096"></path>
                    <path id="Fill-57" d="M8.0683499,19.4253305 C8.0716805,19.5231075 7.95804824,19.6041956 7.81737933,19.6057663 C7.67592676,19.6091041 7.56151083,19.5299793 7.55994349,19.4337731 C7.55994349,19.3350144 7.67102882,19.2547116 7.81248139,19.2523555 C7.9531503,19.2496068 8.0683499,19.3281425 8.0683499,19.4253305"></path>
                    <path id="Fill-58" d="M9.0439621,19.3878527 C9.06081102,19.4832736 8.96304809,19.5812469 8.82335877,19.6071637 C8.68602047,19.6324915 8.55886989,19.5735897 8.54143321,19.4789541 C8.52438837,19.3811771 8.62391456,19.2832038 8.76105695,19.257876 C8.90094218,19.23353 9.02613359,19.290861 9.0439621,19.3878527"></path>
                </g>
            </g>
        </g>
    </g>
</svg>