<?xml version="1.0" encoding="UTF-8" standalone="no"?>
<svg width="31px" height="31px" viewBox="0 0 31 31" version="1.1" xmlns="http://www.w3.org/2000/svg" xmlns:xlink="http://www.w3.org/1999/xlink" xmlns:sketch="http://www.bohemiancoding.com/sketch/ns">
    <!-- Generator: Sketch 3.2.2 (9983) - http://www.bohemiancoding.com/sketch -->
    <title>growthHackers</title>
    <desc>Created with Sketch.</desc>
    <defs></defs>
    <g id="Page-1" stroke="none" stroke-width="1" fill="none" fill-rule="evenodd" sketch:type="MSPage">
        <g id="SVG_icons" sketch:type="MSLayerGroup" transform="translate(-1.000000, -551.000000)">
            <g id="growthHackers" transform="translate(1.246269, 551.058333)" sketch:type="MSShapeGroup">
                <rect id="Rectangle-9" fill="#00AD92" x="0" y="0" width="29.997936" height="29.997936" rx="2"></rect>
                <path d="M11.5905119,11.4352899 L16.1316989,11.4325487 L16.1316989,16.0397129 L20.4735679,16.0397129 L20.4735679,11.6616982 L23.068985,11.6616982 L23.068985,23.1345661 L20.5864515,23.1345661 L20.5864515,18.1461469 L16.1163738,18.1461469 L16.1163738,23.1611118 L13.6345605,23.1611118 L13.6345605,17.9149891 C13.6345605,17.9149891 11.5529895,18.146147 10.4935102,17.9149897 C9.43403093,17.6838324 8.86158637,17.1636771 8.31049179,16.6125825 C8.06747523,16.3695659 7.31760306,15.6614661 6.96723161,14.6714458 C6.58773689,13.599134 6.61635443,12.2492633 6.61635443,12.2492633 C6.61635443,12.2492633 6.53924288,11.0351825 6.96723163,9.92586786 C7.39522037,8.81655325 7.45070215,8.57339954 8.31049172,7.71360997 C9.17028129,6.8538204 10.1194362,6.64830284 10.3604428,6.53265672 C10.6014493,6.4170106 11.2672878,6.18177953 12.4766996,6.18177953 C13.6861113,6.18177953 14.2492372,6.37140333 14.8963882,6.53265672 C15.5435393,6.69391011 16.0683936,7.25217585 16.0683936,7.25217585 L15.1766379,8.87635348 L14.1998184,8.39406867 C14.1998184,8.39406867 13.1665466,8.16020762 12.6499107,8.16020762 C12.1834407,8.16020762 11.2505007,8.39406867 11.2505007,8.39406867 C11.2505007,8.39406867 10.6482032,8.65751759 10.1392142,9.15578756 C9.69126383,9.59430434 9.33391935,10.2510701 9.26783511,10.5640078 C9.12666186,11.2325248 8.78144608,12.946413 9.41397683,14.0833163 C10.0465076,15.2202197 10.560672,15.5917743 11.0568307,15.8157435 C11.5529895,16.0397126 13.5897903,15.8157435 13.5897903,15.8157435 L13.5897903,13.4129135 L11.5529896,13.4129135 L11.5905119,11.4352899 Z" id="Path-83" fill="#FFFFFF"></path>
            </g>
        </g>
    </g>
</svg>