<?xml version="1.0" encoding="UTF-8" standalone="no"?>
<svg width="31px" height="31px" viewBox="0 0 31 31" version="1.1" xmlns="http://www.w3.org/2000/svg" xmlns:xlink="http://www.w3.org/1999/xlink" xmlns:sketch="http://www.bohemiancoding.com/sketch/ns">
    <!-- Generator: Sketch 3.2.2 (9983) - http://www.bohemiancoding.com/sketch -->
    <title>inbound</title>
    <desc>Created with Sketch.</desc>
    <defs></defs>
    <g id="Page-1" stroke="none" stroke-width="1" fill="none" fill-rule="evenodd" sketch:type="MSPage">
        <g id="SVG_icons" sketch:type="MSLayerGroup" transform="translate(-363.000000, -551.000000)">
            <g id="inbound" transform="translate(363.238806, 551.058333)" sketch:type="MSShapeGroup">
                <rect id="Rectangle-9" fill="#2B3B42" x="0" y="0" width="29.997936" height="29.997948" rx="2"></rect>
                <path d="M5.41915937,14.6314896 C5.41915937,14.6314896 5.22306743,18.14473 5.56486431,19.1261753 C5.9066612,20.1076206 7.18424456,22.3196198 9.69401038,22.4710864 C12.2037762,22.6225529 12.7516681,22.1955096 13.0884067,22.0146257 C15.4323761,20.7555327 16.4865513,18.2140488 18.3060431,16.4040591 C19.0671293,15.646947 20.1306065,14.7966427 21.2514794,15.2707856 C23.2438509,16.1135817 23.6602168,18.7716806 21.4891519,19.7074693 C19.9113403,20.3875531 17.7670988,18.3032227 17.7670988,18.3032227 L16.103858,20.5486919 C16.103858,20.5486919 17.6372481,22.1230991 19.5891581,22.4710864 C21.8876906,22.8808697 24.5712949,21.7174533 25.3274051,19.8939408 C26.7256027,16.5219045 24.8656077,13.6024804 22.9842098,12.8296779 C19.4401269,11.3739234 16.9329198,13.7065479 14.906284,16.404059 C13.8859278,17.7621562 12.5241975,19.7565848 10.614456,19.798691 C7.78457791,19.8611018 7.5609575,15.4314524 10.3672588,15.2172799 C11.5839231,15.1244369 12.6215436,16.2010387 13.5610264,16.8249228 C14.1697531,15.9920998 15.2778061,14.6314896 15.2778061,14.6314896 C15.2778061,14.6314896 14.3347474,13.6458776 12.6951409,12.943172 C11.465094,12.4159962 9.65726079,12.1459393 8.31594381,12.9877654 L8.31594381,7.3255814 L5.41915937,7.3255814 L5.41915937,14.6314896 Z" id="Shape-2" fill="#FFFFFF"></path>
            </g>
        </g>
    </g>
</svg>