<?xml version="1.0" encoding="UTF-8" standalone="no"?>
<svg width="31px" height="31px" viewBox="0 0 31 31" version="1.1" xmlns="http://www.w3.org/2000/svg" xmlns:xlink="http://www.w3.org/1999/xlink" xmlns:sketch="http://www.bohemiancoding.com/sketch/ns">
    <!-- Generator: Sketch 3.2.2 (9983) - http://www.bohemiancoding.com/sketch -->
    <title>lobsters</title>
    <desc>Created with Sketch.</desc>
    <defs></defs>
    <g id="Page-1" stroke="none" stroke-width="1" fill="none" fill-rule="evenodd" sketch:type="MSPage">
        <g id="SVG_icons" sketch:type="MSLayerGroup" transform="translate(-541.000000, -551.000000)">
            <g id="lobsters" transform="translate(541.611940, 551.058333)" sketch:type="MSShapeGroup">
                <rect id="Rectangle-9" fill="#AD0E00" x="0" y="0" width="29.997936" height="29.997948" rx="2"></rect>
                <path d="M8.09741639,7.47155478 L15.6455599,7.47155478 L15.6455599,8.62477386 C15.6455599,8.62477386 14.5451274,8.41647497 13.9807771,8.72535883 C13.4164268,9.03424269 13.473136,10.078125 13.473136,10.078125 L13.473136,19.3764554 C13.473136,19.3764554 13.4764853,20.3714087 13.6967173,20.6955169 C13.903146,20.9993112 14.26912,21.159668 14.7531181,21.2601631 C15.2371163,21.3606582 17.6173588,21.2145144 17.6173588,21.2145144 C17.6173588,21.2145144 18.861106,20.9437738 19.6484381,20.0186228 C20.4350843,19.0934718 20.6882196,17.385481 20.6882196,17.385481 L21.5704822,17.385481 L21.5704822,22.5438634 L8.23710888,22.5438634 L8.23173586,21.3340866 C8.23173586,21.3340866 9.42320613,21.3914108 9.74686468,21.3340866 C9.80655844,21.323514 10.1273179,21.104527 10.2570758,20.6955169 C10.4302028,20.1498027 10.4116982,19.3764549 10.4116982,19.3764549 L10.4116982,10.078125 C10.4116982,10.078125 10.4116982,9.1300645 10.1514528,8.8615382 C9.89120747,8.5930119 8.8736039,8.53093716 8.8736039,8.53093716 L8.05629727,8.53093716 L8.09741639,7.47155478 Z" id="Path-86" fill="#FFFFFF"></path>
            </g>
        </g>
    </g>
</svg>