<?xml version="1.0" encoding="UTF-8" standalone="no"?>
<svg width="31px" height="31px" viewBox="0 0 31 31" version="1.1" xmlns="http://www.w3.org/2000/svg" xmlns:xlink="http://www.w3.org/1999/xlink" xmlns:sketch="http://www.bohemiancoding.com/sketch/ns">
    <!-- Generator: Sketch 3.2.2 (9983) - http://www.bohemiancoding.com/sketch -->
    <title>ptttrns</title>
    <desc>Created with Sketch.</desc>
    <defs></defs>
    <g id="Page-1" stroke="none" stroke-width="1" fill="none" fill-rule="evenodd" sketch:type="MSPage">
        <g id="SVG_icons" sketch:type="MSLayerGroup" transform="translate(-357.000000, -733.000000)">
            <g id="ptttrns" transform="translate(357.992537, 733.628609)" sketch:type="MSShapeGroup">
                <rect id="Rectangle-9" fill="#FFFFFF" x="0" y="0" width="29.997936" height="29.997948" rx="2"></rect>
                <path d="M13.2174282,17.6099764 C13.2174282,17.6099764 13.5405531,18.5903571 13.9850601,18.9909323 C14.429567,19.3915074 15.0344364,19.8986244 15.7504109,20.0075513 C16.4663854,20.1164782 18.1035196,20.2936608 19.2473613,19.6723401 C22.1214392,18.1111765 21.9596358,14.6312553 21.9596358,12.1846044 C21.9596358,9.89497832 21.8975916,7.79045725 20.6529267,6.45842802 C20.0227407,5.78400866 19.1505811,5.11298601 17.7050779,5.11298601 C17.7050779,5.11298601 16.8838125,5.0005568 16.0831275,5.11298601 C15.5665266,5.18552518 15.0817593,5.44123867 14.7538032,5.58139535 C14.156571,5.83663102 13.2291668,6.95085392 13.2291668,6.95085392 L13.2291668,5.58139535 L8.28620953,5.58139535 L8.28620953,24.5930233 L13.2174281,24.5930233 L13.2174282,17.6099764 Z M17.2919699,14.9219886 C17.2919699,14.9219886 17.2451977,16.3893873 15.3448808,16.3893873 C13.4445639,16.3893873 13.2174281,14.9219886 13.2174281,14.9219886 L13.2174281,9.85687389 C13.2174281,9.85687389 13.8796944,8.61822084 15.3448808,8.61822084 C16.8100672,8.61822084 17.2919699,9.85687389 17.2919699,9.85687389 L17.2919699,14.9219886 Z" id="P" fill="#EA2121"></path>
            </g>
        </g>
    </g>
</svg>