<?xml version="1.0" encoding="UTF-8" standalone="no"?>
<svg width="31px" height="31px" viewBox="0 0 31 31" version="1.1" xmlns="http://www.w3.org/2000/svg" xmlns:xlink="http://www.w3.org/1999/xlink" xmlns:sketch="http://www.bohemiancoding.com/sketch/ns">
    <!-- Generator: Sketch 3.2.2 (9983) - http://www.bohemiancoding.com/sketch -->
    <title>recode</title>
    <desc>Created with Sketch.</desc>
    <defs></defs>
    <g id="Page-1" stroke="none" stroke-width="1" fill="none" fill-rule="evenodd" sketch:type="MSPage">
        <g id="SVG_icons" sketch:type="MSLayerGroup" transform="translate(-536.000000, -733.000000)">
            <g id="recode" transform="translate(536.365672, 733.628609)" sketch:type="MSShapeGroup">
                <rect id="Rectangle-10" fill="#C5001D" x="0" y="0.173410405" width="29.997936" height="29.8245495" rx="2"></rect>
                <g id="&lt;re/" transform="translate(2.456140, 8.150289)">
                    <path d="M0,4.37920206 C0.0700624342,4.32476002 0.146883833,4.27708166 0.209308088,4.21476715 C0.898557588,3.5270345 1.58538925,2.83680706 2.27331993,2.14774386 C2.34321751,2.0777232 2.41586263,2.01047453 2.54818447,1.8834616 C2.54818447,2.32127092 2.53049027,2.69305126 2.55384442,3.06211504 C2.57230793,3.35389553 2.49087065,3.56800463 2.26776988,3.75982688 C2.03389873,3.96096303 1.83277833,4.2009626 1.60297354,4.43885545 C1.86481472,4.70031028 2.13346981,4.94984551 2.37728708,5.22200025 C2.46498877,5.31996265 2.53455664,5.47031581 2.54060124,5.60021163 C2.56071328,6.03175624 2.54823942,6.46490861 2.54823942,6.97717379 C1.66616711,6.09717538 0.833111032,5.26585326 0,4.43464201 L0,4.37920206 L0,4.37920206 Z" id="lt" fill="#FFFFFF"></path>
                    <path d="M6.86155763,1.96767489 C6.70785988,2.419067 6.56322904,2.8440697 6.41755412,3.27195527 C6.2683074,3.18946062 6.14148066,3.09476917 5.9992127,3.04515041 C5.48415765,2.86546952 4.97108082,3.1909575 4.94239644,3.755558 C4.90491991,4.492355 4.9222844,5.23203488 4.91777842,5.97043965 C4.91563534,6.31882432 4.91739377,6.66726444 4.91739377,7.02479671 L3.65115951,7.02479671 L3.65115951,1.9033091 L4.8718944,1.9033091 C4.88019199,2.02549876 4.88865443,2.14985058 4.89524854,2.24764666 C5.19830292,2.11974668 5.49943401,1.95525634 5.82111674,1.86716225 C6.15725157,1.77518736 6.50827811,1.80296278 6.86155763,1.96767489 L6.86155763,1.96767489 Z" id="r" fill="#000000"></path>
                    <path d="M10.6925166,5.52071073 C10.5187617,6.03680127 10.3709987,6.48858147 10.2102123,6.93559383 C10.1924631,6.98493539 10.1038822,7.02618271 10.0417327,7.03860126 C9.56563789,7.13373623 9.09371931,7.09404122 8.63246121,6.95416621 C8.01272464,6.76605844 7.58284352,6.35602453 7.37282107,5.74263687 C7.08658168,4.90682411 7.07163503,4.05493376 7.37089779,3.22061787 C7.66878677,2.39012735 8.27187322,1.90990645 9.14965935,1.83561691 C10.1063001,1.75467458 10.8710522,2.08138224 11.3400583,2.97590591 C11.4313868,3.15009825 11.453532,3.30837932 11.3803923,3.50014613 C11.2363659,3.87763678 11.1083852,4.26205743 10.9928234,4.6494164 C10.9410596,4.8229989 10.8553362,4.87494613 10.6810868,4.87234046 C10.0406887,4.86263846 9.40007074,4.8685151 8.75950776,4.8685151 L8.45167266,4.8685151 C8.45337614,5.29944987 8.58531332,5.64040559 8.94370327,5.82291393 C9.55591157,6.13470823 10.1250933,5.99721715 10.6925166,5.52071073 L10.6925166,5.52071073 Z M10.3369841,3.94227977 C10.3254993,3.54438721 10.2129598,3.2155174 9.86792294,3.02702155 C9.52244646,2.8382485 9.15971537,2.84634274 8.8357247,3.08179623 C8.55234276,3.28764478 8.44436418,3.5861335 8.46255294,3.94227977 L10.3369841,3.94227977 L10.3369841,3.94227977 Z" id="e1" fill="#000000"></path>
                    <path d="M14.9447843,0 C14.0550738,2.64077138 13.1583846,5.27921429 12.2849395,7.92541878 C12.1817967,8.23798925 12.0510134,8.3533598 11.7338367,8.31732383 C11.4819416,8.28866137 11.2242767,8.31155807 10.9321026,8.31155807 C11.8736868,5.52021177 12.8048303,2.76013361 13.7360287,0 L14.9447843,0 L14.9447843,0 Z" id="slash" fill="#000000"></path>
                </g>
                <g id="code" transform="translate(5.087719, 14.739884)" fill="#FFFFFF">
                    <path d="M3.58324385,2.14791018 C3.44366849,2.56182489 3.31486351,2.94391706 3.17446389,3.360382 C3.08225623,3.28886446 3.00807248,3.22821315 2.93075652,3.17183071 C2.39795231,2.78336295 1.67743573,2.98649494 1.46241275,3.61036076 C1.27096371,4.16575823 1.27217263,4.74244464 1.46576476,5.29706595 C1.68249122,5.91793801 2.40559049,6.11718921 2.93487784,5.72611576 C3.00697346,5.67278253 3.07417844,5.61263018 3.17045247,5.5335728 C3.30953327,5.94388391 3.44081104,6.33140919 3.58099086,6.74488038 C2.84552763,7.14964749 2.10286583,7.17986227 1.35350001,6.86773532 C0.64897415,6.57434708 0.299156537,5.98485404 0.149305355,5.25903414 C0.134138898,5.18540988 0.168703032,5.09653963 0.194529969,5.01969986 C0.496979881,4.12018658 0.795528277,3.21917643 1.11418871,2.3255398 C1.15935838,2.19891494 1.28678958,2.05787569 1.4090554,2.01091805 C2.1368255,1.73122348 2.85492424,1.76243617 3.58324385,2.14791018 L3.58324385,2.14791018 Z" id="c"></path>
                    <path d="M4.14385322,4.42261154 C4.16369051,4.16597999 4.16830639,3.87802486 4.21083841,3.59583549 C4.39278093,2.38807607 5.4143187,1.66275513 6.65170371,1.85186082 C7.69802435,2.01174965 8.34814879,2.69488078 8.4260692,3.7577756 C8.45903976,4.20711643 8.46085314,4.66288831 8.42843209,5.11222914 C8.3397413,6.34005783 7.46305418,7.11405504 6.24413267,7.07047924 C5.0476861,7.02767959 4.28425285,6.29243491 4.18775902,5.08838996 C4.17077918,4.87688653 4.15962414,4.66477326 4.14385322,4.42261154 L4.14385322,4.42261154 Z M5.40189979,4.44778128 C5.43915652,4.73812032 5.45179523,5.03561112 5.51982448,5.31968545 C5.61384552,5.71220034 5.9115147,5.92076545 6.30369948,5.92204057 C6.70055509,5.92337113 7.00459858,5.72051633 7.1005429,5.33409984 C7.24467919,4.75408703 7.24550345,4.16243183 7.10482907,3.58180918 C7.00679661,3.17687575 6.71083091,2.98100639 6.29084096,2.9858851 C5.89310614,2.9905975 5.61120788,3.19311966 5.51581306,3.59461581 C5.45036651,3.86987519 5.43860701,4.15810751 5.40189979,4.44778128 L5.40189979,4.44778128 Z" id="o"></path>
                    <path d="M13.7010287,0 L13.7010287,6.99408298 L12.4877671,6.99408298 C12.4779858,6.8714498 12.4682046,6.74820678 12.4573243,6.61232345 C12.424024,6.61897624 12.3932515,6.6155944 12.3791291,6.62939895 C11.9355652,7.06305028 11.3958372,7.12858031 10.8209955,7.03372255 C10.1092711,6.91624528 9.61905387,6.46806868 9.54124335,5.71208946 C9.46238877,4.94585384 9.41842803,4.15777487 9.50552525,3.39630709 C9.67818107,1.88750871 11.1903207,1.32335173 12.4373771,2.30818709 L12.4373771,5.54399551e-05 C12.858521,0 13.2798298,0 13.7010287,0 L13.7010287,0 Z M10.6913113,4.42205714 C10.7238972,4.7128397 10.7345028,5.01909002 10.7972018,5.31408602 C10.8823208,5.71536041 11.1426783,5.9094557 11.5381601,5.92220689 C11.9511163,5.93545704 12.231476,5.75366942 12.3362124,5.35161887 C12.4920533,4.75397615 12.4926028,4.1454672 12.3376961,3.54771361 C12.2326299,3.14233666 11.969415,2.97634943 11.5375007,2.98549702 C11.1366886,2.99397934 10.8846287,3.18169902 10.7953335,3.5864107 C10.7363162,3.85413024 10.7255458,4.13260513 10.6913113,4.42205714 L10.6913113,4.42205714 Z" id="d"></path>
                    <path d="M19.1363349,4.85648463 L15.9415978,4.85648463 C15.9485217,5.30477211 16.0862836,5.66529813 16.4692916,5.84475727 C17.0984248,6.13975327 17.6801353,6.00736266 18.1935968,5.52725265 C18.4276878,5.79031523 18.6571628,6.04816646 18.90109,6.32231704 C18.417357,6.88009843 17.7339872,7.09370858 16.9600034,7.06964764 C15.6349717,7.02862207 14.8983545,6.38956571 14.739876,5.06155702 C14.6798146,4.55838399 14.7019049,4.02200242 14.8068062,3.52670187 C15.0513378,2.37227568 15.9300032,1.75777922 17.1010075,1.83606043 C18.1661763,1.90730078 18.9462597,2.66893488 19.08023,3.78921005 C19.1203442,4.12528706 19.1171021,4.46646454 19.1363349,4.85648463 L19.1363349,4.85648463 Z M15.9678094,3.95292424 L17.8542199,3.95292424 C17.8216889,3.25709736 17.425218,2.85244113 16.8382321,2.89219158 C16.2892724,2.92933635 15.9235739,3.37097103 15.9678094,3.95292424 L15.9678094,3.95292424 Z" id="e2"></path>
                    <path d="M22.4561404,4.43331145 C21.6725401,5.23924208 20.8615743,6.07339164 20.0155498,6.94352174 C20.0155498,6.42665504 20.0092854,5.94316319 20.022089,5.46022574 C20.0241221,5.38471652 20.103746,5.30255451 20.1635876,5.23896488 C20.4205931,4.96575678 20.6835333,4.69836988 20.9591122,4.41363027 C20.6933695,4.147962 20.426308,3.88550925 20.1655109,3.61690267 C20.1047901,3.5543664 20.0245068,3.47214895 20.0225286,3.39713869 C20.0095601,2.91325876 20.0158795,2.42887987 20.0158795,1.92465348 C20.8571782,2.78962766 21.6731995,3.62843418 22.4561404,4.43331145 L22.4561404,4.43331145 Z" id="gt"></path>
                </g>
            </g>
        </g>
    </g>
</svg>