<?xml version="1.0" encoding="UTF-8" standalone="no"?>
<svg width="31px" height="31px" viewBox="0 0 31 31" version="1.1" xmlns="http://www.w3.org/2000/svg" xmlns:xlink="http://www.w3.org/1999/xlink" xmlns:sketch="http://www.bohemiancoding.com/sketch/ns">
    <!-- Generator: Sketch 3.2.2 (9983) - http://www.bohemiancoding.com/sketch -->
    <title>researchers</title>
    <desc>Created with Sketch.</desc>
    <defs></defs>
    <g id="Page-1" stroke="none" stroke-width="1" fill="none" fill-rule="evenodd" sketch:type="MSPage">
        <g id="SVG_icons" sketch:type="MSLayerGroup" transform="translate(-1.000000, -913.000000)">
            <g id="researchers" transform="translate(1.246269, 913.020833)" sketch:type="MSShapeGroup">
                <rect id="Rectangle-10" fill="#00ADE2" x="0" y="0.172384308" width="29.997936" height="29.8224852" rx="2"></rect>
                <g id="logo" transform="translate(5.357143, 5.535714)" fill="#FFFFFF">
                    <path d="M9.86310686,18.5537696 C14.7225189,18.2556504 18.5714286,14.2201628 18.5714286,9.28571429 C18.5714286,4.15735589 14.4140727,0 9.28571429,0 C4.15735589,0 0,4.15735589 0,9.28571429 C0,14.2636379 3.91703019,18.32669 8.83699687,18.5607771 L8.83704996,18.5714286 L9.86310686,18.5714286 L9.86310686,18.5537696 L9.86310686,18.5537696 Z M8.80371094,4.02587891 L9.86310686,4.02587891 L9.86310686,6.64440151 L8.83704996,6.64440151 L8.80371094,4.02587891 Z M9.86310686,18.5537696 C9.67214574,18.5654848 9.47962413,18.5714286 9.28571429,18.5714286 C9.13527948,18.5714286 8.9856802,18.5678513 8.83699687,18.5607771 L8.80371094,11.8830218 L9.86310686,11.8830218 L9.86310686,18.5537696 L9.86310686,18.5537696 Z M2.93001585,7.18985421 L14.6210535,7.18985421 L16.1941964,9.11612374 L14.5315988,11.3602121 L2.93001585,11.3602121 L4.65288436,9.27503313 L2.93001585,7.18985421 Z" id="Oval-3"></path>
                </g>
            </g>
        </g>
    </g>
</svg>