<?xml version="1.0" encoding="UTF-8" standalone="no"?>
<svg width="31px" height="31px" viewBox="0 0 31 31" version="1.1" xmlns="http://www.w3.org/2000/svg" xmlns:xlink="http://www.w3.org/1999/xlink" xmlns:sketch="http://www.bohemiancoding.com/sketch/ns">
    <!-- Generator: Sketch 3.2.2 (9983) - http://www.bohemiancoding.com/sketch -->
    <title>smashing</title>
    <desc>Created with Sketch.</desc>
    <defs></defs>
    <g id="Page-1" stroke="none" stroke-width="1" fill="none" fill-rule="evenodd" sketch:type="MSPage">
        <g id="SVG_icons" sketch:type="MSLayerGroup" transform="translate(-363.000000, -918.000000)">
            <g id="smashing" transform="translate(363.238806, 918.266667)" sketch:type="MSShapeGroup">
                <rect id="Rectangle-11" fill="#FFFFFF" x="0" y="0.177514793" width="30" height="29.8224852" rx="2"></rect>
                <g id="Group" transform="translate(3.571429, 3.727811)" fill="#F04E36">
                    <path d="M12.4063542,13.7987416 C11.1347591,13.2174085 10.166721,12.7489157 8.89290976,12.1745852 C5.35241343,10.5781266 3.04229692,6.98457651 5.61809553,2.65998693 L1.84794847,3.48634822 C0.646191935,3.74940037 -0.105570728,4.90013176 0.169035072,6.05579538 L3.7721519,21.2636198 C4.0467577,22.4192834 5.13986299,22.8903896 6.34364567,22.6271548 L8.22814971,22.181721 C8.22814971,22.1728308 7.57036511,21.9617111 7.57036511,21.9536734 C6.02033373,21.5565187 5.57746671,21.170288 4.53020364,20.7234647 C5.14729106,19.3138218 5.72548186,18.1664557 6.34364567,16.7526113 C6.73621103,16.9774844 7.39784503,17.5034482 7.68188506,17.6572607 C9.35028784,18.5549261 12.8900143,19.2411121 13.9677207,17.4828662 C15.0454272,15.7246204 12.9366341,14.040847 12.4063542,13.7987416 Z" id="Shape"></path>
                    <path d="M19.1218785,1.16355395 C18.7540109,0.0236628516 17.4646868,0.0400448434 16.6419329,0.191469818 L15.4343087,0.397328034 C15.4363982,0.398302301 14.2361886,0.666893955 14.2361886,0.666893955 C15.3303696,1.00934889 17.2351725,1.61156909 18.1445312,1.96102657 C18.1445312,1.96102657 17.2561065,4.48717637 16.7820522,5.80962236 C14.9504743,4.19517386 12.3840048,4.41037562 11.1451067,4.57932678 C10.3086677,4.69339375 9.63317871,5.34350324 9.63317871,6.5369301 C9.63317871,7.73035695 10.4918753,8.02532304 11.2519958,8.49826889 C11.810515,8.84462089 11.633824,8.72561469 13.3403669,9.44546838 C15.0469099,10.1653221 15.4963902,10.2422914 16.7820522,11.0608703 C19.906159,13.0499842 20.0299944,16.9928372 18.407244,19.7717065 L21.5430725,19.058274 C22.985316,18.6351525 22.9620171,16.9343096 22.6884244,15.7786459 L19.1218785,1.16355395 Z" id="Shape"></path>
                </g>
                <path d="M7.93122145,8.54000447 C8.0643562,7.97065597 8.65420821,6.74556213 8.65420821,6.74556213 C8.65420821,6.74556213 7.16065378,7.03018604 6.44684661,7.23308812 C5.86377597,7.39882791 4.76357479,7.85148776 4.76357479,7.85148776 C4.76357479,7.85148776 4.28835792,8.27284388 4.13797781,8.54000447 C3.99926965,8.78642904 3.89630999,9.39224324 3.89630999,9.39224324 L5.81553565,18.2888776 C5.81553565,18.2888776 7.12385296,16.9448176 7.76282705,16.4787477 C8.63772203,15.8405965 10.3571429,14.9762143 10.3571429,14.9762143 C10.3571429,14.9762143 8.94562073,13.6468902 8.47270526,12.8414138 C8.0808488,12.1739983 7.76282705,10.5575387 7.76282705,10.5575387 C7.76282705,10.5575387 7.76722914,9.24131483 7.93122145,8.54000447 Z" id="Path-110" fill="#F3713C"></path>
                <path d="M18.294547,4.54257581 L20.533796,4.05553694 C20.533796,4.05553694 21.4217771,4.10907881 21.6952512,4.27153638 C22.0457308,4.47973918 22.4056571,5.16751803 22.4056571,5.16751803 L23.8927351,11.4539513 C23.8927351,11.4539513 23.0958803,12.8703483 22.6436939,13.4493459 C22.1230381,14.1160145 20.9742083,15.1909498 20.9742083,15.1909498 C20.9742083,15.1909498 19.8796913,14.4700221 19.1512626,14.1063586 C18.4824803,13.7724733 16.7825753,13.0983034 16.7825753,13.0983034 C16.7825753,13.0983034 15.5198711,12.6017348 14.919608,12.2844484 C14.4896849,12.0572001 13.6920166,11.4646993 13.6920166,11.4646993 C13.6920166,11.4646993 13.2441493,11.076559 13.2441493,10.5824993 C13.2441493,10.496727 13.225263,10.2663765 13.2441493,10.0278523 C13.2701957,9.69890203 13.336356,9.35463087 13.336356,9.35463087 C13.336356,9.35463087 13.6994936,8.73024814 14.0116228,8.54402621 C14.3516107,8.34118333 15.5199323,8.20659209 15.5199323,8.20659209 C15.5199323,8.20659209 16.6717193,8.2037007 17.1818325,8.25859837 C17.7168737,8.31617874 18.6553955,8.54402621 18.6553955,8.54402621 C18.6553955,8.54402621 19.2624303,8.79809667 19.5618545,8.97056444 C19.8433397,9.13269934 20.3671698,9.56898345 20.3671698,9.56898345 L21.6952512,5.68935778 L18.294547,4.54257581 Z" id="Path-111" fill="#F3713C"></path>
            </g>
        </g>
    </g>
</svg>