<?xml version="1.0" encoding="UTF-8" standalone="no"?>
<svg width="31px" height="30px" viewBox="0 0 31 30" version="1.1" xmlns="http://www.w3.org/2000/svg" xmlns:xlink="http://www.w3.org/1999/xlink" xmlns:sketch="http://www.bohemiancoding.com/sketch/ns">
    <!-- Generator: Sketch 3.2.2 (9983) - http://www.bohemiancoding.com/sketch -->
    <title>swissMiss</title>
    <desc>Created with Sketch.</desc>
    <defs></defs>
    <g id="Page-1" stroke="none" stroke-width="1" fill="none" fill-rule="evenodd" sketch:type="MSPage">
        <g id="SVG_icons" sketch:type="MSLayerGroup" transform="translate(-536.000000, -913.000000)">
            <g id="swissMiss" transform="translate(536.365672, 913.020833)" sketch:type="MSShapeGroup">
                <rect id="Rectangle-12" fill="#FFFFFF" x="0" y="0.07079459" width="30" height="29.8224852" rx="2"></rect>
                <g id="Group" transform="translate(3.571429, 9.231310)" fill="#E52F2C">
                    <path d="M0.1937046,3.97406341 L0,3.97406341 C0,5.4438853 1.18414044,5.99346919 2.51815981,5.87235719 C3.23555932,5.80722132 3.99971913,5.5853038 4.22331235,4.79795461 L4.26146247,4.26484854 C4.25440678,2.80025109 2.44786441,2.95994059 1.4527845,2.61684321 C0.968808717,2.44997132 0.402784504,2.07290055 0.388566586,1.5024286 C0.373094431,0.881461804 1.08549153,0.366069397 1.6464891,0.289065134 C2.60087651,0.158061587 3.74354479,0.63080987 3.87409201,1.69624658 L4.06779661,1.69624658 C4.06764165,0.280220419 2.58986441,-0.136772917 1.40435835,0.159453479 C0.893230024,0.287170668 0.37801937,0.435993528 0.182494915,1.01774795 L0.14527845,1.50238983 C0.147595642,3.00496866 1.97061017,2.8595761 3.00242131,3.23857574 C3.43440678,3.39724749 4.01314286,3.78547472 3.99639225,4.31331273 C3.97276513,5.05767419 3.36121065,5.45386893 2.71186441,5.62741918 C1.62220823,5.91864049 0.207595642,5.21765447 0.1937046,3.97406341 L0.1937046,3.97406341 Z" id="Shape"></path>
                    <path d="M13.8014528,3.97406341 L13.559322,3.97406341 C13.6245521,5.49467577 14.8871186,6.05501871 16.2711864,5.83697833 C16.8938499,5.73888681 17.6019855,5.55457751 17.7864891,4.84641879 L17.8208232,4.31331273 C17.8208232,2.76107748 16.0453753,3.02033666 15.0121065,2.57997166 C14.5625666,2.38838303 14.0380145,2.10559934 13.9998547,1.55085401 C13.9548184,0.896228842 14.6572397,0.352693281 15.2542373,0.287381972 C16.2127845,0.182520009 17.2921065,0.646870902 17.433414,1.69624658 L17.6755448,1.69624658 C17.6202906,1.25872158 17.5783535,0.831572769 17.2213559,0.522148314 C16.3533656,-0.230194715 13.9536077,-0.179111038 13.7171913,1.2116047 C13.411477,3.00980054 15.5654722,2.77740022 16.6101695,3.25559152 C17.0521065,3.45788104 17.5305569,3.71556997 17.574092,4.26484854 C17.6523002,5.2510463 16.4854722,5.8114377 15.6435351,5.7125223 C14.5960291,5.58942326 13.9857627,4.96777312 13.8014528,3.97406341 L13.8014528,3.97406341 Z" id="Shape"></path>
                    <path d="M18.7893462,3.97406341 L18.5472155,3.97406341 C18.6442615,4.49725371 18.629201,5.02767486 19.0844068,5.40521088 C19.9420339,6.1164713 21.943632,6.20627544 22.6220823,5.18561964 C22.8355448,4.86449594 22.8333656,4.34875459 22.8061017,3.9759729 C22.7211138,2.81347212 20.6589346,2.81417485 19.8547215,2.52664651 C19.3844552,2.35851455 18.9278935,1.94093742 18.9919613,1.40546145 C19.2042615,-0.368770306 22.2863923,0.0561816252 22.4213075,1.69624658 L22.6634383,1.69624658 C22.6597579,0.356492874 21.5423729,0.0965023757 20.4358354,0.0969283759 C19.8079419,0.0971692429 18.9717676,0.326637965 18.7658111,1.01774795 L18.7409201,1.50238983 C18.7415012,3.04626015 20.5121065,2.80325587 21.5496368,3.23289089 C22.0418402,3.43670703 22.5754479,3.75017825 22.560339,4.36177691 C22.5424697,5.08636499 21.9717191,5.41485525 21.3559322,5.60604648 C20.2653753,5.94466576 18.7936562,5.23180602 18.7893462,3.97406341 L18.7893462,3.97406341 Z" id="Shape"></path>
                    <path id="Shape" d="M12.3970944,0.193856752 L12.3970944,5.71877418 L12.6392252,5.71877418 L12.6392252,0.193856752 L12.3970944,0.193856752 L12.3970944,0.193856752 Z"></path>
                </g>
                <g id="Group" transform="translate(8.414044, 8.483190)">
                    <path d="M9.00726392,10.877135 L8.81355932,10.877135 C8.81748184,12.3079917 9.93801453,12.7182895 11.1864407,12.7187742 C11.8643099,12.7190165 12.7491041,12.4485379 12.9438741,11.7010262 L12.9782082,11.1679202 C12.9760775,9.78213517 11.3374818,9.85318367 10.3631961,9.54257669 C9.86653753,9.38424419 9.25476998,9.04664266 9.2062954,8.4539741 C9.15699758,7.85166117 9.88077482,7.3258732 10.4123487,7.23669909 C11.3663923,7.07667035 12.45046,7.55719277 12.590799,8.5993182 L12.8329298,8.5993182 C12.7786441,7.33464522 11.7388862,7.04802801 10.653753,7.04846419 C9.95961259,7.04875497 9.17782082,7.3219476 8.98280872,8.06621213 C8.53404358,9.77908193 10.7218402,9.77127919 11.7675545,10.1361176 C12.2017918,10.2876167 12.8097337,10.682939 12.7785472,11.2165782 C12.7487651,11.7266638 12.3228087,12.0982387 11.9128329,12.3327569 C10.8215981,12.9569272 9.04765133,12.2328238 9.00726392,10.877135 L9.00726392,10.877135 Z" id="Shape" fill="#201C1D"></path>
                    <path d="M13.9467312,10.877135 L13.7530266,10.877135 C13.7530266,11.2464806 13.7510412,11.6192671 13.9594673,11.9431533 C14.4686199,12.7343796 15.8813559,12.9470405 16.7068281,12.6298909 C17.2066344,12.4378757 17.6686683,12.2794948 17.8189346,11.7010262 L17.9080387,11.119456 C17.7864407,9.83554271 16.3250363,9.83098707 15.3428571,9.57853712 C14.7987893,9.43871794 14.1428571,9.08507476 14.1084746,8.45392564 C14.0730266,7.80310006 14.8363196,7.30498513 15.3995642,7.2287025 C16.3306053,7.10264715 17.327845,7.62882284 17.5302663,8.5993182 L17.7239709,8.5993182 C17.7204843,7.33638993 16.5931719,7.04841572 15.5447942,7.04846419 C14.9181598,7.04851265 14.1631961,7.2411578 13.9530266,7.92081957 C13.4173366,9.65302658 15.3552058,9.77176384 16.5133172,10.0835824 C17.0476513,10.2274241 17.6758838,10.6352018 17.6464891,11.2648001 C17.6157385,11.9238646 16.9363196,12.3388634 16.3680387,12.4892962 C15.2689588,12.7802752 13.9976755,12.0616483 13.9467312,10.877135 L13.9467312,10.877135 Z" id="Shape" fill="#201C1D"></path>
                    <path d="M0.38722596,12.6703101 L1.69491525,7.43617769 L1.79176755,7.43617769 C2.16043584,8.39397544 2.66430993,10.3924932 2.66430993,10.3924932 L3.29297821,12.67031 L3.72881356,12.67031 L5.19649109,7.48464189 L5.30587481,7.48464189 L6.73123487,12.67031 L7.02179177,12.67031 C6.77733656,11.6001238 6.1177724,9.43144831 6.1177724,9.43144831 L5.47215496,7.09692838 L5.04324925,7.09692838 L4.71780107,8.30823259 L3.89598063,11.1679202 L3.50961016,12.3395867 L2.01568757,7.09692838 L1.51467613,7.09692838 L1.21322034,8.35699726 C1.21322034,8.35699726 0.373849023,11.2305845 0.105810282,12.6703101 L0.38722596,12.6703101 Z" id="Shape" fill="#201C1D"></path>
                    <path id="Shape-3" fill="#201C1D" d="M7.49354919,7.19918848 L7.53163509,12.5759585 L7.79645829,12.5699471 C7.83731727,11.4729569 7.73984746,7.18617958 7.73984746,7.18617958 L7.49354919,7.19918848 L7.49354919,7.19918848 Z"></path>
                    <path id="Shape-5" fill="#E52F2C" d="M8.3029952,1.07371203 L8.33907659,6.45048203 L8.58996172,6.44447062 C8.62867023,5.34748047 8.5363304,1.06070314 8.5363304,1.06070314 L8.3029952,1.07371203 L8.3029952,1.07371203 Z"></path>
                    <path d="M7.23274655,1 L5.99388301,6.23413241 L5.9021282,6.23413241 C5.55286351,5.27633467 5.07550911,3.27781695 5.07550911,3.27781695 L4.47992864,1.00000012 L4.06703199,1.00000012 L2.67660065,6.18566821 L2.57297396,6.18566821 L1.22263285,1.00000012 L0.947368421,1.00000012 C1.17895756,2.07018631 1.80380782,4.2388618 1.80380782,4.2388618 L2.41544539,6.57338173 L2.82177712,6.57338173 L3.13009645,5.36207752 L3.90866318,2.50238994 L4.27469837,1.33072342 L5.68999345,6.57338173 L6.16463587,6.57338173 L6.45022556,5.31331284 C6.45022556,5.31331284 7.24541944,2.43972563 7.49935088,1 L7.23274655,1 L7.23274655,1 Z" id="Shape-4" fill="#E52F2C"></path>
                </g>
            </g>
        </g>
    </g>
</svg>