<?xml version="1.0" encoding="UTF-8" standalone="no"?>
<svg width="30px" height="30px" viewBox="0 0 30 30" version="1.1" xmlns="http://www.w3.org/2000/svg" xmlns:xlink="http://www.w3.org/1999/xlink" xmlns:sketch="http://www.bohemiancoding.com/sketch/ns">
    <!-- Generator: Sketch 3.2.2 (9983) - http://www.bohemiancoding.com/sketch -->
    <title>swissMiss</title>
    <desc>Created with Sketch.</desc>
    <defs></defs>
    <g id="Page-1" stroke="none" stroke-width="1" fill="none" fill-rule="evenodd" sketch:type="MSPage">
        <g id="SVG_icons" sketch:type="MSLayerGroup" transform="translate(-534.000000, -913.000000)">
            <g id="swissMiss" transform="translate(533.365672, 913.020833)" sketch:type="MSShapeGroup">
                <rect id="Rectangle-12" fill="#FFFFFF" x="0.967741935" y="0.07079459" width="29.0322581" height="29.8224852" rx="2"></rect>
                <g id="Group" transform="translate(0.569212, 7.729369)" fill="#E52F2C">
                    <path d="M2.939417,5.54678229 L2.71562103,5.54678229 C2.71562103,7.22842635 4.08371379,7.85721307 5.62496869,7.71864711 C6.45381386,7.64412424 7.33668338,7.39022526 7.59501107,6.48940788 L7.63908769,5.87947367 C7.63093592,4.20380697 5.54375313,4.38650999 4.39409083,3.99396742 C3.834931,3.80304692 3.18097678,3.37163491 3.16455016,2.71894986 C3.14667445,2.00849295 3.96974009,1.41882519 4.6178868,1.33072352 C5.72053516,1.1808405 7.0407132,1.72171852 7.1915405,2.94069976 L7.41533647,2.94069976 C7.41515744,1.32060415 5.70781236,0.843516166 4.33814184,1.18243299 C3.7476114,1.32855603 3.15236447,1.49882638 2.92646593,2.16441985 L2.88346801,2.7189055 C2.88614517,4.43802725 4.99235901,4.27168155 6.18445862,4.70530042 C6.68355162,4.88683902 7.35219244,5.33101529 7.33283968,5.93492224 C7.30554217,6.78655674 6.59898471,7.23984875 5.84876466,7.43841006 C4.58983398,7.77160049 2.95546597,6.96959245 2.939417,5.54678229 L2.939417,5.54678229 Z" id="Shape"></path>
                    <path d="M16.496267,7.56979748 L16.496267,1.24979748 L16.8911057,1.24979748 L16.8911057,7.56979748 L16.496267,7.56979748 Z" id="I"></path>
                    <g id="Shape-+-Shape-2" transform="translate(17.942424, 0.288180)">
                        <path d="M0.434954053,5.27069642 L0.220482911,5.27069642 C0.224825952,6.90775983 1.46548789,7.37718738 2.84775439,7.37774187 C3.59829615,7.37801911 4.57794671,7.06856067 4.79359744,6.21332201 L4.83161245,5.6033878 C4.82925327,4.01789155 3.01498827,4.09917915 1.93625204,3.7438093 C1.38634804,3.56265884 0.708994554,3.17640414 0.65532315,2.49832364 C0.600740245,1.80920888 1.40211166,1.20764741 1.99067409,1.10562205 C3.04699808,0.922530888 4.24728583,1.4723034 4.40267017,2.66461389 L4.6707591,2.66461389 C4.61065356,1.2176836 3.45942609,0.889760787 2.25795875,0.890259824 C1.48940142,0.890592515 0.623795893,1.20315607 0.407877071,2.05467968 C-0.0889989458,4.01439829 2.33334536,4.00547107 3.49116782,4.42288787 C3.9719585,4.59622008 4.64507618,5.04851402 4.61054632,5.65905816 C4.57757138,6.2426543 4.10594934,6.66777845 3.65202117,6.93609405 C2.443798,7.65021611 0.479671286,6.82175911 0.434954053,5.27069642 L0.434954053,5.27069642 Z" id="Shape"></path>
                        <path d="M5.90396816,5.27069642 L5.68949702,5.27069642 C5.68949702,5.69326993 5.68729869,6.11978028 5.91806964,6.49034304 C6.48180703,7.3955963 8.04599868,7.6389046 8.95996745,7.2760492 C9.51335662,7.05636199 10.0249239,6.87515608 10.1912999,6.21332201 L10.2899566,5.54793924 C10.1553224,4.07899587 8.53724483,4.0737837 7.44976891,3.78495213 C6.84737309,3.62498302 6.12112019,3.22037485 6.08305156,2.49826819 C6.04380334,1.75364942 6.88892688,1.18374908 7.51255534,1.09647303 C8.54341088,0.952251319 9.64756193,1.55425638 9.87168427,2.66461389 L10.0861554,2.66461389 C10.0822949,1.21967975 8.83412651,0.890204375 7.67335508,0.890259824 C6.97954093,0.890315272 6.14363966,1.11072332 5.91093847,1.88833398 C5.31781853,3.87017658 7.46344145,4.00602556 8.74571078,4.36278162 C9.33732943,4.52735296 10.032913,4.99389718 10.000367,5.71422948 C9.96631967,6.46827451 9.21406214,6.94308057 8.58485743,7.11519291 C7.36794817,7.44810609 5.96037407,6.62591478 5.90396816,5.27069642 L5.90396816,5.27069642 Z" id="Shape"></path>
                    </g>
                </g>
                <g id="Group" transform="translate(8.834216, 9.017549)">
                    <g id="Shape-+-Shape" transform="translate(9.199005, 6.000000)" fill="#201C1D">
                        <path d="M0.434954053,5.27069642 L0.220482911,5.27069642 C0.224825952,6.90775983 1.46548789,7.37718738 2.84775439,7.37774187 C3.59829615,7.37801911 4.57794671,7.06856067 4.79359744,6.21332201 L4.83161245,5.6033878 C4.82925327,4.01789155 3.01498827,4.09917915 1.93625204,3.7438093 C1.38634804,3.56265884 0.708994554,3.17640414 0.65532315,2.49832364 C0.600740245,1.80920888 1.40211166,1.20764741 1.99067409,1.10562205 C3.04699808,0.922530888 4.24728583,1.4723034 4.40267017,2.66461389 L4.6707591,2.66461389 C4.61065356,1.2176836 3.45942609,0.889760787 2.25795875,0.890259824 C1.48940142,0.890592515 0.623795893,1.20315607 0.407877071,2.05467968 C-0.0889989458,4.01439829 2.33334536,4.00547107 3.49116782,4.42288787 C3.9719585,4.59622008 4.64507618,5.04851402 4.61054632,5.65905816 C4.57757138,6.2426543 4.10594934,6.66777845 3.65202117,6.93609405 C2.443798,7.65021611 0.479671286,6.82175911 0.434954053,5.27069642 L0.434954053,5.27069642 Z" id="Shape"></path>
                        <path d="M5.90396816,5.27069642 L5.68949702,5.27069642 C5.68949702,5.69326993 5.68729869,6.11978028 5.91806964,6.49034304 C6.48180703,7.3955963 8.04599868,7.6389046 8.95996745,7.2760492 C9.51335662,7.05636199 10.0249239,6.87515608 10.1912999,6.21332201 L10.2899566,5.54793924 C10.1553224,4.07899587 8.53724483,4.0737837 7.44976891,3.78495213 C6.84737309,3.62498302 6.12112019,3.22037485 6.08305156,2.49826819 C6.04380334,1.75364942 6.88892688,1.18374908 7.51255534,1.09647303 C8.54341088,0.952251319 9.64756193,1.55425638 9.87168427,2.66461389 L10.0861554,2.66461389 C10.0822949,1.21967975 8.83412651,0.890204375 7.67335508,0.890259824 C6.97954093,0.890315272 6.14363966,1.11072332 5.91093847,1.88833398 C5.31781853,3.87017658 7.46344145,4.00602556 8.74571078,4.36278162 C9.33732943,4.52735296 10.032913,4.99389718 10.000367,5.71422948 C9.96631967,6.46827451 9.21406214,6.94308057 8.58485743,7.11519291 C7.36794817,7.44810609 5.96037407,6.62591478 5.90396816,5.27069642 L5.90396816,5.27069642 Z" id="Shape"></path>
                    </g>
                    <path d="M0.322027483,13.2955822 L1.81843272,7.36027783 L1.92926202,7.36027783 C2.35113375,8.44638355 2.92772318,10.7126256 2.92772318,10.7126256 L3.64711616,13.2955821 L4.14584801,13.2955821 L5.82532978,7.41523436 L5.95049894,7.41523436 L7.58155631,13.2955821 L7.91404421,13.2955821 C7.63431106,12.0820322 6.87956352,9.62283778 6.87956352,9.62283778 L6.14077541,6.97558219 L5.64997323,6.97558219 L5.27755881,8.34915446 L4.33713938,11.5919299 L3.89501082,12.9205546 L2.18549649,6.97558219 L1.61218283,6.97558219 L1.26722319,8.40445172 C1.26722319,8.40445172 0.306720087,11.6629888 0,13.2955822 L0.322027483,13.2955822 Z" id="Shape" fill="#201C1D"></path>
                    <path d="M7.04040761,-1.19904087e-14 L5.6687289,5.9884451 L5.5671373,5.9884451 C5.1804289,4.89261512 4.65189864,2.60608266 4.65189864,2.60608266 L3.99246761,1.32748934e-07 L3.53530544,1.32748934e-07 L1.99580975,5.93299652 L1.88107354,5.93299652 L0.385966045,1.32748933e-07 L0.0811912653,1.32748933e-07 C0.337608447,1.22441533 1.0294472,3.7056277 1.0294472,3.7056277 L1.70665676,6.37658505 L2.1565502,6.37658505 L2.4979236,4.99071472 L3.35995835,1.71890563 L3.76523516,0.378385351 L5.33226017,6.37658505 L5.8577877,6.37658505 L6.17399469,4.93492237 C6.17399469,4.93492237 7.05443913,1.6472105 7.33559386,-1.19904087e-14 L7.04040761,-1.19904087e-14 L7.04040761,-1.19904087e-14 Z" id="Shape-4" fill="#E52F2C"></path>
                    <path d="M8.23126267,13.2816177 L8.23126267,6.96161772 L8.62610138,6.96161772 L8.62610138,13.2816177 L8.23126267,13.2816177 Z" id="I-2" fill="#000000"></path>
                </g>
            </g>
        </g>
    </g>
</svg>