<?xml version="1.0" encoding="UTF-8" standalone="no"?>
<svg width="31px" height="31px" viewBox="0 0 31 31" version="1.1" xmlns="http://www.w3.org/2000/svg" xmlns:xlink="http://www.w3.org/1999/xlink" xmlns:sketch="http://www.bohemiancoding.com/sketch/ns">
    <!-- Generator: Sketch 3.2.2 (9983) - http://www.bohemiancoding.com/sketch -->
    <title>ui8</title>
    <desc>Created with Sketch.</desc>
    <defs></defs>
    <g id="Page-1" stroke="none" stroke-width="1" fill="none" fill-rule="evenodd" sketch:type="MSPage">
        <g id="SVG_icons" sketch:type="MSLayerGroup" transform="translate(-357.000000, -1095.000000)">
            <g id="ui8" transform="translate(357.992537, 1095.591109)" sketch:type="MSShapeGroup">
                <rect id="Rectangle-14" fill="#FFFFFF" x="0" y="0" width="30" height="30" rx="2"></rect>
                <g id="Logo" transform="translate(5.892857, 5.000000)">
                    <path d="M6.08224051,1.40206473 C6.08224051,1.40206473 7.87519182,0.16444615 8.88017927,0.16444615 C9.78530697,0.16444615 11.812586,1.40206473 11.812586,1.40206473 L15.9062849,3.89020647 C15.9062849,3.89020647 17.1858539,4.76076888 17.4509975,5.38138253 C17.7774299,6.14545313 17.6810128,8.04425921 17.6810128,8.04425921 L17.7587891,12.9602051 C17.7587891,12.9602051 17.6300305,14.172953 17.4509975,14.5884487 C17.2257453,15.1112087 16.5459333,15.7749721 16.5459333,15.7749721 L11.4404297,18.6008998 C11.4404297,18.6008998 9.95050815,19.7225194 9.15091378,19.7412109 C8.3118014,19.7608262 6.52430943,18.7158203 6.52430943,18.7158203 L2.53243583,16.3797433 C2.53243583,16.3797433 0.949393014,15.5572652 0.495779855,14.8643276 C0.105770898,14.2685515 0.00156947545,12.5136021 0.00156947545,12.5136021 L0.00366210938,6.86471122 C0.00366210938,6.86471122 0.0952301228,5.32899935 0.495779855,4.72830636 C0.802889163,4.26774331 2.12663923,3.68094308 2.12663923,3.68094308 L6.08224051,1.40206473 Z" id="Path-134" fill="#000000"></path>
                    <ellipse id="Oval-4" fill="#379AFF" cx="17.7678571" cy="4.91071429" rx="3.48214286" ry="3.48214286"></ellipse>
                    <path d="M11.2370954,7.41193499 L12.1428571,7.41193499 L12.1428571,12.1690151 L11.2370954,12.1690151 L11.2370954,7.41193499 Z" id="Path-136" fill="#FFFFFF"></path>
                    <path d="M6.68627388,10.456249 L6.6862739,7.40304231 L5.70138114,7.40304231 L5.70138114,11.1290096 L5.70293288,11.1303604 C5.70935942,11.1573615 5.79208725,11.4836438 6.10471453,11.7879377 C6.17794202,11.8592132 6.3773031,12.0238555 6.47735596,12.0914132 C6.63742065,12.1994921 7.14959022,12.3760992 7.8666188,12.3736789 C8.58069337,12.3712687 8.86820678,12.2929982 9.32516915,11.998182 C9.65459882,11.7856454 9.92842457,11.2029381 9.9794341,11.0895968 L9.98720056,11.0824691 L9.98720056,11.0720944 C9.98770259,11.0709407 9.98795646,11.0703496 9.98795646,11.0703496 C9.98795646,11.0703496 9.98770176,11.0696911 9.98720056,11.0684028 L9.98720057,7.40304231 L9.00230781,7.40304231 L9.00230781,10.1983937 C8.96190041,11.0208705 8.87385775,11.0156846 8.74128069,11.1732589 C8.6051505,11.3350563 8.1004583,11.3968332 7.8666188,11.3968332 C7.61518346,11.3968332 7.16221401,11.3598845 6.94279262,11.1732589 C6.75017261,11.0094289 6.72021471,10.7755739 6.68627388,10.456249 Z" id="Path-137" fill="#FFFFFF"></path>
                    <path d="M18.1575223,4.48121192 C18.2452953,4.40617205 18.2891811,4.31674617 18.2891811,4.21293162 C18.2891811,4.12265809 18.2472603,4.03972053 18.1634175,3.96411645 C18.0795746,3.88851237 17.9518472,3.8507109 17.7802313,3.8507109 C17.6099256,3.8507109 17.4867832,3.88851237 17.4108006,3.96411645 C17.334818,4.03972053 17.2968273,4.1283001 17.2968273,4.22985782 C17.2968273,4.34382815 17.3459533,4.43297192 17.4442066,4.49729181 C17.5424599,4.5616117 17.6583971,4.59377116 17.7920217,4.59377116 C17.947917,4.59377116 18.0697493,4.55625179 18.1575223,4.48121192 L18.1575223,4.48121192 Z M18.2213866,5.679587 C18.3294653,5.60341871 18.3835038,5.48973219 18.3835038,5.33852404 C18.3835038,5.18167378 18.3278278,5.06262735 18.216474,4.98138118 C18.1051202,4.900135 17.9623275,4.85951253 17.7880916,4.85951253 C17.6190958,4.85951253 17.4812157,4.90098131 17.3744471,4.98392011 C17.2676784,5.06685891 17.2142949,5.18167383 17.2142949,5.32836831 C17.2142949,5.45475125 17.2630934,5.56392416 17.3606917,5.65589032 C17.45829,5.74785647 17.6092704,5.79383886 17.8136373,5.79383886 C17.9773929,5.79383886 18.113308,5.75575529 18.2213866,5.679587 L18.2213866,5.679587 Z M17.0806711,4.58361544 C16.9771775,4.49334191 16.9254315,4.37598808 16.9254315,4.23155044 C16.9254315,4.05100339 17.001413,3.89584809 17.1533782,3.76607989 C17.3053433,3.6363117 17.5208424,3.57142857 17.7998819,3.57142857 C18.0697511,3.57142857 18.2813201,3.63264439 18.4345953,3.75507786 C18.5878705,3.87751133 18.664507,4.02053631 18.664507,4.18415708 C18.664507,4.33536523 18.6199661,4.45779687 18.5308831,4.55145565 C18.4811014,4.60449135 18.40381,4.65639785 18.2990064,4.70717671 C18.4156004,4.75344189 18.5073021,4.80647679 18.5741144,4.86628301 C18.6985686,4.97912492 18.7607948,5.1258172 18.7607948,5.30636425 C18.7607948,5.51963546 18.6776082,5.70046191 18.5112325,5.84884902 C18.3448569,5.99723613 18.1097074,6.07142857 17.8057771,6.07142857 C17.5319778,6.07142857 17.3004309,6.00739175 17.1111294,5.87931618 C16.921828,5.75124061 16.8271787,5.56533636 16.8271787,5.32159783 C16.8271787,5.17828861 16.8677895,5.05444647 16.9490122,4.9500677 C17.030235,4.84568894 17.1507573,4.76585449 17.3105827,4.71056195 C17.2123294,4.67445254 17.1356929,4.63213746 17.0806711,4.58361544 L17.0806711,4.58361544 Z" id="8" fill="#FFFFFF"></path>
                </g>
            </g>
        </g>
    </g>
</svg>