<?xml version="1.0" encoding="UTF-8" standalone="no"?>
<svg width="61px" height="61px" viewBox="0 0 61 61" version="1.1" xmlns="http://www.w3.org/2000/svg" xmlns:xlink="http://www.w3.org/1999/xlink" xmlns:sketch="http://www.bohemiancoding.com/sketch/ns">
    <!-- Generator: Sketch 3.2.2 (9983) - http://www.bohemiancoding.com/sketch -->
    <title>Abduzeedo</title>
    <desc>Created with Sketch.</desc>
    <defs></defs>
    <g id="Page-1" stroke="none" stroke-width="1" fill="none" fill-rule="evenodd" sketch:type="MSPage">
        <g id="SVG_icons" sketch:type="MSLayerGroup" transform="translate(-1.000000, 0.000000)">
            <g id="Abduzeedo" transform="translate(1.246269, 0.245833)" sketch:type="MSShapeGroup">
                <rect id="Rectangle-1" fill="#000000" x="0" y="0" width="59.9844004" height="59.9844004" rx="2"></rect>
                <path d="M14.50221,46.1304609 C15.5522299,46.9423835 16.3777142,46.3812283 16.3777142,46.3812283 L30.3621145,34.3338243 L39.5001189,34.1568684 L37.9792742,35.8517401 L43.2136307,46.3686584 C43.2136307,46.3686584 44.5968159,46.9095333 45.2960969,46.2826212 C46.1133893,45.829736 46.0711639,44.3002266 46.0711639,44.3002266 L31.3113305,13.0642092 C31.3113305,13.0642092 30.8902974,12.3840882 29.9920147,12.3964141 C29.0719226,12.2998816 28.4819882,13.0149056 28.4819882,13.0149056 L13.9615945,44.4300756 C13.9615945,44.4300756 13.4521901,45.3185382 14.50221,46.1304609 Z M29.9709808,17.9664988 L35.6175837,30.0283034 L35.6394286,30.9125949 L29.0908386,30.8732985 L20.3644703,38.6699769 L29.9709808,17.9664988 Z" id="Path-1" fill="#FFFFFF"></path>
            </g>
        </g>
    </g>
</svg>