<?xml version="1.0" encoding="UTF-8" standalone="no"?>
<svg width="60px" height="61px" viewBox="0 0 60 61" version="1.1" xmlns="http://www.w3.org/2000/svg" xmlns:xlink="http://www.w3.org/1999/xlink" xmlns:sketch="http://www.bohemiancoding.com/sketch/ns">
    <!-- Generator: Sketch 3.2.2 (9983) - http://www.bohemiancoding.com/sketch -->
    <title>Angel</title>
    <desc>Created with Sketch.</desc>
    <defs></defs>
    <g id="Page-1" stroke="none" stroke-width="1" fill="none" fill-rule="evenodd" sketch:type="MSPage">
        <g id="SVG_icons" sketch:type="MSLayerGroup" transform="translate(-176.000000, -1.000000)">
            <g id="Angel" transform="translate(176.116457, 1.279724)" sketch:type="MSShapeGroup">
                <rect id="Rectangle-2" fill="#000000" x="0.237054112" y="0.285057491" width="59.6294631" height="59.6294631" rx="2"></rect>
                <path d="M14.3159141,44.6571558 C14.8040803,45.8555063 15.5363295,47.1100296 16.5126618,48.4207255 C18.0522628,50.4054936 19.8734981,51.9221561 21.9763676,52.9707128 C24.1167885,54.0192696 26.5388436,54.5435479 29.2425331,54.5435479 C34.0866434,54.5435479 38.1609533,52.7272979 41.4654626,49.0947977 C44.7324208,45.499746 46.3658998,40.9497587 46.3658998,35.4448358 C46.3658998,33.7222069 46.2532461,32.3927867 46.0279386,31.4565754 C45.8401824,30.6327094 45.4834456,29.9960856 44.9577282,29.5467042 C43.9438447,28.6853897 41.9536288,27.9364206 38.9870806,27.2997969 C36.0205324,26.6257247 32.866228,26.2886886 29.5241674,26.2886886 C28.6980401,26.2886886 28.1723227,26.4010339 27.9470152,26.6257247 C27.6841565,26.73807 27.1976971,28.0420991 27.1976971,28.6787228 C27.1976971,30.2141095 28.840346,31.3132945 30.5677031,31.9499183 C32.4452653,32.7363358 35.1193026,32.8968794 39.4376955,32.8968794 L40.9901978,32.8968796 C41.5689411,32.9937711 41.6924773,33.1028459 41.955336,33.5147789 C42.0779959,33.8980738 41.2026248,35.5545057 39.7756776,36.0787841 C38.4238329,36.565614 37.4850309,36.9060563 36.8466598,37.3928862 C35.3446101,38.4788914 34.1429703,39.7708631 33.2417405,41.2688013 C32.3780619,42.7292911 31.591193,44.4699135 31.591193,45.7806094 C31.591193,46.567027 31.7789492,47.5219626 32.1544617,48.6454162 C32.5675253,49.8812153 32.7740572,50.686357 32.7740572,51.0608416 L32.4190276,51.3978777 L32.1937201,51.5304088 C30.5414654,51.4180634 30.0498848,50.2953405 29.29886,48.8722992 C28.6604889,47.6739486 28.8260546,46.9596261 28.9387087,44.9761984 C28.826055,45.0136468 27.8906884,45.0323711 27.5527272,45.0323711 L26.5781021,45.0323711 C26.6156533,45.2196133 26.634429,45.7993337 26.634429,46.0614728 C26.634429,47.1849265 26.2025897,48.1398621 25.3389111,48.9262797 C24.4752325,49.7126972 23.8163785,49.7508764 22.65229,49.7508764 C20.8873816,49.7508764 19.4587272,48.198227 17.6562675,46.5130465 C16.7239661,45.6220366 16.27451,44.3284421 16.1256446,43.2796612 C15.9867019,42.3007876 16.1159599,41.5306194 16.1866474,41.6238309 C16.5126618,41.4897348 17.2449111,42.7091054 17.5828722,43.1584868 C19.1600244,45.3679457 20.5869717,46.4726751 21.8637139,46.4726751 C22.2016751,46.4726751 23.2309198,46.3603298 23.5313298,46.135639 C23.7566372,45.9109483 23.869291,45.3686764 23.869291,45.2188826 C23.869291,44.919295 23.6439835,44.3762924 23.1933686,43.5898748 C22.8929587,43.028148 21.8432311,41.6807343 20.754245,40.257693 C19.7028102,38.9095487 18.5028777,37.6183077 17.8645066,37.0940293 C17.3012379,36.569751 16.8881743,36.6626414 16.6253156,36.6626414 C15.9118419,36.6626414 15.217144,37.429604 14.5412216,38.25347 C13.8652992,39.077336 13.527338,40.1071685 13.527338,41.3429675 C13.527338,41.3429675 13.7901967,43.3839083 14.3159141,44.6571558 Z M19.3895591,33.7091178 C19.9152765,34.7202261 20.868606,35.8626605 22.0326945,37.3980472 C23.196783,38.8959854 24.2482178,40.0568875 25.1869989,40.8807535 C26.0882287,41.6297226 26.7641511,42.0042071 27.214766,42.0042071 C27.4776247,42.0042071 28.095513,41.8731376 28.3583717,41.6109984 C28.6212304,41.3114107 28.6991808,41.003069 28.7526597,40.7122354 C28.824453,40.3218035 28.7697281,39.1768488 28.0938058,37.4542199 C27.3052297,35.5443486 26.0865215,33.4666901 25.1477404,31.9313035 C24.3216131,30.6206075 23.5893639,29.7031204 22.9509927,29.178842 C22.3501729,28.6171152 21.7681286,28.3362518 21.2048599,28.3362518 C20.7917963,28.3362518 19.9152765,28.7863169 19.3895591,29.3480437 C18.8262905,29.9097706 18.5967558,30.6011526 18.5967558,31.050534 C18.5967558,31.537364 18.7887393,32.5107672 19.3895591,33.7091178 Z M22.2802419,13.60054 C23.1730752,16.4740693 24.3447741,19.8895929 26.1304407,24.7057899 C26.536274,24.4629564 27.5842143,24.1541266 28.3147142,24.1541266 C28.3552975,24.1541266 28.4871934,24.1642447 28.7104017,24.1844808 C28.93361,24.2047169 29.1466725,24.214835 29.3495891,24.214835 C29.5119225,24.214835 30.0395058,24.2553072 30.932339,24.3362517 L27.0173216,12.2844343 C25.8809883,9.04665481 24.7027978,6.85224258 24.0534645,5.88090874 C23.5258812,5.03099163 22.9982979,4.60603308 22.4707146,4.60603308 C22.1054646,4.60603308 21.8010896,4.76792205 21.5575897,5.0917 C21.2735063,5.45595019 21.1314647,5.92138099 21.1314647,6.48799239 C21.1314647,7.86404867 21.0265437,10.6366151 22.2802419,13.60054 Z M29.6107014,34.6714073 C29.9486626,35.5327218 30.9702921,38.0525767 31.3458045,39.063685 C32.0968294,38.2023705 34.6768398,36.0158288 35.4278647,35.4541019 C35.2401084,35.4166535 34.6672131,35.4164899 34.2917006,35.3603173 C33.9161882,35.3041446 32.8845107,35.1980616 32.6967545,35.1606131 C31.9457297,35.0108193 31.1409934,34.9316239 30.8030322,34.8192785 L29.6107014,34.6714073 Z M35.6637956,24.4756233 L40.2503208,25.4547669 C42.0765707,20.4362087 43.4427179,16.9334341 44.4167178,13.8980158 C45.4313011,10.6197641 45.46467,7.90223965 45.46467,7.295156 C45.46467,6.64760011 45.3226283,6.14169706 45.038545,5.77744687 C44.8762117,5.49414117 44.5718367,5.35248832 44.1254201,5.35248832 C43.5572534,5.35248832 42.9282118,5.8988636 42.2382952,6.99161418 C41.4672119,8.16530923 40.5946703,10.2091575 39.6206704,13.123159 L35.6637956,24.4756233 Z" id="Shape" fill="#FFFFFF"></path>
            </g>
        </g>
    </g>
</svg>