<?xml version="1.0" encoding="UTF-8" standalone="no"?>
<svg width="61px" height="61px" viewBox="0 0 61 61" version="1.1" xmlns="http://www.w3.org/2000/svg" xmlns:xlink="http://www.w3.org/1999/xlink" xmlns:sketch="http://www.bohemiancoding.com/sketch/ns">
    <!-- Generator: Sketch 3.2.2 (9983) - http://www.bohemiancoding.com/sketch -->
    <title>Awwwards</title>
    <desc>Created with Sketch.</desc>
    <defs></defs>
    <g id="Page-1" stroke="none" stroke-width="1" fill="none" fill-rule="evenodd" sketch:type="MSPage">
        <g id="SVG_icons" sketch:type="MSLayerGroup" transform="translate(-357.000000, 0.000000)">
            <g id="Awwwards" transform="translate(357.992537, 0.245833)" sketch:type="MSShapeGroup">
                <rect id="Rectangle-3" fill="#000000" x="0" y="0" width="59.9844004" height="59.9844004" rx="2"></rect>
                <g id="www" transform="translate(6.071429, 23.214286)">
                    <path d="M31.1685714,0.00214285714 L28.8907143,9.56428571 C28.7164286,10.3428571 28.6585714,11.0228571 28.6585714,11.0228571 L28.6185714,11.0228571 C28.5978571,11.0228571 28.5785714,10.3614286 28.365,9.56428571 L25.9121429,0.00214285714 L23.7314286,0.00214285714 L21.24,9.56428571 C21.025,10.36 21.0064286,11.0228571 20.9864286,11.0228571 L20.9478571,11.0228571 C20.9478571,11.0228571 20.8864286,10.3414286 20.715,9.56428571 L19.0835714,2.40428571 L17.8571429,7.625 L19.4092857,13.8242857 L22.3107143,13.8242857 L24.4328571,5.64785714 C24.6657143,4.75214286 24.7842857,3.83785714 24.7842857,3.83785714 L24.8214286,3.83785714 C24.8214286,3.83785714 24.9378571,4.75214286 25.1728571,5.64785714 L27.2978571,13.8242857 L30.1971429,13.8242857 L33.7628571,0 L31.1685714,0.00214285714 L31.1685714,0.00214285714 Z" id="Shape" fill="#3C948B"></path>
                    <path d="M46.18,4.36159045e-16 L43.9007143,9.56214286 C43.7271429,10.3407143 43.6685714,11.0207143 43.6685714,11.0207143 L43.6278571,11.0207143 C43.61,11.0207143 43.5907143,10.3592857 43.3771429,9.56214286 L40.9221429,4.36159045e-16 L38.7435714,4.36159045e-16 L36.2507143,9.56214286 C36.035,10.3578571 36.0178571,11.0207143 35.9978571,11.0207143 L35.9578571,11.0207143 C35.9578571,11.0207143 35.8992857,10.3392857 35.725,9.56214286 L34.0835714,2.37 L32.8571429,7.59071429 L34.4207143,13.8235714 L37.3207143,13.8235714 L39.4421429,5.64714286 C39.675,4.75071429 39.7942857,3.83642857 39.7942857,3.83642857 L39.8328571,3.83642857 C39.8328571,3.83642857 39.95,4.75071429 40.1835714,5.64714286 L42.3071429,13.8235714 L45.2071429,13.8235714 L48.7728571,0 L46.18,0 L46.18,4.36159045e-16 L46.18,4.36159045e-16 Z" id="Shape" fill="#3C948B"></path>
                    <path d="M12.4235714,9.56285714 C12.6371429,10.36 12.6557143,11.0214286 12.675,11.0214286 L12.7142857,11.0214286 C12.7142857,11.0214286 12.7742857,10.3385714 12.9478571,9.56285714 L15.225,0 L17.815,0 L14.2507143,13.8242857 L11.3507143,13.8242857 L9.22928571,5.64714286 C8.99642857,4.75142857 8.87714286,3.83714286 8.87714286,3.83714286 L8.83857143,3.83714286 C8.83857143,3.83714286 8.72285714,4.75142857 8.48785714,5.64714286 L6.365,13.8235714 L3.46428571,13.8235714 L0,0.00214285714 L2.58928571,0.00214285714 L4.77071429,9.56428571 C4.94642857,10.3428571 5.00428571,11.0228571 5.00428571,11.0228571 L5.04357143,11.0228571 C5.06428571,11.0228571 5.08071429,10.3614286 5.29714286,9.56428571 L7.78928571,0.00214285714 L9.96714286,0.00214285714 L12.4235714,9.56285714 L12.4235714,9.56285714 Z" id="Shape" fill="#E1E3E4"></path>
                </g>
            </g>
        </g>
    </g>
</svg>