<?xml version="1.0" encoding="UTF-8" standalone="no"?>
<svg width="60px" height="61px" viewBox="0 0 60 61" version="1.1" xmlns="http://www.w3.org/2000/svg" xmlns:xlink="http://www.w3.org/1999/xlink" xmlns:sketch="http://www.bohemiancoding.com/sketch/ns">
    <!-- Generator: Sketch 3.2.2 (9983) - http://www.bohemiancoding.com/sketch -->
    <title>Behance</title>
    <desc>Created with Sketch.</desc>
    <defs></defs>
    <g id="Page-1" stroke="none" stroke-width="1" fill="none" fill-rule="evenodd" sketch:type="MSPage">
        <g id="SVG_icons" sketch:type="MSLayerGroup" transform="translate(-1.000000, -181.000000)">
            <g id="Behance" transform="translate(1.083254, 181.254760)" sketch:type="MSShapeGroup">
                <rect id="Rectangle-5" fill="#0098D8" x="0.0109667447" y="0.17460848" width="59.6470588" height="59.6470588" rx="2"></rect>
                <g id="letters" transform="translate(12.000000, 18.352941)" fill="#FFFFFF">
                    <path d="M10.8166277,0.299391155 C11.8770198,0.299391155 12.8558434,0.380932738 13.7530983,0.625557484 C14.6503532,0.788640649 15.3844708,1.11480698 16.0370198,1.52251487 C16.6895689,1.93022278 17.1789806,2.50101386 17.5052551,3.2348881 C17.8315296,3.96876234 17.9946669,4.86571974 17.9946669,5.84421873 C17.9946669,6.98580088 17.749961,7.96429986 17.1789806,8.69817443 C16.6895689,9.43204867 15.8738826,10.0843813 14.8950591,10.5736308 C16.2817257,10.9813387 17.3421179,11.715213 17.9946669,12.693712 C18.6472159,13.6722109 19.0550591,14.8953347 19.0550591,16.2815416 C19.0550591,17.4231237 18.8103532,18.4016227 18.40251,19.2170385 C17.9946669,20.0324543 17.3421179,20.7663286 16.6080002,21.2555781 C15.8738826,21.7448276 14.9766277,22.1525355 13.9978042,22.3971602 C13.0189806,22.641785 12.0401571,22.8048681 11.0613336,22.8048681 L0.131137487,22.8048681 L0.131137487,0.299391155 L10.8166277,0.299391155 L10.8166277,0.299391155 Z M10.1640787,9.43204867 C11.0613336,9.43204867 11.7954512,9.18742392 12.3664316,8.77971601 C12.937412,8.37200777 13.1821179,7.63813353 13.1821179,6.74117613 C13.1821179,6.25192664 13.1005493,5.76267714 12.937412,5.43651081 C12.7742747,5.11034449 12.5295689,4.86571974 12.2032943,4.62109499 C11.8770198,4.45801183 11.5507453,4.29492866 11.1429022,4.21338708 C10.7350591,4.1318455 10.3272159,4.1318455 9.83780415,4.1318455 L5.10682376,4.1318455 L5.10682376,9.43204867 L10.1640787,9.43204867 L10.1640787,9.43204867 Z M10.4087845,19.0539554 C10.8981963,19.0539554 11.3876081,18.9724138 11.7954512,18.8908722 C12.2032943,18.8093306 12.6111375,18.6462474 12.937412,18.4016227 C13.2636865,18.156998 13.5083924,17.9123732 13.7530983,17.5046653 C13.9162355,17.0969574 14.0793728,16.6077079 14.0793728,16.0369168 C14.0793728,14.8953347 13.7530983,14.0799188 13.1005493,13.5091278 C12.4480002,13.0198783 11.5507453,12.7752535 10.4903532,12.7752535 L5.10682376,12.7752535 L5.10682376,19.0539554 L10.4087845,19.0539554 L10.4087845,19.0539554 Z" id="path12"></path>
                    <path d="M24.9295689,18.537931 C25.5821179,19.1902637 26.5609414,19.51643 27.8660394,19.51643 C28.7632943,19.51643 29.5789806,19.2718053 30.2315296,18.8640974 C30.8840787,18.3748479 31.2919218,17.8855984 31.4550591,17.3963489 L35.4519218,17.3963489 C34.7993728,19.3533469 33.8205493,20.7395538 32.5154512,21.6365112 C31.2103532,22.451927 29.6605493,22.9411765 27.7844708,22.9411765 C26.4793728,22.9411765 25.337412,22.6965517 24.2770198,22.2888438 C23.2166277,21.8811359 22.4009414,21.3103448 21.6668238,20.494929 C20.9327061,19.7610548 20.3617257,18.8640974 20.0354512,17.8040568 C19.6276081,16.7440162 19.4644708,15.6024341 19.4644708,14.2977688 C19.4644708,13.074645 19.6276081,11.9330629 20.0354512,10.8730223 C20.4432943,9.81298174 21.0142747,8.91602434 21.7483924,8.10060852 C22.48251,7.36673395 23.3797649,6.7144013 24.3585885,6.30669339 C25.4189806,5.89898548 26.4793728,5.65436073 27.7844708,5.65436073 C29.1711375,5.65436073 30.3946669,5.89898548 31.4550591,6.46977655 C32.5154512,7.04056763 33.3311375,7.69290028 33.9836865,8.67139959 C34.6362355,9.568357 35.1256473,10.6283976 35.4519218,11.7699797 C35.6150591,12.9115619 35.6966277,14.053144 35.6150591,15.3578093 L23.7876081,15.3578093 C23.7876081,16.6624746 24.2770198,17.8855984 24.9295689,18.537931 L24.9295689,18.537931 Z M30.0683924,9.97606491 C29.497412,9.40527383 28.6001571,9.07910751 27.5397649,9.07910751 C26.8056473,9.07910751 26.2346669,9.24219067 25.7452551,9.48681542 C25.2558434,9.73144016 24.9295689,10.0576065 24.6032943,10.3837728 C24.2770198,10.7099391 24.1138826,11.1176471 24.032314,11.525355 C23.9507453,11.9330629 23.8691767,12.2592292 23.8691767,12.5853955 L31.2103532,12.5853955 C31.0472159,11.3622718 30.6393728,10.546856 30.0683924,9.97606491 L30.0683924,9.97606491 Z" id="path14"></path>
                    <rect id="rect24" x="22.7272159" y="1.57728162" width="9.13568627" height="2.20162272"></rect>
                </g>
            </g>
        </g>
    </g>
</svg>