<?xml version="1.0" encoding="UTF-8" standalone="no"?>
<svg width="60px" height="61px" viewBox="0 0 60 61" version="1.1" xmlns="http://www.w3.org/2000/svg" xmlns:xlink="http://www.w3.org/1999/xlink" xmlns:sketch="http://www.bohemiancoding.com/sketch/ns">
    <!-- Generator: Sketch 3.2.2 (9983) - http://www.bohemiancoding.com/sketch -->
    <title>designerNews</title>
    <desc>Created with Sketch.</desc>
    <defs>
        <rect id="path-1" x="0.0109938514" y="0.175025538" width="59.6178344" height="59.6178344" rx="2"></rect>
    </defs>
    <g id="Page-1" stroke="none" stroke-width="1" fill="none" fill-rule="evenodd" sketch:type="MSPage">
        <g id="SVG_icons" sketch:type="MSLayerGroup" transform="translate(-358.000000, -179.000000)">
            <g id="designerNews" transform="translate(358.155552, 179.604167)">
                <g id="Path-25-+-Path-26">
                    <mask id="mask-2" sketch:name="Mask" fill="white">
                        <use xlink:href="#path-1"></use>
                    </mask>
                    <use id="Mask" sketch:type="MSShapeGroup" xlink:href="#path-1"></use>
                    <g mask="url(#mask-2)" fill="#3473D6" sketch:type="MSShapeGroup">
                        <g transform="translate(-0.382166, -0.382166)">
                            <path d="M0.0218489031,0.134946432 L35.8653856,0.100034806 C35.8653856,0.100034806 35.3135902,9.49438147 27.6698039,17.8188951 C20.0260176,26.1434086 8.44704742,30.0120398 8.44704742,30.0120398 C8.44704742,30.0120398 8.44368776,32.7898288 10.1806546,36.9860693 C11.9176214,41.1823098 14.5750338,44.8162978 14.5750338,44.8162978 C14.5750338,44.8162978 9.80360976,43.6153535 6.48973781,42.3555466 C3.17586586,41.0957397 0.00167045354,39.2760646 0.00167045354,39.2760646 L0.0218489031,0.134946432 Z" id="Path-25"></path>
                            <path d="M42.8963576,19.9841072 C49.2946656,13.7770966 60.1637179,12.3965318 60.1637179,12.3965318 L60.1365814,59.9378713 L22.4862472,60.0178915 C22.4862472,60.0178915 22.3620912,59.2432245 22.4145789,58.6274755 C22.4496334,58.2162408 22.8142774,57.0323425 22.3308644,56.8328537 C21.8474514,56.6333648 21.6795876,55.7591915 21.6795876,55.7591915 C21.6795876,55.7591915 21.617683,55.171454 21.8474514,54.7728517 C22.0772198,54.3742494 22.5749193,54.2059698 22.5749193,54.2059698 C22.5749193,54.2059698 27.8143461,54.3308346 28.7716168,54.2059698 C29.7288876,54.081105 30.5421018,53.166744 30.5421018,53.166744 L32.4804507,51.350821 C32.4804507,51.350821 30.042459,51.517329 28.1951394,51.350821 C26.3478198,51.1843129 24.524923,50.63375 24.524923,50.63375 C24.524923,50.63375 25.561191,48.1871264 26.1341543,47.1894242 C26.7387311,46.1366732 28.1951394,44.0803883 28.1951394,44.0803883 L22.2211007,40.7822766 L32.7434663,36.0996251 C32.7434663,36.0996251 36.4980496,26.1911179 42.8963576,19.9841072 Z M42.174219,41.4127935 C44.0433787,41.4127935 45.558632,39.9073164 45.558632,38.0502163 C45.558632,36.1931161 44.0433787,34.687639 42.174219,34.687639 C40.3050592,34.687639 38.7898059,36.1931161 38.7898059,38.0502163 C38.7898059,39.9073164 40.3050592,41.4127935 42.174219,41.4127935 Z" id="Path-26"></path>
                        </g>
                    </g>
                </g>
            </g>
        </g>
    </g>
</svg>