<?xml version="1.0" encoding="UTF-8" standalone="no"?>
<svg width="61px" height="61px" viewBox="0 0 61 61" version="1.1" xmlns="http://www.w3.org/2000/svg" xmlns:xlink="http://www.w3.org/1999/xlink" xmlns:sketch="http://www.bohemiancoding.com/sketch/ns">
    <!-- Generator: Sketch 3.2.2 (9983) - http://www.bohemiancoding.com/sketch -->
    <title>Dribbble</title>
    <desc>Created with Sketch.</desc>
    <defs></defs>
    <g id="Page-1" stroke="none" stroke-width="1" fill="none" fill-rule="evenodd" sketch:type="MSPage">
        <g id="SVG_icons" sketch:type="MSLayerGroup" transform="translate(-536.000000, -178.000000)">
            <g id="Dribbble" transform="translate(536.365672, 178.604167)" sketch:type="MSShapeGroup">
                <rect id="Rectangle-7" fill="#EC4989" x="0.0109026116" y="0.173587378" width="59.6470588" height="59.6470588" rx="2"></rect>
                <path d="M43.4659893,20.3291651 C42.871124,19.4453802 42.185845,18.618479 41.4330492,17.8624215 C40.6786878,17.1104085 39.8485249,16.4276736 38.9671537,15.8303295 C38.0768455,15.2272448 37.1238477,14.7104642 36.1358848,14.2905555 C35.1291345,13.8649062 34.0752204,13.5386077 33.0050631,13.3204665 C31.9063988,13.0958672 30.7768137,12.9819041 29.6480766,12.9819041 C28.5184915,12.9819041 27.3889064,13.0958672 26.2918729,13.3204665 C25.2200195,13.5385425 24.1661706,13.864841 23.1602684,14.2905555 C22.1723055,14.7105294 21.2184597,15.2272448 20.3281515,15.8303295 C19.4467802,16.4276736 18.6166826,17.1104085 17.8638868,17.8624215 C17.1103082,18.618479 16.4250292,19.4453802 15.8293159,20.3291651 C15.2287101,21.2179077 14.7110814,22.1716882 14.2928036,23.161282 C13.8663063,24.1663362 13.5400078,25.2210331 13.3194529,26.2936693 C13.096354,27.3899852 12.9824561,28.5195703 12.9824561,29.6491554 C12.9824561,30.7778925 13.0964192,31.9050639 13.3193877,33.0037936 C13.5399425,34.0763645 13.866241,35.1294958 14.2927383,36.1361808 C14.7110162,37.1249918 15.2286449,38.0779895 15.8292507,38.9666669 C16.4249639,39.8497342 17.110243,40.678201 17.8638216,41.4334105 C18.6166174,42.1853582 19.446715,42.8697892 20.3280862,43.4679814 C21.2183945,44.0685219 22.1722402,44.5853025 23.1602032,45.0044937 C24.1661054,45.4292949 25.2200195,45.7548106 26.2918076,45.9745174 C27.3888412,46.2008128 28.5184263,46.3163415 29.6480114,46.3163415 C30.7767484,46.3163415 31.9063988,46.2008128 33.0049979,45.9745174 C34.0751552,45.7548106 35.1291345,45.4292949 36.1358195,45.0044937 C37.1238477,44.5853025 38.0767802,44.0685219 38.9670885,43.4679814 C39.8484597,42.869724 40.6785573,42.1853582 41.432984,41.4334105 C42.1857798,40.678201 42.8710588,39.8497342 43.465924,38.9666669 C44.0697915,38.0779895 44.5865721,37.125057 45.0032192,36.1361808 C45.4296512,35.1294958 45.7551669,34.0764297 45.9749389,33.0037936 C46.200321,31.9050639 46.315067,30.7778925 46.315067,29.6491554 C46.315067,28.5195703 46.200321,27.3899852 45.9749389,26.2936693 C45.7551669,25.2210331 45.4296512,24.1663362 45.0032192,23.161282 C44.5865721,22.1717535 44.0697915,21.2179077 43.4659893,20.3291651 L43.4659893,20.3291651 Z M29.6480114,15.4169441 C33.2516462,15.4169441 36.5418987,16.7572338 39.0477172,18.9668264 C39.0126867,19.0188829 36.9854872,22.1049542 31.6150002,24.1183242 C29.1808735,19.6488438 26.5074047,16.1022232 26.2942213,15.8157172 C27.3692711,15.5569355 28.49155,15.4169441 29.6480114,15.4169441 L29.6480114,15.4169441 Z M26.2594049,15.8303947 L26.2644049,15.8303947 C26.2394049,15.8328947 26.2182049,15.8353947 26.1933049,15.8478947 C26.2357049,15.8352947 26.2594049,15.8303947 26.2594049,15.8303947 L26.2594049,15.8303947 Z M23.5752194,16.775173 C23.7648535,17.0283446 26.3967685,20.6001454 28.8601851,24.9769289 C22.0265084,26.7926411 16.0953385,26.7177529 15.7201148,26.7144912 C16.6438227,22.306787 19.6061459,18.649465 23.5752194,16.775173 L23.5752194,16.775173 Z M19.0617063,39.1595627 C16.7943818,36.6390667 15.414952,33.3056294 15.414952,29.6491554 C15.414952,29.4961174 15.4222582,29.3480371 15.4263679,29.1950643 C15.6786263,29.2047841 22.7109393,29.3626494 30.039413,27.1686476 C30.447123,27.9678245 30.8370243,28.7784173 31.1942435,29.587314 C31.0070883,29.6410012 30.818237,29.6963846 30.6327126,29.758226 C22.951847,32.2419955 19.0568137,39.1521913 19.0568137,39.1521913 C19.0568137,39.1521913 19.0600754,39.156301 19.0617063,39.1595627 L19.0617063,39.1595627 Z M29.6480114,43.8813667 C26.3471257,43.8813667 23.3164377,42.7476719 20.9025986,40.8620945 L20.9001197,40.8686179 C20.9001197,40.8686179 20.7707615,40.7709632 20.5819102,40.6179252 C20.6852402,40.7058601 20.7975725,40.780683 20.9025986,40.8620945 C20.9286268,40.8067112 23.6703952,34.9048965 32.0699394,31.9766904 C32.1009254,31.9653398 32.1326289,31.9562723 32.1643324,31.9457697 C34.1671346,37.15102 34.9939705,41.5098642 35.2047403,42.7534124 C33.4965331,43.4800496 31.6190447,43.8813667 29.6480114,43.8813667 L29.6480114,43.8813667 Z M37.6015534,41.4529153 C37.4566696,40.5951586 36.6981332,36.4169462 34.8312127,31.2865189 C39.4252893,30.5499663 43.4073442,31.8106057 43.7003084,31.9049987 C43.067151,35.8717238 40.7974129,39.2962923 37.6015534,41.4529153 L37.6015534,41.4529153 Z M33.9637362,29.0403954 C33.8636678,28.7962913 33.7611206,28.5521219 33.6560945,28.30306 C33.3607168,27.6087787 33.0408112,26.9179549 32.7104682,26.2391992 C38.3299518,23.9441505 40.6127366,20.6456785 40.6396129,20.6075168 C42.6366744,23.0318585 43.8436266,26.1284978 43.8761782,29.5025755 C43.6702357,29.4603041 38.8531906,28.4251121 33.9637362,29.0403954 L33.9637362,29.0403954 Z M26.2594049,15.8303947 C26.2594049,15.8303947 26.2357049,15.8353947 26.1933049,15.8478947 C26.2183049,15.8353947 26.2394049,15.8328947 26.2644049,15.8303947 L26.2594049,15.8303947 L26.2594049,15.8303947 Z M20.5819754,40.6179252 C20.6853054,40.7058601 20.7976377,40.780683 20.9026638,40.8620945 L20.9001849,40.8686179 C20.9001849,40.8685527 20.7707615,40.770898 20.5819754,40.6179252 L20.5819754,40.6179252 Z" id="Shape" stroke="#FFFFFF" stroke-width="0.5" fill="#FFFFFF"></path>
            </g>
        </g>
    </g>
</svg>