<?xml version="1.0" encoding="UTF-8" standalone="no"?>
<svg width="61px" height="61px" viewBox="0 0 61 61" version="1.1" xmlns="http://www.w3.org/2000/svg" xmlns:xlink="http://www.w3.org/1999/xlink" xmlns:sketch="http://www.bohemiancoding.com/sketch/ns">
    <!-- Generator: Sketch 3.2.2 (9983) - http://www.bohemiancoding.com/sketch -->
    <title>fastCompany</title>
    <desc>Created with Sketch.</desc>
    <defs></defs>
    <g id="Page-1" stroke="none" stroke-width="1" fill="none" fill-rule="evenodd" sketch:type="MSPage">
        <g id="SVG_icons" sketch:type="MSLayerGroup" transform="translate(-179.000000, -356.000000)">
            <g id="fastCompany" transform="translate(179.619403, 356.962500)" sketch:type="MSShapeGroup">
                <rect id="Rectangle-8" fill="#000000" x="0" y="0" width="59.995872" height="59.995872" rx="2"></rect>
                <g id="FastCompany-logo-white" transform="translate(3.157895, 8.771930)" fill="#FFFFFF">
                    <g id="Group">
                        <g id="company" transform="translate(0.000000, 28.771930)">
                            <path d="M12.4758602,3.2592519 C12.4602211,4.90301225 12.3190093,9.92883151 12.3190093,9.92883151 C12.2955506,10.9140682 12.6416807,11.3668322 13.5425387,11.3823568 L13.5425387,11.7776564 L9.95014595,11.7776564 L9.95014595,11.3668322 C10.8694029,11.3668322 11.3263866,10.9092023 11.3620345,9.92883151 L11.6600973,1.69450513 C11.3935427,1.04664019 11.1267581,0.825355842 10.4052897,0.793379676 L10.4052897,0.383018868 L13.1816895,0.383018868 L16.068023,8.12704403 L19.0484211,0.383018868 L21.5428571,0.383018868 L21.5428571,0.793611387 C20.8089695,0.793611387 20.4308713,1.07722608 20.4603096,1.86852036 L20.7583724,9.86580602 C20.8020699,11.0449851 21.0205573,11.3670639 21.9508536,11.3670639 L21.9508536,11.7778881 L17.8251216,11.7778881 L17.8251216,11.3670639 C18.616736,11.3670639 19.0130031,11.1112546 18.9702256,9.83429328 C18.9702256,9.83429328 18.7671473,4.25283019 18.7505882,3.25948361 L16.727395,8.80665343 C16.46728,9.51939755 16.2142946,10.3280702 16.0054666,11.2250248 L15.3150464,11.2567693 C15.1646351,10.6846739 14.750889,9.56550811 14.750889,9.56550811 C14.750889,9.56550811 13.0614065,4.83326713 12.4758602,3.2592519 L12.4758602,3.2592519 Z" id="Shape"></path>
                            <path d="M9.10310482,11.8728898 C8.85816895,11.81334 8.6615303,11.8096326 8.41291464,11.8096326 C7.98927908,11.8096326 7.26022114,12.0309169 6.31083591,12.0309169 C2.81687749,12.0309169 0.224237063,9.90148957 0.224237063,5.99367759 C0.224237063,2.65680238 2.65059708,0.12999007 6.37362229,0.12999007 C7.23538257,0.12999007 8.24065458,0.259053294 9.04031844,0.619827872 C9.18934985,0.454849388 9.2525962,0.360542867 9.41680672,0.177490897 L9.71486953,0.193015558 C9.66588235,0.78387951 9.463954,2.73743793 9.463954,2.73743793 L9.13438302,2.70592519 C8.89818664,1.5672956 8.30804069,0.840648792 6.42053958,0.840648792 C4.16068996,0.840648792 2.10667846,2.60350877 2.10667846,5.92972526 C2.10667846,9.69827872 4.20806723,11.2875869 6.54611234,11.2875869 C8.05666519,11.2875869 8.97132242,10.4585237 9.55801858,9.35951672 L9.95014595,9.50155578 L9.10310482,11.8728898 L9.10310482,11.8728898 Z" id="Shape"></path>
                            <path d="M39.4884918,3.16448196 L39.4884918,9.67603443 C39.4884918,11.0676928 39.797594,11.3672956 40.680513,11.3672956 L40.680513,11.7781198 L34.2963114,11.7781198 L34.2963114,11.3672956 C34.8241309,11.3672956 35.2374171,11.1835485 35.2374171,10.8776895 C35.2374171,10.6564052 35.1888899,10.2770937 35.064927,9.88202582 L34.5785051,8.332572 L31.0176205,8.332572 C30.9562141,8.53277061 30.3430694,10.3178749 30.3430694,10.8459451 C30.3430694,11.2773916 30.7871738,11.3672956 31.1588324,11.3672956 L31.1588324,11.7781198 L28.1630252,11.7781198 L28.1630252,11.3672956 C28.6942946,11.3672956 29.1517382,11.3026481 29.4967183,10.1976167 L32.2731181,1.2999007 C32.0891287,0.92082092 31.9067492,0.826746111 31.5355506,0.793843098 L31.5355506,0.383018868 L33.9513313,0.383018868 L36.8378947,9.67580271 C37.1410172,10.6513075 37.3930827,11.1300232 37.8105086,11.3670639 C38.446192,11.1680238 38.6106325,10.9221781 38.6106325,9.66050976 L38.6106325,1.88450844 C38.1653782,1.19748428 38.0869527,0.793843098 37.1674657,0.793843098 L37.1674657,0.383018868 L39.9128173,0.383018868 L44.477824,8.14303211 L44.477824,2.2163191 C44.477824,1.04942072 44.1719416,0.793611387 43.2855728,0.793611387 L43.2855728,0.383018868 L49.3091552,0.383018868 L49.3091552,0.793611387 C48.9009288,0.793611387 48.5869969,0.920357498 48.5869969,1.31519364 C48.5869969,1.58675935 48.7081999,1.88288646 48.8383724,2.16881827 L50.5480938,5.92995697 L52.2267669,2.29486925 C52.4620433,1.78487256 52.5402388,1.52303873 52.5402388,1.25170473 C52.5402388,0.942138365 52.3097921,0.793147964 51.8187705,0.793147964 L51.8187705,0.383018868 L54.7053339,0.383018868 L54.7053339,0.793611387 C53.976736,0.793611387 53.5832287,1.41575637 53.2150199,2.18434293 L51.0188766,6.76759351 L51.0188766,9.72307183 C51.0188766,11.0505462 51.359027,11.3668322 52.2111278,11.3668322 L52.2111278,11.7776564 L48.1316232,11.7776564 L48.1316232,11.3668322 C48.9685449,11.3668322 49.3238744,11.0387289 49.3238744,9.72307183 L49.3238744,7.16266137 L46.955241,2.12154916 C46.5088368,1.17130089 46.314268,0.91734525 46.0612826,0.79407481 C45.5488722,1.00956637 45.3862716,1.3613042 45.3862716,2.21678252 L45.3862716,10.6089043 C45.3862716,10.6089043 45.4154799,11.2532936 45.4962052,11.9996359 L44.7745069,12.0788812 L39.4884918,3.16448196 L39.4884918,3.16448196 Z M32.742981,2.59563059 L31.2367979,7.54243628 L34.3429987,7.54243628 L32.742981,2.59563059 L32.742981,2.59563059 Z" id="Shape"></path>
                            <path d="M26.0450774,7.54243628 C26.0450774,7.54243628 25.5855639,7.54150943 25.2288545,7.54243628 L25.2288545,9.89731877 C25.2288545,11.0982787 25.5963733,11.3672956 26.5154003,11.3672956 L26.5154003,11.7781198 L22.342751,11.7781198 L22.342751,11.3672956 C23.22682,11.3672956 23.5350022,11.0194969 23.5350022,9.85004965 L23.5350022,2.18480636 C23.5350022,0.987785501 23.2300398,0.793843098 22.342751,0.793843098 L22.342751,0.383018868 L25.4641309,0.383018868 C28.478797,0.383018868 30.2485449,1.30430321 30.2485449,3.81257862 C30.2485449,6.39685535 28.1384166,7.54243628 26.0450774,7.54243628 L26.0450774,7.54243628 Z M25.5427864,1.17315458 L25.2444936,1.17315458 L25.2444936,6.75206885 L25.7624237,6.75206885 C27.5376913,6.75206885 28.4603981,5.94107911 28.4603981,3.84362794 C28.460858,1.81360477 27.6200265,1.17315458 25.5427864,1.17315458 L25.5427864,1.17315458 Z" id="Shape"></path>
                            <path d="M7.22066342,9.62876531 C5.21494914,9.62876531 3.76948253,8.163191 3.76948253,6.04117842 C3.76948253,4.02946044 5.27773552,2.4693479 7.23630252,2.4693479 C9.16359133,2.4693479 10.6403361,3.99817941 10.6403361,6.02542205 C10.6403361,8.0366766 9.13254312,9.62876531 7.22066342,9.62876531 L7.22066342,9.62876531 Z M7.25217161,3.10145647 C5.84810261,3.10145647 5.33845201,4.48176101 5.33845201,6.04141013 C5.33845201,7.50744786 5.80187528,8.99688845 7.23653251,8.99688845 C8.62404246,8.99688845 9.08746572,7.49215492 9.08746572,6.00966567 C9.08723574,4.51327375 8.53043786,3.10145647 7.25217161,3.10145647 L7.25217161,3.10145647 Z" id="Shape"></path>
                        </g>
                        <g id="fast" transform="translate(1.052632, 0.000000)">
                            <path d="M51.7513279,5.28180735 L50.9608885,5.18273419 C50.894254,3.02728898 50.2066634,2.44686528 48.4910671,2.44686528 L45.1974891,2.44686528 L45.1974891,20.1804767 C45.1974891,23.1410725 45.7160792,23.7079643 47.7011106,23.7079643 L47.7011106,24.5648262 L39.1380975,24.5648262 L39.1380975,23.7079643 C41.088846,23.7079643 41.6407533,23.1222244 41.6407533,20.1142668 L41.6407533,2.44686528 L38.4133269,2.44686528 C36.283438,2.44686528 35.9512313,2.92096657 35.317238,5.24846077 L34.5267986,5.18273419 L35.0869145,0.105839126 L35.7126992,0.204912281 C35.8773539,0.798867925 36.4041526,0.798867925 37.7213906,0.798867925 L48.7213906,0.798867925 C50.6977306,0.798867925 51.2245292,0.798867925 51.6523419,0.106805693 L52.3109609,0.172532274 L51.7513279,5.28180735 L51.7513279,5.28180735 Z" id="Shape"></path>
                            <path d="M27.7426364,25.1592651 C26.1564462,25.1592651 24.9183969,24.9243893 23.9884114,24.6310361 C23.0845002,24.3468653 22.4587156,24.0240318 22.0453887,23.8399007 C21.6610333,24.2912877 21.3211009,24.7963191 21.3211009,24.7963191 L20.5634959,24.6305528 L21.1564462,19.324098 L22.0125543,19.4231711 C22.3766296,21.864237 24.143409,23.675101 27.5784645,23.675101 C30.3162723,23.675101 32.1236118,21.3988348 32.1236118,18.9616352 C32.1236118,16.8506521 31.395944,15.8367229 28.5992274,13.8852234 C27.7754708,13.3105991 27.0038629,12.8021847 26.2279092,12.2696061 C23.8227909,10.6211255 22.2105263,8.80639523 22.2105263,5.87479643 C22.2105263,2.54255545 25.0241429,0.304468719 28.7971994,0.304468719 C30.952197,0.304468719 32.3056494,0.911956306 32.716562,1.12846739 L33.4736842,0.238258855 L34.0338001,0.337332009 L33.5398358,5.21559748 L32.7827137,5.11652433 C32.7160792,2.83832506 31.409464,1.78718305 29.1269918,1.78718305 C26.9063254,1.78718305 25.3394495,2.91806687 25.3394495,5.14938762 C25.3394495,7.02839457 26.8763882,8.31634558 28.5673588,9.43466402 C29.3911154,9.97980801 30.1144375,10.4974048 30.7740222,10.956041 C34.7914051,13.7518371 35.6479961,15.4993909 35.6479961,18.2352598 C35.6470304,22.1778881 32.5731531,25.1592651 27.7426364,25.1592651 L27.7426364,25.1592651 Z" id="Shape"></path>
                            <path d="M14.7991309,5.24894406 L13.9753742,5.24894406 C13.9087397,3.19208871 13.0265572,2.44734856 11.1762434,2.44734856 L6.07146306,2.44734856 L6.07146306,11.3146375 L9.36504104,11.3146375 C11.0550459,11.3146375 11.4891357,10.4814565 11.7035249,8.94123138 L12.4278127,8.94123138 L12.4278127,15.3031778 L11.7035249,15.3031778 C11.467407,13.6532473 11.0758088,12.9302549 9.33220666,12.9302549 L6.07194592,12.9302549 L6.07194592,20.5443893 C6.07194592,23.3831976 6.74649928,23.7089308 8.5750845,23.7089308 L8.5750845,24.5657928 L0.0115886045,24.5657928 L0.0115886045,23.7089308 C2.19507484,23.7089308 2.51472718,23.1575041 2.51472718,20.5777358 L2.51472718,3.93054618 C2.51472718,2.28689838 1.84838242,1.65572989 0.0115886045,1.65572989 L0.0115886045,0.798867925 L11.802028,0.798867925 C13.8367938,0.798867925 14.2636408,0.682879841 14.5683245,0.00773253889 L15.3587639,0.00773253889 L14.7991309,5.24894406 L14.7991309,5.24894406 Z" id="Shape"></path>
                            <path d="M19.5089329,18.7311089 L19.5089329,17.9071102 C20.5794302,17.9071102 20.8266538,17.5528633 20.8266538,17.2483946 C20.8266538,16.8376034 20.7136649,16.4804568 20.5958474,16.0938299 C20.5958474,16.0938299 20.3408981,15.1978219 20.1347175,14.577769 L15.7547079,14.577769 L15.3264124,15.9618934 C15.2052149,16.3538365 15.0299372,16.7298312 15.0299372,17.1488381 C15.0299372,17.6374379 15.5581845,17.9061437 16.2158378,17.9061437 L16.2158378,18.7301423 L11.8353452,18.7301423 L11.8353452,17.9061437 C12.8734911,17.9061437 13.3524867,17.5987752 13.7783679,16.3248395 L17.1704491,6.17153261 C17.0497344,5.66505131 16.764365,5.38426349 16.1163689,5.31467064 L16.1163689,4.55688183 L19.7392564,4.55688183 C22.6084017,13.1313009 23.3949783,15.4674942 23.3949783,15.4674942 C24.0463544,17.4107779 24.5369387,17.9066269 25.535973,17.9066269 L25.535973,18.7306256 L19.5089329,18.7306256 L19.5089329,18.7311089 Z M17.9275712,7.6880768 L16.1492033,13.2588878 L19.7392564,13.2588878 L17.9275712,7.6880768 L17.9275712,7.6880768 Z" id="Shape"></path>
                        </g>
                    </g>
                </g>
            </g>
        </g>
    </g>
</svg>