<?xml version="1.0" encoding="UTF-8" standalone="no"?>
<svg width="60px" height="61px" viewBox="0 0 60 61" version="1.1" xmlns="http://www.w3.org/2000/svg" xmlns:xlink="http://www.w3.org/1999/xlink" xmlns:sketch="http://www.bohemiancoding.com/sketch/ns">
    <!-- Generator: Sketch 3.2.2 (9983) - http://www.bohemiancoding.com/sketch -->
    <title>fastCoDesign</title>
    <desc>Created with Sketch.</desc>
    <defs></defs>
    <g id="Page-1" stroke="none" stroke-width="1" fill="none" fill-rule="evenodd" sketch:type="MSPage">
        <g id="SVG_icons" sketch:type="MSLayerGroup" transform="translate(-1.000000, -356.000000)">
            <g id="fastCoDesign" transform="translate(1.246269, 356.962500)" sketch:type="MSShapeGroup">
                <rect id="Rectangle-8" fill="#FFFFFF" x="0" y="0" width="59.6470588" height="59.6470588" rx="2"></rect>
                <g id="Group" transform="translate(5.714286, 2.142857)" fill="#000000">
                    <path d="M12.4632219,5.08365508 L0.169536474,5.08365508 L0.169536474,47.2779923 L14.4793313,47.2779923 C24.7991641,45.7528958 28.6801748,37.6968275 28.6801748,25.8503861 L28.6801748,22.4499292 C28.6801748,11.7376512 25.4050152,5.08365508 12.4632219,5.08365508 L12.4632219,5.08365508 Z" id="Shape"></path>
                    <path d="M21.6874316,0 C31.6916109,3.05019305 35.8078343,11.5953089 35.8078343,24.49 L35.8078343,24.6603024 C35.8078343,34.3639833 33.7077204,43.7194337 27.8528571,47.2779923 L47.5175608,47.2779923 L47.5175608,0 L21.6874316,0 L21.6874316,0 Z" id="Shape"></path>
                </g>
                <g id="Group" transform="translate(13.351064, 52.471042)" fill="#000000">
                    <path d="M3.47015198,1.33852638 C3.25072188,1.28209781 3.00736322,1.25769627 2.74771277,1.25769627 C1.78191489,1.25769627 1.33541793,1.84079151 1.33541793,2.87074003 L1.33541793,3.21083655 C1.33541793,4.46751609 1.86337386,5.04298584 2.82917173,5.04298584 C3.0725304,5.04298584 3.32454407,5.01045045 3.55975684,4.94588803 L3.55975684,4.15182111 L4.44460486,4.15182111 L4.44460486,5.23006435 C4.18495441,5.51322394 3.60048632,5.83756113 2.74771277,5.83756113 C1.23766717,5.83756113 0.239285714,4.84879022 0.239285714,3.08933719 L0.239285714,3.07357786 C0.239285714,1.46002574 1.13227964,0.422451737 2.66676292,0.422451737 C3.55975684,0.422451737 4.12793313,0.714253539 4.37943769,0.982670528 L4.37943769,2.0766731 L3.47015198,2.0766731 L3.47015198,1.33852638 L3.47015198,1.33852638 Z" id="Shape"></path>
                    <path d="M5.15940729,3.70598456 L5.15940729,3.69022523 C5.15940729,2.43303732 5.99537994,1.68828185 7.16431611,1.68828185 C8.33325228,1.68828185 9.16922492,2.43456242 9.16922492,3.68259974 L9.16922492,3.69835907 C9.16922492,5.17363578 8.21920973,5.80604247 7.16431611,5.80604247 C6.10942249,5.80553411 5.15940729,5.17312741 5.15940729,3.70598456 L5.15940729,3.70598456 Z M8.1306231,3.81935006 L8.1306231,3.52754826 C8.1306231,2.78177606 7.7406383,2.37610039 7.16482523,2.37610039 C6.58850304,2.37610039 6.20666413,2.78177606 6.20666413,3.52754826 L6.20666413,3.81935006 C6.20666413,4.80761261 6.62923252,5.13245817 7.16482523,5.13245817 C7.70041793,5.13245817 8.1306231,4.80812098 8.1306231,3.81935006 L8.1306231,3.81935006 Z" id="Shape"></path>
                    <path d="M9.69768997,5.15736808 C9.69768997,4.8004955 9.98992401,4.50920206 10.3310334,4.50920206 C10.6802888,4.50920206 10.9643769,4.8004955 10.9643769,5.15736808 C10.9643769,5.49746461 10.6802888,5.78977477 10.3310334,5.78977477 C9.98992401,5.78926641 9.69768997,5.49746461 9.69768997,5.15736808 L9.69768997,5.15736808 Z" id="Shape"></path>
                    <path d="M11.7514742,0.536833977 L14.2273176,0.536833977 C15.7373632,0.536833977 16.5733359,1.42850708 16.5733359,3.05781853 L16.5733359,3.07408623 C16.5733359,4.87319176 15.6477584,5.71606178 14.0730547,5.71606178 L11.750965,5.71606178 L11.750965,4.98655727 L12.2137538,4.98655727 L12.2137538,1.32225869 L11.750965,1.32225869 L11.7514742,0.536833977 L11.7514742,0.536833977 Z M13.983959,4.9463964 C15.0958739,4.9463964 15.4777128,4.3139897 15.4777128,3.21998713 L15.4777128,2.838713 C15.4777128,1.93026384 15.1854787,1.38783784 14.1463678,1.38783784 L13.2615198,1.38783784 L13.2615198,4.9463964 L13.983959,4.9463964 L13.983959,4.9463964 Z" id="Shape"></path>
                    <path d="M20.4059802,1.37919562 L18.7416717,1.37919562 L18.7416717,2.77415058 L20.6172644,2.77415058 L20.6172644,3.55194981 L18.7416717,3.55194981 L18.7416717,4.96215573 L20.4706383,4.96215573 L20.4706383,4.21638353 L21.3310486,4.21638353 L21.3310486,5.71555341 L17.231117,5.71555341 L17.231117,4.98604891 L17.6939058,4.98604891 L17.6939058,1.32175032 L17.231117,1.32175032 L17.231117,0.535817246 L21.2740274,0.535817246 L21.2740274,2.07514801 L20.4054711,2.07514801 L20.4054711,1.37919562 L20.4059802,1.37919562 Z" id="Shape"></path>
                    <path d="M24.6683207,1.30649936 C24.4656915,1.24956242 24.2462614,1.22566924 24.042614,1.22566924 C23.522804,1.22566924 23.1099088,1.37157014 23.1099088,1.92263835 C23.1099088,2.15801158 23.1903495,2.33543115 23.45,2.44981338 C23.9372264,2.6765444 24.781345,2.66841055 25.2685714,2.99274775 C25.6819757,3.25201416 25.8454027,3.64091377 25.8454027,4.19198198 C25.8454027,5.3266538 25.0012842,5.83756113 23.9214438,5.83756113 C23.0284498,5.83756113 22.4037614,5.58693694 22.0947264,5.30276062 L22.0947264,4.18384813 L22.9877204,4.18384813 L22.9877204,4.95453024 C23.2478799,5.02773488 23.531459,5.07552124 23.8318389,5.07552124 C24.4244529,5.07552124 24.8144377,4.86454955 24.8144377,4.30483912 C24.8144377,4.06133205 24.7334878,3.90831403 24.497766,3.79444015 C24.1566565,3.59973616 23.2881003,3.55093308 22.8008739,3.28404118 C22.3380851,3.02477477 22.1430927,2.58707207 22.1430927,2.00245174 C22.1430927,0.891673102 23.0360866,0.422451737 23.961155,0.422451737 C24.7161778,0.422451737 25.2767173,0.62478121 25.5521505,0.884047619 L25.5521505,1.97805019 L24.6678116,1.97805019 L24.6683207,1.30649936 L24.6683207,1.30649936 Z" id="Shape"></path>
                    <path d="M26.5276216,0.536833977 L28.5971884,0.536833977 L28.5971884,1.32276705 L28.0860334,1.32276705 L28.0860334,4.98706564 L28.5971884,4.98706564 L28.5971884,5.71657014 L26.5276216,5.71657014 L26.5276216,4.98706564 L27.0387766,4.98706564 L27.0387766,1.32276705 L26.5276216,1.32276705 L26.5276216,0.536833977 L26.5276216,0.536833977 Z" id="Shape"></path>
                    <path d="M31.7471049,2.96783784 L33.6792097,2.96783784 L33.6792097,5.15685972 C33.3223176,5.52135779 32.6726824,5.83756113 31.7720517,5.83756113 C30.2945897,5.83756113 29.2631155,4.88081725 29.2631155,3.09696268 L29.2631155,3.08120335 C29.2631155,1.46815959 30.2782979,0.422451737 31.8204179,0.422451737 C32.6976292,0.422451737 33.2087842,0.665958816 33.4928723,0.925225225 L33.4928723,2.0766731 L32.5917325,2.0766731 L32.5917325,1.33903475 C32.3799392,1.29023166 32.1452356,1.25769627 31.893731,1.25769627 C30.936079,1.25769627 30.3511018,1.84943372 30.3511018,2.92005148 L30.3511018,3.19507722 C30.3511018,4.46802445 30.8943313,5.02722651 31.8611474,5.02722651 C32.1370897,5.02722651 32.404886,4.98655727 32.6487538,4.92199485 L32.6487538,3.75478764 L31.747614,3.75478764 L31.747614,2.9683462 L31.7471049,2.9683462 L31.7471049,2.96783784 Z" id="Shape"></path>
                    <path d="M37.7801596,0.536833977 L39.7367021,0.536833977 L39.7367021,1.32276705 L39.2739134,1.32276705 L39.2739134,5.71657014 L37.8697644,5.71657014 L35.8078343,1.46968468 L35.8078343,4.987574 L36.4737614,4.987574 L36.4737614,5.71707851 L34.4601976,5.71707851 L34.4601976,4.987574 L34.9234954,4.987574 L34.9234954,1.32327542 L34.4601976,1.32327542 L34.4601976,0.537342342 L36.4737614,0.537342342 L38.3900836,4.566139 L38.3900836,1.32378378 L37.7811778,1.32378378 L37.7801596,0.536833977 L37.7801596,0.536833977 Z" id="Shape"></path>
                </g>
            </g>
        </g>
    </g>
</svg>