<?xml version="1.0" encoding="UTF-8" standalone="no"?>
<svg width="61px" height="61px" viewBox="0 0 61 61" version="1.1" xmlns="http://www.w3.org/2000/svg" xmlns:xlink="http://www.w3.org/1999/xlink" xmlns:sketch="http://www.bohemiancoding.com/sketch/ns">
    <!-- Generator: Sketch 3.2.2 (9983) - http://www.bohemiancoding.com/sketch -->
    <title>fffound</title>
    <desc>Created with Sketch.</desc>
    <defs></defs>
    <g id="Page-1" stroke="none" stroke-width="1" fill="none" fill-rule="evenodd" sketch:type="MSPage">
        <g id="SVG_icons" sketch:type="MSLayerGroup" transform="translate(-357.000000, -353.000000)">
            <g id="fffound" transform="translate(357.992537, 353.333369)" sketch:type="MSShapeGroup">
                <rect id="Rectangle-8" fill="#FFFFFF" x="0" y="0" width="59.995872" height="59.995872" rx="2"></rect>
                <g id="Logo" transform="translate(9.122807, 7.368421)" fill="#000000">
                    <path d="M19.7337207,32.1852774 C18.0567136,32.504014 16.3793969,32.8230605 14.2575834,33.2263599 C14.3585631,34.8194236 14.4790573,36.7154266 14.5995516,38.6117393 C14.4335235,38.6303245 14.2674955,38.6486 14.1014675,38.667495 C13.9753977,38.1814913 13.8493279,37.6951778 13.7229483,37.2091741 C13.5940908,37.2197058 13.4655429,37.2302374 13.3366854,37.2410788 C13.3617754,37.7924405 13.3865557,38.344112 13.4110263,38.8821544 C14.3402877,38.9583538 15.0688286,39.0178265 15.7973695,39.0779188 C15.8026353,39.2092544 15.8075914,39.34059 15.8128572,39.4716158 C15.1053795,39.5230349 14.3982116,39.5744541 13.6733877,39.6271122 C13.6380758,41.2588952 14.5787981,41.4964764 15.9891071,41.103089 C15.9726901,41.2539391 15.9562732,41.4047892 15.940166,41.5553296 C15.3448192,41.6823286 14.7494724,41.8090179 14.0769969,41.9524339 C14.0317729,42.8637296 13.9853098,43.7994958 13.9388467,44.7349522 C13.7805626,44.7358815 13.6225881,44.736501 13.4639942,44.7374303 C13.4639942,43.8159127 13.6179418,42.8597028 13.4203189,41.9827898 C13.2248643,41.1157889 12.6676172,40.3321119 12.2825932,39.5056887 C12.0474901,39.0004803 11.6005154,38.4577917 11.6531735,37.9764343 C12.0766069,34.1079192 10.6715638,30.4045029 10.693866,26.5669631 C10.7016099,25.2266585 10.1576822,23.8730344 9.78659717,22.5469784 C9.69367103,22.2149224 9.35015408,21.8565372 9.02924915,21.6985628 C4.82867799,19.6290977 4.47617818,16.8571111 5.14152932,13.4541559 C5.66284495,10.7871758 7.51888967,8.56221429 10.3977414,7.5499389 C11.1835868,7.27332876 11.9616883,6.67209666 12.4882697,6.01541862 C14.800272,3.13068156 17.7175332,1.24768827 21.3208991,0.498084096 C22.6184577,0.22797879 24.0293862,-0.0644287885 25.2817208,0.186162028 C26.335813,0.397723868 27.2437013,1.36942151 28.1983625,2.0304361 C28.4892213,2.23208582 28.6812687,2.59759529 28.9866859,2.75495022 C32.0510802,4.33376529 31.7682749,7.23399003 31.8958935,9.98708173 C31.9525784,11.212158 31.7360605,12.5986159 32.2325959,13.627618 C33.8278279,16.9336202 32.6835974,19.3689045 30.2114524,21.5288177 C27.7758583,23.6568263 26.3788687,26.353233 25.7187834,29.480817 C25.6366987,29.8698678 25.4750072,30.2579893 25.275216,30.603055 C24.1867412,32.4838801 23.1546415,34.4059023 21.9304945,36.1956597 C21.4649346,36.8755693 20.5926679,37.5015817 19.8052738,37.6632732 C19.2179806,37.7843869 18.31288,37.2581152 17.8597102,36.7457825 C17.6391655,36.4964307 18.0220212,35.5572572 18.3212434,35.0402781 C18.7753424,34.256601 19.3945403,33.5680183 19.943424,32.8391676 C19.8737294,32.621101 19.803725,32.4033441 19.7337207,32.1852774 L19.7337207,32.1852774 Z M23.7998587,16.3742049 C20.8571977,16.6573199 20.1156471,18.750636 19.9985601,20.6611974 C19.8659855,22.8220398 20.557356,25.0333721 20.8903413,27.2230217 C21.0774326,27.2437752 21.2645239,27.2651482 21.4516152,27.2859017 C22.2284777,23.6744822 23.0059597,20.062753 23.7998587,16.3742049 L23.7998587,16.3742049 Z M14.4390991,31.4644803 C15.1100258,30.9456427 15.4300015,30.5423433 15.837018,30.4128662 C16.9772217,30.050764 16.9632828,29.3085939 16.761633,28.3477377 C16.1223012,25.2988311 15.5368665,22.2387734 14.8479741,18.7661237 C14.4902085,19.6625511 13.9781855,20.3427705 13.9915049,21.0127679 C14.0602702,24.3844379 14.265637,27.7530104 14.4390991,31.4644803 L14.4390991,31.4644803 Z" id="stangethin"></path>
                    <path d="M21.4212593,41.5503735 C23.5049731,42.854437 22.4174275,46.694145 25.9359208,46.2434532 C26.3776297,45.0955056 26.442678,44.081062 25.5388165,43.1394105 C25.3222986,42.9135999 25.2798623,42.4684837 25.2646843,42.119701 C25.2541527,41.875615 25.3752665,41.4614742 25.5279751,41.4140818 C25.7395369,41.3487238 26.2230626,41.5045299 26.2648793,41.65538 C26.5709161,42.7636791 26.9636839,43.8927317 26.9763838,45.0189965 C26.9828886,45.6013336 26.3748419,46.556924 25.8612701,46.7034376 C24.7752734,47.0135011 23.5762164,46.8926971 23.0335278,45.5375243 C22.5434973,44.3130676 22.0451034,43.0913986 21.4212593,41.5503735 L21.4212593,41.5503735 Z" id="U"></path>
                    <path d="M1.08209979,44.4583421 C1.20502857,44.9277823 1.32956088,45.3611851 1.33496494,45.8635725 C1.3436137,46.6676012 1.59263597,47.5447898 1.77717235,48.2493832 C1.61083456,48.3048292 1.50130273,48.1939373 1.33496494,48.2493832 C1.02985746,47.2182129 0.763308486,46.230347 0.538736988,45.1815207 C0.274826758,43.9508689 0.56553657,42.5527368 0.429244902,41.3010217 C0.416752758,41.1868078 -0.0643610984,40.7847156 0.012335516,40.6316817 C0.069992842,40.5166373 0.530194412,40.071089 0.745699707,40.0729852 C0.890371795,40.0742582 0.815710819,40.509654 0.843075967,40.5120788 C2.00341367,40.6139878 3.15538802,40.8069644 4.36435706,41.2966852 C3.39018139,41.3840357 2.41600572,41.4713863 1.33496499,41.5683392 C1.44523734,42.2256368 1.55055363,42.8535077 1.67848194,43.6167411 C2.53804871,43.5535513 3.38491557,43.4916005 4.23147269,43.42934 C4.24850914,43.5581976 4.2655456,43.6867454 4.28258206,43.815603 C3.439742,44.0085796 2.2021695,43.9123981 1.08209979,44.169184 L1.08209979,44.4583421 Z" id="F1"></path>
                    <path d="M6.02061058,47.7002253 C5.78581721,45.3008724 5.55102383,42.9018293 5.34658633,40.8109912 C6.43846845,40.8713932 7.43494639,40.9265294 8.94189858,41.0098531 C7.73478806,41.771228 6.87336277,42.3145361 6.01193748,42.8578443 C6.09650026,42.9956847 6.18075329,43.1335251 6.26562583,43.2713656 L8.08821714,43.2713656 C8.11082916,43.3723453 8.13344119,43.473325 8.15574346,43.5746145 C7.63535709,43.7582985 7.11497072,43.9419825 6.29505244,44.2312926 L6.29505244,47.7426615 C6.20367507,47.7281031 6.1122977,47.7141642 6.02061058,47.7002253 L6.02061058,47.7002253 Z" id="F2"></path>
                    <path d="M34.2315138,42.0758806 C34.139389,41.5296016 33.7442677,41.3279522 33.4942092,40.8018948 C33.4075191,40.6195217 33.6200392,40.1995922 33.4942092,40.0220155 C34.1018892,39.7360949 34.9803043,40.0742731 35.7095497,40.2444833 C36.6946747,40.4744172 37.5028409,40.7072221 37.8992317,41.5897122 C39.3748988,44.8731024 36.7020333,45.5080977 34.4272015,46.3193429 C34.1159317,45.0722787 34.4529105,43.3887115 34.2315138,42.0758806 Z M37.7412573,42.5022469 C37.5312442,41.3199167 36.431928,40.6158463 34.8676714,40.6418656 L34.8676714,45.4631834 C37.3927843,44.7238011 38.0135309,44.0373867 37.7412573,42.5022469 Z" id="D"></path>
                    <path d="M28.4721849,41.8855271 C28.5217455,42.8370908 28.487053,43.4095158 28.5994937,43.9512751 C28.6973759,44.4224107 28.9612861,44.8588538 29.1517847,45.3104748 C28.9702689,45.3603451 28.7884435,45.4105253 28.606618,45.4603956 C28.3046081,44.1851393 28.0029079,42.9098829 27.7005882,41.634007 C27.8446237,41.5358151 27.9889689,41.4370036 28.1330045,41.3385019 C29.4807432,42.2036443 30.8281722,43.0684768 32.2542786,43.9834895 C32.1672378,43.2630022 32.0755507,42.5031762 31.9838636,41.7433501 C32.1077651,41.7213576 32.2325959,41.6993651 32.3564974,41.6773726 C32.5906713,42.9191755 32.8248451,44.1609785 33.059019,45.4024717 C32.940693,45.4532713 32.8223671,45.5037611 32.7043509,45.5545608 C31.3671438,44.3954621 30.0302464,43.2363634 28.4721849,41.8855271 L28.4721849,41.8855271 Z" id="N"></path>
                    <path d="M21.0337573,43.5749243 C21.1115055,44.5782168 20.6766112,45.7531129 20.0979911,46.6009091 C19.9078023,46.879068 18.4364718,46.577058 17.7797937,46.1709708 C16.8808882,45.6149628 17.1784135,43.6338609 18.2445861,41.9193736 C18.1834552,42.3004328 18.6781845,41.4986023 18.8255225,41.9193736 C18.9723334,42.3386399 17.7595618,43.8587063 17.7912546,44.2303633 C17.8445323,44.8551367 18.1564544,45.5734557 18.595995,46.002155 C18.8298591,46.2301338 19.8774464,46.1037542 20.0323233,45.8348879 C20.3826549,45.225912 20.6936477,44.3319626 20.4904492,43.7344475 C20.2451242,43.0155089 19.4499862,42.4842812 18.8255225,41.797557 C20.2160073,41.56741 20.9547701,42.5564538 21.0337573,43.5749243 Z" id="O"></path>
                    <path d="M10.3156566,42.839259 C11.0454366,42.880766 11.6197201,42.9132902 12.1936939,42.9458143 C12.1918354,43.0551574 12.1896671,43.163881 12.1878086,43.2729143 C11.7135755,43.3289798 11.2393425,43.3847355 10.6585541,43.4535008 C10.753029,44.5980411 10.8481234,45.7475374 10.9425983,46.8967239 C10.8475039,46.9050873 10.7524095,46.9134506 10.6573151,46.921814 C10.1833918,44.9350532 9.70977823,42.9482924 9.2085966,40.8469227 C10.1858698,40.775989 11.239962,40.6991701 12.2940541,40.6226609 C12.3262685,40.7437746 12.3587927,40.8645786 12.3913168,40.9860021 C11.6172421,41.1938469 10.8431674,41.4016917 10.0167442,41.6237852 C10.1109094,42.0050921 10.2066233,42.3950721 10.3156566,42.839259 L10.3156566,42.839259 Z" id="F3"></path>
                    <path id="exclamationmark" d="M39.5672559,39.7017629 L39.5672559,44.6386188 C39.4668957,44.6398578 39.3668452,44.6410968 39.266485,44.6423359 L39.266485,39.7157018 C39.3668452,39.7107457 39.4668957,39.7064092 39.5672559,39.7017629 L39.5672559,39.7017629 Z"></path>
                    <circle id="Oval-2" cx="39.6491228" cy="46.6666667" r="0.350877193"></circle>
                </g>
            </g>
        </g>
    </g>
</svg>