<?xml version="1.0" encoding="UTF-8" standalone="no"?>
<svg width="61px" height="61px" viewBox="0 0 61 61" version="1.1" xmlns="http://www.w3.org/2000/svg" xmlns:xlink="http://www.w3.org/1999/xlink" xmlns:sketch="http://www.bohemiancoding.com/sketch/ns">
    <!-- Generator: Sketch 3.2.2 (9983) - http://www.bohemiancoding.com/sketch -->
    <title>github</title>
    <desc>Created with Sketch.</desc>
    <defs></defs>
    <g id="Page-1" stroke="none" stroke-width="1" fill="none" fill-rule="evenodd" sketch:type="MSPage">
        <g id="SVG_icons" sketch:type="MSLayerGroup" transform="translate(-536.000000, -356.000000)">
            <g id="github" transform="translate(536.365672, 356.962500)" sketch:type="MSShapeGroup">
                <rect id="Rectangle-9" fill="#000000" x="0" y="0" width="59.995872" height="59.995872" rx="2"></rect>
                <g id="Logo" transform="translate(6.315789, 7.017544)" fill="#FFFFFF">
                    <path d="M23.8922976,0.022063543 C10.825763,0.022063543 0.230142285,10.6381308 0.230142285,23.734749 C0.230142285,34.211808 7.01006998,43.1004819 16.4117682,46.2360209 C17.5943274,46.4555283 18.028481,45.7216119 18.028481,45.0952894 C18.028481,44.5298322 18.0065383,42.6618599 17.9963505,40.6804034 C11.413516,42.1148585 10.0244596,37.882568 10.0244596,37.882568 C8.9480878,35.1416711 7.39720334,34.4128595 7.39720334,34.4128595 C5.25033726,32.9410999 7.55903135,32.9713362 7.55903135,32.9713362 C9.93512114,33.1382246 11.1862515,35.4149754 11.1862515,35.4149754 C13.2966769,39.0401847 16.72171,37.9921254 18.0719748,37.3862222 C18.2843496,35.8539901 18.8975719,34.8071089 19.5742716,34.2153421 C14.3185836,33.6157219 8.79370466,31.5824318 8.79370466,22.4962406 C8.79370466,19.9073103 9.71804433,17.7919504 11.2317044,16.1313124 C10.9860236,15.5336555 10.1760999,13.1222159 11.4609281,9.85591492 C11.4609281,9.85591492 13.4479254,9.21859747 17.9697057,12.2865957 C19.8571768,11.7611917 21.8813984,11.4977043 23.8922976,11.4886727 C25.9031968,11.4977043 27.9289858,11.7611917 29.8199833,12.2865957 C34.336278,9.21859747 36.3205324,9.85591492 36.3205324,9.85591492 C37.6084953,13.1222159 36.7981797,15.5336555 36.5524989,16.1313124 C38.0696856,17.7919504 38.9877559,19.9073103 38.9877559,22.4962406 C38.9877559,31.6040291 33.4522974,33.609439 28.1832869,34.1964936 C29.0320024,34.9323734 29.7882447,36.3754674 29.7882447,38.5878189 C29.7882447,41.7602697 29.7608162,44.3138589 29.7608162,45.0952894 C29.7608162,45.726324 30.1867413,46.4657379 31.3861494,46.2328795 C40.7827538,43.0938064 47.5540611,34.2082739 47.5540611,23.734749 C47.5540611,10.6381308 36.9600077,0.022063543 23.8922976,0.022063543" id="Fill-51"></path>
                    <path d="M9.09238889,34.1944481 C9.04027479,34.3126444 8.85532848,34.3475928 8.68683927,34.266701 C8.51521537,34.1893433 8.41882386,34.0287377 8.47446449,33.9105414 C8.52540309,33.7892037 8.71074123,33.7558261 8.88197329,33.8363252 C9.05398903,33.9140756 9.15194787,34.0762518 9.09238889,34.1944481" id="Fill-52"></path>
                    <path d="M10.256304,35.2353037 C10.1434554,35.3401489 9.92285211,35.2914567 9.77317099,35.1257463 C9.61839601,34.9604286 9.5894002,34.7393505 9.70381613,34.6329346 C9.82019124,34.5280894 10.0341334,34.5771742 10.1893002,34.742492 C10.3440751,34.9097731 10.3742465,35.1292804 10.256304,35.2353037" id="Fill-53"></path>
                    <path d="M11.0547939,36.5669474 C10.9098148,36.6678658 10.6727544,36.5732303 10.526208,36.3623618 C10.3812289,36.1514934 10.3812289,35.8986083 10.5293426,35.7972973 C10.6762809,35.6959862 10.9098148,35.7870876 11.0583204,35.9963853 C11.2029077,36.2103952 11.2029077,36.4636729 11.0547939,36.5669474" id="Fill-54"></path>
                    <path d="M12.4052111,38.1091791 C12.2755136,38.2525068 11.9992696,38.2140243 11.7970826,38.0184704 C11.5901935,37.8272359 11.5325937,37.5558949 11.6626831,37.4125672 C11.7939479,37.2688468 12.0717592,37.3092927 12.2755136,37.503276 C12.4808353,37.6941178 12.543529,37.9674221 12.4052111,38.1091791" id="Fill-55"></path>
                    <path d="M14.1504943,38.6298191 C14.0932863,38.8155561 13.8272301,38.899982 13.5592147,38.8210536 C13.2915911,38.7397692 13.1164407,38.5222252 13.170514,38.3345248 C13.2261546,38.1476097 13.4933864,38.0596497 13.7633609,38.1440756 C14.0305927,38.2249674 14.2061349,38.4409407 14.1504943,38.6298191" id="Fill-56"></path>
                    <path d="M16.1366998,38.8506609 C16.143361,39.0462149 15.9160965,39.2083912 15.6347587,39.2115326 C15.3518535,39.2182082 15.1230217,39.0599587 15.119887,38.8675461 C15.119887,38.6700288 15.3420576,38.5094232 15.6249628,38.5047111 C15.9063006,38.4992136 16.1366998,38.656285 16.1366998,38.8506609" id="Fill-57"></path>
                    <path d="M18.0879242,38.7757053 C18.121622,38.9665471 17.9260962,39.1624938 17.6467175,39.2143274 C17.3720409,39.2649829 17.1177398,39.1471793 17.0828664,38.9579082 C17.0487767,38.7623543 17.2478291,38.5664076 17.5221139,38.5157521 C17.8018844,38.4670599 18.0522672,38.5817221 18.0879242,38.7757053" id="Fill-58"></path>
                </g>
            </g>
        </g>
    </g>
</svg>