<?xml version="1.0" encoding="UTF-8" standalone="no"?>
<svg width="61px" height="61px" viewBox="0 0 61 61" version="1.1" xmlns="http://www.w3.org/2000/svg" xmlns:xlink="http://www.w3.org/1999/xlink" xmlns:sketch="http://www.bohemiancoding.com/sketch/ns">
    <!-- Generator: Sketch 3.2.2 (9983) - http://www.bohemiancoding.com/sketch -->
    <title>growthHackers</title>
    <desc>Created with Sketch.</desc>
    <defs></defs>
    <g id="Page-1" stroke="none" stroke-width="1" fill="none" fill-rule="evenodd" sketch:type="MSPage">
        <g id="SVG_icons" sketch:type="MSLayerGroup" transform="translate(-1.000000, -551.000000)">
            <g id="growthHackers" transform="translate(1.246269, 551.058333)" sketch:type="MSShapeGroup">
                <rect id="Rectangle-9" fill="#00AD92" x="0" y="0" width="59.995872" height="59.995872" rx="2"></rect>
                <path d="M23.1810238,22.8705798 L32.2633978,22.8650973 L32.2633978,32.0794257 L40.9471359,32.0794257 L40.9471359,23.3233964 L46.13797,23.3233964 L46.13797,46.2691322 L41.172903,46.2691322 L41.172903,36.2922937 L32.2327476,36.2922937 L32.2327476,46.3222236 L27.269121,46.3222236 L27.269121,35.8299781 C27.269121,35.8299781 23.105979,36.2922939 20.9870204,35.8299794 C18.8680619,35.3676648 17.7231727,34.3273542 16.6209836,33.225165 C16.1349505,32.7391319 14.6352061,31.3229323 13.9344632,29.3428917 C13.1754738,27.1982679 13.2327089,24.4985266 13.2327089,24.4985266 C13.2327089,24.4985266 13.0784858,22.070365 13.9344633,19.8517357 C14.7904407,17.6331065 14.9014043,17.1467991 16.6209834,15.4272199 C18.3405626,13.7076408 20.2388724,13.2966057 20.7208855,13.0653134 C21.2028986,12.8340212 22.5345757,12.3635591 24.9533991,12.3635591 C27.3722225,12.3635591 28.4984743,12.7428067 29.7927765,13.0653134 C31.0870786,13.3878202 32.1367873,14.5043517 32.1367873,14.5043517 L30.3532758,17.752707 L28.3996368,16.7881373 C28.3996368,16.7881373 26.3330931,16.3204152 25.2998215,16.3204152 C24.3668813,16.3204152 22.5010014,16.7881373 22.5010014,16.7881373 C22.5010014,16.7881373 21.2964063,17.3150352 20.2784284,18.3115751 C19.3825277,19.1886087 18.6678387,20.5021402 18.5356702,21.1280156 C18.2533237,22.4650496 17.5628922,25.8928259 18.8279537,28.1666327 C20.0930152,30.4404395 21.1213439,31.1835487 22.1136615,31.631487 C23.105979,32.0794252 27.1795805,31.631487 27.1795805,31.631487 L27.1795805,26.825827 L23.1059793,26.825827 L23.1810238,22.8705798 Z" id="Path-83" fill="#FFFFFF"></path>
            </g>
        </g>
    </g>
</svg>