<?xml version="1.0" encoding="UTF-8" standalone="no"?>
<svg width="61px" height="61px" viewBox="0 0 61 61" version="1.1" xmlns="http://www.w3.org/2000/svg" xmlns:xlink="http://www.w3.org/1999/xlink" xmlns:sketch="http://www.bohemiancoding.com/sketch/ns">
    <!-- Generator: Sketch 3.2.2 (9983) - http://www.bohemiancoding.com/sketch -->
    <title>inbound</title>
    <desc>Created with Sketch.</desc>
    <defs></defs>
    <g id="Page-1" stroke="none" stroke-width="1" fill="none" fill-rule="evenodd" sketch:type="MSPage">
        <g id="SVG_icons" sketch:type="MSLayerGroup" transform="translate(-363.000000, -551.000000)">
            <g id="inbound" transform="translate(363.238806, 551.058333)" sketch:type="MSShapeGroup">
                <rect id="Rectangle-9" fill="#2B3B42" x="0" y="0" width="59.995872" height="59.995896" rx="2"></rect>
                <path d="M10.8383187,29.2629792 C10.8383187,29.2629792 10.4461349,36.2894599 11.1297286,38.2523506 C11.8133224,40.2152412 14.3684891,44.6392396 19.3880208,44.9421727 C24.4075524,45.2451058 25.5033362,44.3910191 26.1768135,44.0292513 C30.8647523,41.5110655 32.9731026,36.4280976 36.6120862,32.8081181 C38.1342587,31.293894 40.2612131,29.5932854 42.5029588,30.5415712 C46.4877019,32.2271633 47.3204337,37.5433612 42.9783037,39.4149386 C39.8226806,40.7751062 35.5341977,36.6064453 35.5341977,36.6064453 L32.2077161,41.0973837 C32.2077161,41.0973837 35.2744962,44.2461981 39.1783161,44.9421727 C43.7753813,45.7617394 49.1425898,43.4349065 50.6548101,39.7878815 C53.4512054,33.043809 49.7312154,27.2049608 45.9684196,25.6593558 C38.8802538,22.7478468 33.8658395,27.4130958 29.8125681,32.808118 C27.7718556,35.5243124 25.0483951,39.5131696 21.2289119,39.5973819 C15.5691558,39.7222036 15.121915,30.8629049 20.7345176,30.4345598 C23.1678461,30.2488738 25.2430871,32.4020774 27.1220527,33.6498456 C28.3395062,31.9841996 30.5556122,29.2629792 30.5556122,29.2629792 C30.5556122,29.2629792 28.6694948,27.2917552 25.3902819,25.886344 C22.930188,24.8319924 19.3145216,24.2918786 16.6318876,25.9755308 L16.6318876,14.6511628 L10.8383187,14.6511628 L10.8383187,29.2629792 Z" id="Shape-2" fill="#FFFFFF"></path>
            </g>
        </g>
    </g>
</svg>