<?xml version="1.0" encoding="UTF-8" standalone="no"?>
<svg width="61px" height="61px" viewBox="0 0 61 61" version="1.1" xmlns="http://www.w3.org/2000/svg" xmlns:xlink="http://www.w3.org/1999/xlink" xmlns:sketch="http://www.bohemiancoding.com/sketch/ns">
    <!-- Generator: Sketch 3.2.2 (9983) - http://www.bohemiancoding.com/sketch -->
    <title>lobsters</title>
    <desc>Created with Sketch.</desc>
    <defs></defs>
    <g id="Page-1" stroke="none" stroke-width="1" fill="none" fill-rule="evenodd" sketch:type="MSPage">
        <g id="SVG_icons" sketch:type="MSLayerGroup" transform="translate(-541.000000, -551.000000)">
            <g id="lobsters" transform="translate(541.611940, 551.058333)" sketch:type="MSShapeGroup">
                <rect id="Rectangle-9" fill="#AD0E00" x="0" y="0" width="59.995872" height="59.995896" rx="2"></rect>
                <path d="M16.1948328,14.9431096 L31.2911199,14.9431096 L31.2911199,17.2495477 C31.2911199,17.2495477 29.0902549,16.8329499 27.9615542,17.4507177 C26.8328535,18.0684854 26.9462719,20.15625 26.9462719,20.15625 L26.9462719,38.7529109 C26.9462719,38.7529109 26.9529706,40.7428173 27.3934347,41.3910338 C27.8062921,41.9986224 28.5382401,42.3193359 29.5062363,42.5203261 C30.4742325,42.7213163 35.2347177,42.4290289 35.2347177,42.4290289 C35.2347177,42.4290289 37.7222121,41.8875477 39.2968763,40.0372456 C40.8701686,38.1869436 41.3764391,34.770962 41.3764391,34.770962 L43.1409645,34.770962 L43.1409645,45.0877269 L16.4742178,45.0877269 L16.4634717,42.6681731 C16.4634717,42.6681731 18.8464123,42.7828216 19.4937294,42.6681731 C19.6131169,42.647028 20.2546358,42.2090539 20.5141515,41.3910338 C20.8604057,40.2996054 20.8233963,38.7529098 20.8233963,38.7529098 L20.8233963,20.15625 C20.8233963,20.15625 20.8233963,18.260129 20.3029056,17.7230764 C19.7824149,17.1860238 17.7472078,17.0618743 17.7472078,17.0618743 L16.1125945,17.0618743 L16.1948328,14.9431096 Z" id="Path-86" fill="#FFFFFF"></path>
            </g>
        </g>
    </g>
</svg>