<?xml version="1.0" encoding="UTF-8" standalone="no"?>
<svg width="61px" height="61px" viewBox="0 0 61 61" version="1.1" xmlns="http://www.w3.org/2000/svg" xmlns:xlink="http://www.w3.org/1999/xlink" xmlns:sketch="http://www.bohemiancoding.com/sketch/ns">
    <!-- Generator: Sketch 3.2.2 (9983) - http://www.bohemiancoding.com/sketch -->
    <title>ptttrns</title>
    <desc>Created with Sketch.</desc>
    <defs></defs>
    <g id="Page-1" stroke="none" stroke-width="1" fill="none" fill-rule="evenodd" sketch:type="MSPage">
        <g id="SVG_icons" sketch:type="MSLayerGroup" transform="translate(-357.000000, -733.000000)">
            <g id="ptttrns" transform="translate(357.992537, 733.628609)" sketch:type="MSShapeGroup">
                <rect id="Rectangle-9" fill="#FFFFFF" x="0" y="0" width="59.995872" height="59.995896" rx="2"></rect>
                <path d="M26.4348564,35.2199528 C26.4348564,35.2199528 27.0811063,37.1807143 27.9701201,37.9818646 C28.859134,38.7830149 30.0688729,39.7972489 31.5008219,40.0151027 C32.9327709,40.2329565 36.2070393,40.5873216 38.4947226,39.3446803 C44.2428785,36.222353 43.9192717,29.2625106 43.9192717,24.3692088 C43.9192717,19.7899566 43.7951831,15.5809145 41.3058534,12.916856 C40.0454815,11.5680173 38.3011622,10.225972 35.4101558,10.225972 C35.4101558,10.225972 33.7676251,10.0011136 32.166255,10.225972 C31.1330532,10.3710504 30.1635186,10.8824773 29.5076064,11.1627907 C28.3131419,11.673262 26.4583335,13.9017078 26.4583335,13.9017078 L26.4583335,11.1627907 L16.5724191,11.1627907 L16.5724191,49.1860465 L26.4348563,49.1860465 L26.4348564,35.2199528 Z M34.5839397,29.8439772 C34.5839397,29.8439772 34.4903953,32.7787746 30.6897616,32.7787746 C26.8891278,32.7787746 26.4348563,29.8439772 26.4348563,29.8439772 L26.4348563,19.7137478 C26.4348563,19.7137478 27.7593887,17.2364417 30.6897616,17.2364417 C33.6201344,17.2364417 34.5839397,19.7137478 34.5839397,19.7137478 L34.5839397,29.8439772 Z" id="P" fill="#EA2121"></path>
            </g>
        </g>
    </g>
</svg>