<?xml version="1.0" encoding="UTF-8" standalone="no"?>
<svg width="61px" height="61px" viewBox="0 0 61 61" version="1.1" xmlns="http://www.w3.org/2000/svg" xmlns:xlink="http://www.w3.org/1999/xlink" xmlns:sketch="http://www.bohemiancoding.com/sketch/ns">
    <!-- Generator: Sketch 3.2.2 (9983) - http://www.bohemiancoding.com/sketch -->
    <title>recode</title>
    <desc>Created with Sketch.</desc>
    <defs></defs>
    <g id="Page-1" stroke="none" stroke-width="1" fill="none" fill-rule="evenodd" sketch:type="MSPage">
        <g id="SVG_icons" sketch:type="MSLayerGroup" transform="translate(-536.000000, -733.000000)">
            <g id="recode" transform="translate(536.365672, 733.628609)" sketch:type="MSShapeGroup">
                <rect id="Rectangle-10" fill="#C5001D" x="0" y="0.346820809" width="59.995872" height="59.6490989" rx="2"></rect>
                <g id="&lt;re/" transform="translate(4.912281, 16.300578)">
                    <path d="M0,8.75840411 C0.140124868,8.64952004 0.293767665,8.55416332 0.418616176,8.4295343 C1.79711518,7.05406901 3.17077849,5.67361413 4.54663985,4.29548772 C4.68643501,4.1554464 4.83172527,4.02094907 5.09636894,3.76692319 C5.09636894,4.64254184 5.06098054,5.38610252 5.10768883,6.12423008 C5.14461586,6.70779105 4.98174131,7.13600926 4.53553976,7.51965375 C4.06779746,7.92192607 3.66555666,8.4019252 3.20594709,8.87771089 C3.72962944,9.40062055 4.26693962,9.89969103 4.75457417,10.4440005 C4.92997753,10.6399253 5.06911328,10.9406316 5.08120249,11.2004233 C5.12142657,12.0635125 5.09647884,12.9298172 5.09647884,13.9543476 C3.33233423,12.1943508 1.66622206,10.5317065 0,8.86928402 L0,8.75840411 L0,8.75840411 Z" id="lt" fill="#FFFFFF"></path>
                    <path d="M13.7231153,3.93534977 C13.4157198,4.838134 13.1264581,5.6881394 12.8351082,6.54391054 C12.5366148,6.37892124 12.2829613,6.18953835 11.9984254,6.09030083 C10.9683153,5.73093904 9.94216165,6.38191499 9.88479288,7.511116 C9.80983981,8.98471001 9.8445688,10.4640698 9.83555685,11.9408793 C9.83127068,12.6376486 9.83478753,13.3345289 9.83478753,14.0495934 L7.30231903,14.0495934 L7.30231903,3.8066182 L9.7437888,3.8066182 C9.76038398,4.05099752 9.77730886,4.29970116 9.79049709,4.49529332 C10.3966058,4.23949337 10.998868,3.91051267 11.6422335,3.7343245 C12.3145031,3.55037473 13.0165562,3.60592556 13.7231153,3.93534977 L13.7231153,3.93534977 Z" id="r" fill="#000000"></path>
                    <path d="M21.3850332,11.0414215 C21.0375235,12.0736025 20.7419974,12.9771629 20.4204246,13.8711877 C20.3849263,13.9698708 20.2077645,14.0523654 20.0834655,14.0772025 C19.1312758,14.2674725 18.1874386,14.1880824 17.2649224,13.9083324 C16.0254493,13.5321169 15.165687,12.7120491 14.7456421,11.4852737 C14.1731634,9.81364822 14.1432701,8.10986752 14.7417956,6.44123575 C15.3375735,4.78025469 16.5437464,3.81981291 18.2993187,3.67123383 C20.2126001,3.50934916 21.7421043,4.16276447 22.6801167,5.95181182 C22.8627735,6.3001965 22.907064,6.61675864 22.7607846,7.00029225 C22.4727319,7.75527356 22.2167704,8.52411486 21.9856468,9.29883279 C21.8821193,9.64599779 21.7106724,9.74989227 21.3621736,9.74468091 C20.0813773,9.72527693 18.8001415,9.7370302 17.5190155,9.7370302 L16.9033453,9.7370302 C16.9067523,10.5988997 17.1706266,11.2808112 17.8874065,11.6458279 C19.1118231,12.2694165 20.2501866,11.9944343 21.3850332,11.0414215 L21.3850332,11.0414215 Z M20.6739681,7.88455954 C20.6509987,7.08877442 20.4259197,6.43103479 19.7358459,6.0540431 C19.0448929,5.676497 18.3194307,5.69268547 17.6714494,6.16359245 C17.1046855,6.57528956 16.8887284,7.17226699 16.9251059,7.88455954 L20.6739681,7.88455954 L20.6739681,7.88455954 Z" id="e1" fill="#000000"></path>
                    <path d="M29.8895686,0 C28.1101476,5.28154276 26.3167691,10.5584286 24.5698791,15.8508376 C24.3635933,16.4759785 24.1020269,16.7067196 23.4676734,16.6346477 C22.9638833,16.5773227 22.4485534,16.6231161 21.8642053,16.6231161 C23.7473736,11.0404235 25.6096606,5.52026721 27.4720575,0 L29.8895686,0 L29.8895686,0 Z" id="slash" fill="#000000"></path>
                </g>
                <g id="code" transform="translate(10.175439, 29.479769)" fill="#FFFFFF">
                    <path d="M7.16648769,4.29582036 C6.88733698,5.12364977 6.62972702,5.88783411 6.34892778,6.720764 C6.16451246,6.57772892 6.01614495,6.45642629 5.86151304,6.34366142 C4.79590463,5.56672589 3.35487147,5.97298988 2.9248255,7.22072151 C2.54192743,8.33151646 2.54434527,9.48488928 2.93152951,10.5941319 C3.36498244,11.835876 4.81118098,12.2343784 5.86975568,11.4522315 C6.01394691,11.3455651 6.14835689,11.2252604 6.34090494,11.0671456 C6.61906654,11.8877678 6.88162208,12.6628184 7.16198172,13.4897608 C5.69105526,14.299295 4.20573165,14.3597245 2.70700002,13.7354706 C1.2979483,13.1486942 0.598313075,11.9697081 0.298610709,10.5180683 C0.268277796,10.3708198 0.337406065,10.1930793 0.389059938,10.0393997 C0.993959762,8.24037317 1.59105655,6.43835287 2.22837743,4.65107959 C2.31871675,4.39782988 2.57357916,4.11575139 2.8181108,4.0218361 C4.273651,3.46244696 5.70984847,3.52487235 7.16648769,4.29582036 L7.16648769,4.29582036 Z" id="c"></path>
                    <path d="M8.28770645,8.84522308 C8.32738102,8.33195998 8.33661277,7.75604972 8.42167681,7.19167098 C8.78556186,4.77615213 10.8286374,3.32551027 13.3034074,3.70372164 C15.3960487,4.0234993 16.6962976,5.38976156 16.8521384,7.5155512 C16.9180795,8.41423287 16.9217063,9.32577661 16.8568642,10.2244583 C16.6794826,12.6801157 14.9261084,14.2281101 12.4882653,14.1409585 C10.0953722,14.0553592 8.56850569,12.5848698 8.37551803,10.1767799 C8.34155836,9.75377306 8.31924828,9.32954653 8.28770645,8.84522308 L8.28770645,8.84522308 Z M10.8037996,8.89556256 C10.878313,9.47624065 10.9035905,10.0712222 11.039649,10.6393709 C11.227691,11.4244007 11.8230294,11.8415309 12.607399,11.8440811 C13.4011102,11.8467423 14.0091972,11.4410327 14.2010858,10.6681997 C14.4893584,9.50817406 14.4910069,8.32486366 14.2096581,7.16361836 C14.0135932,6.3537515 13.4216618,5.96201277 12.5816819,5.97177021 C11.7862123,5.981195 11.2224158,6.38623931 11.0316261,7.18923162 C10.900733,7.73975037 10.877214,8.31621503 10.8037996,8.89556256 L10.8037996,8.89556256 Z" id="o"></path>
                    <path d="M27.4020573,0 L27.4020573,13.988166 L24.9755342,13.988166 C24.9559717,13.7428996 24.9364092,13.4964136 24.9146486,13.2246469 C24.8480481,13.2379525 24.786503,13.2311888 24.7582582,13.2587979 C23.8711304,14.1261006 22.7916744,14.2571606 21.6419911,14.0674451 C20.2185422,13.8324906 19.2381077,12.9361374 19.0824867,11.4241789 C18.9247775,9.89170767 18.8368561,8.31554975 19.0110505,6.79261418 C19.3563621,3.77501742 22.3806415,2.64670346 24.8747542,4.61637418 L24.8747542,0.00011087991 C25.717042,0 26.5596596,0 27.4020573,0 L27.4020573,0 Z M21.3826227,8.84411428 C21.4477945,9.42567941 21.4690055,10.03818 21.5944036,10.628172 C21.7646415,11.4307208 22.2853565,11.8189114 23.0763202,11.8444138 C23.9022327,11.8709141 24.462952,11.5073388 24.6724249,10.7032377 C24.9841066,9.5079523 24.9852056,8.29093441 24.6753922,7.09542722 C24.4652599,6.28467331 23.93883,5.95269886 23.0750014,5.97099405 C22.2733772,5.98795867 21.7692574,6.36339805 21.5906669,7.17282139 C21.4726323,7.70826048 21.4510915,8.26521027 21.3826227,8.84411428 L21.3826227,8.84411428 Z" id="d"></path>
                    <path d="M38.2726699,9.71296926 L31.8831957,9.71296926 C31.8970433,10.6095442 32.1725673,11.3305963 32.9385832,11.6895145 C34.1968496,12.2795065 35.3602706,12.0147253 36.3871936,11.0545053 C36.8553755,11.5806305 37.3143257,12.0963329 37.80218,12.6446341 C36.834714,13.7601969 35.4679745,14.1874172 33.9200068,14.1392953 C31.2699433,14.0572441 29.7967089,12.7791314 29.4797519,10.123114 C29.3596292,9.11676798 29.4038098,8.04400485 29.6136124,7.05340373 C30.1026757,4.74455136 31.8600064,3.51555843 34.202015,3.67212087 C36.3323526,3.81460155 37.8925193,5.33786976 38.1604601,7.57842011 C38.2406884,8.25057412 38.2342042,8.93292909 38.2726699,9.71296926 L38.2726699,9.71296926 Z M31.9356189,7.90584848 L35.7084397,7.90584848 C35.6433778,6.51419473 34.8504359,5.70488226 33.6764643,5.78438316 C32.5785447,5.8586727 31.8471479,6.74194206 31.9356189,7.90584848 L31.9356189,7.90584848 Z" id="e2"></path>
                    <path d="M44.9122807,8.8666229 C43.3450802,10.4784842 41.7231486,12.1467833 40.0310996,13.8870435 C40.0310996,12.8533101 40.0185708,11.8863264 40.0441779,10.9204515 C40.0482443,10.769433 40.2074921,10.605109 40.3271752,10.4779298 C40.8411862,9.93151356 41.3670666,9.39673975 41.9182244,8.82726053 C41.386739,8.295924 40.852616,7.77101851 40.3310218,7.23380534 C40.2095802,7.10873281 40.0490136,6.9442979 40.0450571,6.79427738 C40.0191203,5.82651752 40.031759,4.85775975 40.031759,3.84930696 C41.7143564,5.57925532 43.346399,7.25686837 44.9122807,8.8666229 L44.9122807,8.8666229 Z" id="gt"></path>
                </g>
            </g>
        </g>
    </g>
</svg>