<?xml version="1.0" encoding="UTF-8" standalone="no"?>
<svg width="61px" height="61px" viewBox="0 0 61 61" version="1.1" xmlns="http://www.w3.org/2000/svg" xmlns:xlink="http://www.w3.org/1999/xlink" xmlns:sketch="http://www.bohemiancoding.com/sketch/ns">
    <!-- Generator: Sketch 3.2.2 (9983) - http://www.bohemiancoding.com/sketch -->
    <title>smashing</title>
    <desc>Created with Sketch.</desc>
    <defs></defs>
    <g id="Page-1" stroke="none" stroke-width="1" fill="none" fill-rule="evenodd" sketch:type="MSPage">
        <g id="SVG_icons" sketch:type="MSLayerGroup" transform="translate(-363.000000, -918.000000)">
            <g id="smashing" transform="translate(363.238806, 918.266667)" sketch:type="MSShapeGroup">
                <rect id="Rectangle-11" fill="#FFFFFF" x="0" y="0.355029586" width="60" height="59.6449704" rx="2"></rect>
                <g id="Group" transform="translate(7.142857, 7.455621)" fill="#F04E36">
                    <path d="M24.8127085,27.5974831 C22.2695181,26.4348169 20.3334421,25.4978315 17.7858195,24.3491704 C10.7048269,21.1562531 6.08459384,13.969153 11.2361911,5.31997385 L3.69589694,6.97269644 C1.29238387,7.49880074 -0.211141457,9.80026352 0.338070145,12.1115908 L7.5443038,42.5272396 C8.09351541,44.8385668 10.279726,45.7807793 12.6872913,45.2543096 L16.4562994,44.3634419 C16.4562994,44.3456615 15.1407302,43.9234222 15.1407302,43.9073468 C12.0406675,43.1130374 11.1549334,42.3405759 9.06040728,41.4469293 C10.2945821,38.6276435 11.4509637,36.3329115 12.6872913,33.5052226 C13.4724221,33.9549687 14.7956901,35.0068964 15.3637701,35.3145213 C18.7005757,37.1098523 25.7800285,38.4822243 27.9354415,34.9657325 C30.0908544,31.4492407 25.8732681,28.0816939 24.8127085,27.5974831 Z" id="Shape"></path>
                    <path d="M38.243757,2.32710791 C37.5080218,0.0473257031 34.9293736,0.0800896869 33.2838658,0.382939636 L30.8686175,0.794656068 C30.8727964,0.796604603 28.4723773,1.33378791 28.4723773,1.33378791 C30.6607392,2.01869778 34.470345,3.22313818 36.2890623,3.92205313 C36.2890623,3.92205313 34.512213,8.97435275 33.5641044,11.6192447 C29.9009487,8.39034772 24.7680096,8.82075124 22.2902135,9.15865356 C20.6173353,9.3867875 19.2663574,10.6870065 19.2663574,13.0738602 C19.2663574,15.4607139 20.9837506,16.0506461 22.5039916,16.9965378 C23.62103,17.6892418 23.2676479,17.4512294 26.6807338,18.8909368 C30.0938198,20.3306441 30.9927804,20.4845827 33.5641044,22.1217407 C39.812318,26.0999684 40.0599889,33.9856745 36.814488,39.543413 L43.086145,38.1165481 C45.970632,37.2703049 45.9240342,33.8686191 45.3768487,31.5572919 L38.243757,2.32710791 Z" id="Shape"></path>
                </g>
                <path d="M15.8624429,17.0800089 C16.1287124,15.9413119 17.3084164,13.4911243 17.3084164,13.4911243 C17.3084164,13.4911243 14.3213076,14.0603721 12.8936932,14.4661762 C11.7275519,14.7976558 9.52714958,15.7029755 9.52714958,15.7029755 C9.52714958,15.7029755 8.57671584,16.5456878 8.27595562,17.0800089 C7.9985393,17.5728581 7.79261998,18.7844865 7.79261998,18.7844865 L11.6310713,36.5777552 C11.6310713,36.5777552 14.2477059,33.8896351 15.5256541,32.9574955 C17.2754441,31.6811929 20.7142857,29.9524286 20.7142857,29.9524286 C20.7142857,29.9524286 17.8912415,27.2937803 16.9454105,25.6828276 C16.1616976,24.3479966 15.5256541,21.1150774 15.5256541,21.1150774 C15.5256541,21.1150774 15.5344583,18.4826297 15.8624429,17.0800089 Z" id="Path-110" fill="#F3713C"></path>
                <path d="M36.5890941,9.08515163 L41.0675921,8.11107387 C41.0675921,8.11107387 42.8435543,8.21815762 43.3905024,8.54307276 C44.0914617,8.95947835 44.8113142,10.3350361 44.8113142,10.3350361 L47.7854701,22.9079026 C47.7854701,22.9079026 46.1917607,25.7406967 45.2873879,26.8986918 C44.2460761,28.232029 41.9484166,30.3818995 41.9484166,30.3818995 C41.9484166,30.3818995 39.7593825,28.9400441 38.3025251,28.2127173 C36.9649606,27.5449466 33.5651507,26.1966069 33.5651507,26.1966069 C33.5651507,26.1966069 31.0397422,25.2034696 29.839216,24.5688968 C28.9793697,24.1144002 27.3840332,22.9293986 27.3840332,22.9293986 C27.3840332,22.9293986 26.4882987,22.1531181 26.4882987,21.1649986 C26.4882987,20.9934541 26.4505259,20.532753 26.4882987,20.0557045 C26.5403913,19.3978041 26.6727121,18.7092617 26.6727121,18.7092617 C26.6727121,18.7092617 27.3989872,17.4604963 28.0232457,17.0880524 C28.7032213,16.6823667 31.0398647,16.4131842 31.0398647,16.4131842 C31.0398647,16.4131842 33.3434385,16.4074014 34.3636651,16.5171967 C35.4337473,16.6323575 37.310791,17.0880524 37.310791,17.0880524 C37.310791,17.0880524 38.5248606,17.5961933 39.123709,17.9411289 C39.6866793,18.2653987 40.7343396,19.1379669 40.7343396,19.1379669 L43.3905024,11.3787156 L36.5890941,9.08515163 Z" id="Path-111" fill="#F3713C"></path>
            </g>
        </g>
    </g>
</svg>