<?xml version="1.0" encoding="UTF-8" standalone="no"?>
<svg width="61px" height="60px" viewBox="0 0 61 60" version="1.1" xmlns="http://www.w3.org/2000/svg" xmlns:xlink="http://www.w3.org/1999/xlink" xmlns:sketch="http://www.bohemiancoding.com/sketch/ns">
    <!-- Generator: Sketch 3.2.2 (9983) - http://www.bohemiancoding.com/sketch -->
    <title>swissMiss</title>
    <desc>Created with Sketch.</desc>
    <defs></defs>
    <g id="Page-1" stroke="none" stroke-width="1" fill="none" fill-rule="evenodd" sketch:type="MSPage">
        <g id="SVG_icons" sketch:type="MSLayerGroup" transform="translate(-536.000000, -913.000000)">
            <g id="swissMiss" transform="translate(536.365672, 913.020833)" sketch:type="MSShapeGroup">
                <rect id="Rectangle-12" fill="#FFFFFF" x="0" y="0.14158918" width="60" height="59.6449704" rx="2"></rect>
                <g id="Group" transform="translate(7.142857, 18.462619)" fill="#E52F2C">
                    <path d="M0.387409201,7.94812682 L0,7.94812682 C0,10.8877706 2.36828087,11.9869384 5.03631961,11.7447144 C6.47111864,11.6144426 7.99943826,11.1706076 8.4466247,9.59590921 L8.52292494,8.52969708 C8.50881356,5.60050217 4.89572881,5.91988117 2.90556901,5.23368643 C1.93761743,4.89994264 0.805569007,4.14580111 0.777133172,3.00485719 C0.746188862,1.76292361 2.17098305,0.732138794 3.29297821,0.578130267 C5.20175303,0.316123174 7.48708959,1.26161974 7.74818402,3.39249316 L8.13559322,3.39249316 C8.13528329,0.560440839 5.17972881,-0.273545834 2.80871671,0.318906957 C1.78646005,0.574341337 0.756038741,0.871987055 0.364989831,2.03549589 L0.290556901,3.00477965 C0.295191283,6.00993732 3.94122034,5.7191522 6.00484262,6.47715148 C6.86881356,6.79449498 8.02628571,7.57094943 7.9927845,8.62662545 C7.94553027,10.1153484 6.72242131,10.9077379 5.42372881,11.2548384 C3.24441646,11.837281 0.415191283,10.4353089 0.387409201,7.94812682 L0.387409201,7.94812682 Z" id="Shape"></path>
                    <path d="M27.6029056,7.94812682 L27.1186441,7.94812682 C27.2491041,10.9893515 29.7742373,12.1100374 32.5423729,11.6739567 C33.7876998,11.4777736 35.2039709,11.109155 35.5729782,9.69283759 L35.6416465,8.62662545 C35.6416465,5.52215497 32.0907506,6.04067331 30.0242131,5.15994332 C29.1251332,4.77676606 28.0760291,4.21119868 27.9997094,3.10170803 C27.9096368,1.79245768 29.3144794,0.705386563 30.5084746,0.574763945 C32.425569,0.365040018 34.5842131,1.2937418 34.8668281,3.39249316 L35.3510896,3.39249316 C35.2405811,2.51744316 35.156707,1.66314554 34.4427119,1.04429663 C32.7067312,-0.46038943 27.9072155,-0.358222076 27.4343826,2.4232094 C26.822954,6.01960108 31.1309443,5.55480044 33.220339,6.51118303 C34.1042131,6.91576208 35.0611138,7.43113994 35.148184,8.52969708 C35.3046005,10.5020926 32.9709443,11.6228754 31.2870702,11.4250446 C29.1920581,11.1788465 27.9715254,9.93554624 27.6029056,7.94812682 L27.6029056,7.94812682 Z" id="Shape"></path>
                    <path d="M37.5786925,7.94812682 L37.094431,7.94812682 C37.288523,8.99450741 37.2584019,10.0553497 38.1688136,10.8104218 C39.8840678,12.2329426 43.8872639,12.4125509 45.2441646,10.3712393 C45.6710896,9.72899187 45.6667312,8.69750917 45.6122034,7.9519458 C45.4422276,5.62694423 41.3178692,5.62834969 39.7094431,5.05329303 C38.7689104,4.7170291 37.8557869,3.88187483 37.9839225,2.8109229 C38.408523,-0.737540613 44.5727845,0.11236325 44.842615,3.39249316 L45.3268765,3.39249316 C45.3195157,0.712985747 43.0847458,0.193004751 40.8716707,0.193856752 C39.6158838,0.194338486 37.9435351,0.653275929 37.5316223,2.03549589 L37.4818402,3.00477965 C37.4830024,6.0925203 41.0242131,5.60651173 43.0992736,6.46578178 C44.0836804,6.87341407 45.1508959,7.5003565 45.120678,8.72355383 C45.0849395,10.17273 43.9434383,10.8297105 42.7118644,11.212093 C40.5307506,11.8893315 37.5873123,10.463612 37.5786925,7.94812682 L37.5786925,7.94812682 Z" id="Shape"></path>
                    <path id="Shape" d="M24.7941889,0.387713503 L24.7941889,11.4375484 L25.2784504,11.4375484 L25.2784504,0.387713503 L24.7941889,0.387713503 L24.7941889,0.387713503 Z"></path>
                </g>
                <g id="Group" transform="translate(16.828087, 16.966380)">
                    <path d="M18.0145278,21.7542701 L17.6271186,21.7542701 C17.6349637,24.6159834 19.8760291,25.4365791 22.3728814,25.4375484 C23.7286199,25.438033 25.4982082,24.8970757 25.8877482,23.4020525 L25.9564165,22.3358403 C25.952155,19.5642703 22.6749637,19.7063673 20.7263923,19.0851534 C19.7330751,18.7684884 18.50954,18.0932853 18.4125908,16.9079482 C18.3139952,15.7033223 19.7615496,14.6517464 20.8246973,14.4733982 C22.7327845,14.1533407 24.9009201,15.1143855 25.1815981,17.1986364 L25.6658596,17.1986364 C25.5572881,14.6692904 23.4777724,14.096056 21.3075061,14.0969284 C19.9192252,14.0975099 18.3556416,14.6438952 17.9656174,16.1324243 C17.0680872,19.5581639 21.4436804,19.5425584 23.535109,20.2722352 C24.4035835,20.5752333 25.6194673,21.3658781 25.5570944,22.4331564 C25.4975303,23.4533276 24.6456174,24.1964774 23.8256659,24.6655138 C21.6431961,25.9138544 18.0953027,24.4656475 18.0145278,21.7542701 L18.0145278,21.7542701 Z" id="Shape" fill="#201C1D"></path>
                    <path d="M27.8934625,21.7542701 L27.5060533,21.7542701 C27.5060533,22.4929612 27.5020823,23.2385343 27.9189346,23.8863066 C28.9372397,25.4687593 31.7627119,25.894081 33.4136562,25.2597817 C34.4132688,24.8757515 35.3373366,24.5589896 35.6378692,23.4020525 L35.8160775,22.2389119 C35.5728814,19.6710854 32.6500726,19.6619741 30.6857143,19.1570742 C29.5975787,18.8774359 28.2857143,18.1701495 28.2169492,16.9078513 C28.1460533,15.6062001 29.6726392,14.6099703 30.7991283,14.457405 C32.6612107,14.2052943 34.6556901,15.2576457 35.0605327,17.1986364 L35.4479419,17.1986364 C35.4409685,14.6727799 33.1863438,14.0968314 31.0895884,14.0969284 C29.8363196,14.0970253 28.3263923,14.4823156 27.9060533,15.8416391 C26.8346731,19.3060532 30.7104116,19.5435277 33.0266344,20.1671648 C34.0953027,20.4548483 35.3517676,21.2704036 35.2929782,22.5296001 C35.231477,23.8477291 33.8726392,24.6777268 32.7360775,24.9785925 C30.5379177,25.5605505 27.9953511,24.1232965 27.8934625,21.7542701 L27.8934625,21.7542701 Z" id="Shape" fill="#201C1D"></path>
                    <path d="M0.77445192,25.3406202 L3.38983051,14.8723554 L3.58353511,14.8723554 C4.32087167,16.7879509 5.32861985,20.7849863 5.32861985,20.7849863 L6.58595642,25.34062 L7.45762712,25.34062 L10.3929822,14.9692838 L10.6117496,14.9692838 L13.4624697,25.34062 L14.0435835,25.34062 C13.5546731,23.2002476 12.2355448,18.8628966 12.2355448,18.8628966 L10.9443099,14.1938568 L10.0864985,14.1938568 L9.43560215,16.6164652 L7.79196126,22.3358403 L7.01922031,24.6791734 L4.03137514,14.1938568 L3.02935226,14.1938568 L2.42644068,16.7139945 C2.42644068,16.7139945 0.747698047,22.4611689 0.211620565,25.3406202 L0.77445192,25.3406202 Z" id="Shape" fill="#201C1D"></path>
                    <path d="M14.9870984,14.398377 L15.0632702,25.1519169 L15.5929166,25.1398941 C15.6746345,22.9459138 15.4796949,14.3723592 15.4796949,14.3723592 L14.9870984,14.398377 L14.9870984,14.398377 Z" id="Shape-3" fill="#201C1D"></path>
                    <path d="M16.6059904,2.14742406 L16.6781532,12.9009641 L17.1799234,12.8889412 C17.2573405,10.6949609 17.0726608,2.12140627 17.0726608,2.12140627 L16.6059904,2.14742406 L16.6059904,2.14742406 Z" id="Shape-5" fill="#E52F2C"></path>
                    <path d="M14.4654931,2 L11.987766,12.4682648 L11.8042564,12.4682648 C11.105727,10.5526693 10.1510182,6.5556339 10.1510182,6.5556339 L8.95985727,2.00000023 L8.13406397,2.00000023 L5.35320129,12.3713364 L5.14594793,12.3713364 L2.44526571,2.00000023 L1.89473684,2.00000023 C2.35791513,4.14037263 3.60761565,8.47772359 3.60761565,8.47772359 L4.83089079,13.1467635 L5.64355425,13.1467635 L6.26019289,10.724155 L7.81732637,5.00477988 L8.54939674,2.66144684 L11.3799869,13.1467635 L12.3292717,13.1467635 L12.9004511,10.6266257 C12.9004511,10.6266257 14.4908389,4.87945126 14.9987018,2 L14.4654931,2 L14.4654931,2 Z" id="Shape-4" fill="#E52F2C"></path>
                </g>
            </g>
        </g>
    </g>
</svg>