<?xml version="1.0" encoding="UTF-8" standalone="no"?>
<svg width="59px" height="60px" viewBox="0 0 59 60" version="1.1" xmlns="http://www.w3.org/2000/svg" xmlns:xlink="http://www.w3.org/1999/xlink" xmlns:sketch="http://www.bohemiancoding.com/sketch/ns">
    <!-- Generator: Sketch 3.2.2 (9983) - http://www.bohemiancoding.com/sketch -->
    <title>swissMiss</title>
    <desc>Created with Sketch.</desc>
    <defs></defs>
    <g id="Page-1" stroke="none" stroke-width="1" fill="none" fill-rule="evenodd" sketch:type="MSPage">
        <g id="SVG_icons" sketch:type="MSLayerGroup" transform="translate(-535.000000, -913.000000)">
            <g id="swissMiss" transform="translate(533.365672, 913.020833)" sketch:type="MSShapeGroup">
                <rect id="Rectangle-12" fill="#FFFFFF" x="1.93548387" y="0.14158918" width="58.0645161" height="59.6449704" rx="2"></rect>
                <g id="Group" transform="translate(1.138424, 15.458738)" fill="#E52F2C">
                    <path d="M5.878834,11.0935646 L5.43124206,11.0935646 C5.43124206,14.4568527 8.16742758,15.7144261 11.2499374,15.4372942 C12.9076277,15.2882485 14.6733668,14.7804505 15.1900221,12.9788158 L15.2781754,11.7589473 C15.2618718,8.40761393 11.0875063,8.77301997 8.78818166,7.98793484 C7.66986199,7.60609384 6.36195356,6.74326982 6.32910031,5.43789971 C6.29334891,4.01698589 7.93948019,2.83765037 9.23577361,2.66144703 C11.4410703,2.36168101 14.0814264,3.44343703 14.383081,5.88139951 L14.8306729,5.88139951 C14.8303149,2.64120831 11.4156247,1.68703233 8.67628367,2.36486597 C7.4952228,2.65711207 6.30472893,2.99765275 5.85293186,4.32883971 L5.76693602,5.437811 C5.77229034,8.87605449 9.98471802,8.54336311 12.3689172,9.41060083 C13.3671032,9.77367803 14.7043849,10.6620306 14.6656794,11.8698445 C14.6110843,13.5731135 13.1979694,14.4796975 11.6975293,14.8768201 C9.17966796,15.543201 5.91093194,13.9391849 5.878834,11.0935646 L5.878834,11.0935646 Z" id="Shape"></path>
                    <path d="M32.992534,15.139595 L32.992534,2.49959496 L33.7822114,2.49959496 L33.7822114,15.139595 L32.992534,15.139595 Z" id="I"></path>
                    <g id="Shape-+-Shape-2" transform="translate(35.884847, 0.576360)">
                        <path d="M0.869908105,10.5413928 L0.440965822,10.5413928 C0.449651904,13.8155197 2.93097577,14.7543748 5.69550879,14.7554837 C7.19659231,14.7560382 9.15589342,14.1371213 9.58719488,12.426644 L9.6632249,11.2067756 C9.65850654,8.0357831 6.02997653,8.19835829 3.87250408,7.48761859 C2.77269607,7.12531767 1.41798911,6.35280827 1.3106463,4.99664728 C1.20148049,3.61841777 2.80422333,2.41529481 3.98134819,2.2112441 C6.09399617,1.84506178 8.49457165,2.94460681 8.80534034,5.32922777 L9.34151819,5.32922777 C9.22130712,2.43536719 6.91885218,1.77952157 4.51591751,1.78051965 C2.97880284,1.78118503 1.24759179,2.40631215 0.815754142,4.10935935 C-0.177997892,8.02879658 4.66669072,8.01094215 6.98233564,8.84577573 C7.943917,9.19244016 9.29015235,10.097028 9.22109264,11.3181163 C9.15514277,12.4853086 8.21189869,13.3355569 7.30404235,13.8721881 C4.887596,15.3004322 0.959342571,13.6435182 0.869908105,10.5413928 L0.869908105,10.5413928 Z" id="Shape"></path>
                        <path d="M11.8079363,10.5413928 L11.378994,10.5413928 C11.378994,11.3865399 11.3745974,12.2395606 11.8361393,12.9806861 C12.9636141,14.7911926 16.0919974,15.2778092 17.9199349,14.5520984 C19.0267132,14.112724 20.0498478,13.7503122 20.3825998,12.426644 L20.5799132,11.0958785 C20.3106447,8.15799174 17.0744897,8.14756741 14.8995378,7.56990426 C13.6947462,7.24996605 12.2422404,6.4407497 12.1661031,4.99653639 C12.0876067,3.50729884 13.7778538,2.36749815 15.0251107,2.19294607 C17.0868218,1.90450264 19.2951239,3.10851277 19.7433685,5.32922777 L20.1723108,5.32922777 C20.1645899,2.43935949 17.668253,1.78040875 15.3467102,1.78051965 C13.9590819,1.78063054 12.2872793,2.22144663 11.8218769,3.77666797 C10.6356371,7.74035315 14.9268829,8.01205112 17.4914216,8.72556324 C18.6746589,9.05470592 20.0658259,9.98779437 20.0007339,11.428459 C19.9326393,12.936549 18.4281243,13.8861611 17.1697149,14.2303858 C14.7358963,14.8962122 11.9207481,13.2518296 11.8079363,10.5413928 L11.8079363,10.5413928 Z" id="Shape"></path>
                    </g>
                </g>
                <g id="Group" transform="translate(17.668433, 18.035098)">
                    <g id="Shape-+-Shape" transform="translate(18.398009, 12.000000)" fill="#201C1D">
                        <path d="M0.869908105,10.5413928 L0.440965822,10.5413928 C0.449651904,13.8155197 2.93097577,14.7543748 5.69550879,14.7554837 C7.19659231,14.7560382 9.15589342,14.1371213 9.58719488,12.426644 L9.6632249,11.2067756 C9.65850654,8.0357831 6.02997653,8.19835829 3.87250408,7.48761859 C2.77269607,7.12531767 1.41798911,6.35280827 1.3106463,4.99664728 C1.20148049,3.61841777 2.80422333,2.41529481 3.98134819,2.2112441 C6.09399617,1.84506178 8.49457165,2.94460681 8.80534034,5.32922777 L9.34151819,5.32922777 C9.22130712,2.43536719 6.91885218,1.77952157 4.51591751,1.78051965 C2.97880284,1.78118503 1.24759179,2.40631215 0.815754142,4.10935935 C-0.177997892,8.02879658 4.66669072,8.01094215 6.98233564,8.84577573 C7.943917,9.19244016 9.29015235,10.097028 9.22109264,11.3181163 C9.15514277,12.4853086 8.21189869,13.3355569 7.30404235,13.8721881 C4.887596,15.3004322 0.959342571,13.6435182 0.869908105,10.5413928 L0.869908105,10.5413928 Z" id="Shape"></path>
                        <path d="M11.8079363,10.5413928 L11.378994,10.5413928 C11.378994,11.3865399 11.3745974,12.2395606 11.8361393,12.9806861 C12.9636141,14.7911926 16.0919974,15.2778092 17.9199349,14.5520984 C19.0267132,14.112724 20.0498478,13.7503122 20.3825998,12.426644 L20.5799132,11.0958785 C20.3106447,8.15799174 17.0744897,8.14756741 14.8995378,7.56990426 C13.6947462,7.24996605 12.2422404,6.4407497 12.1661031,4.99653639 C12.0876067,3.50729884 13.7778538,2.36749815 15.0251107,2.19294607 C17.0868218,1.90450264 19.2951239,3.10851277 19.7433685,5.32922777 L20.1723108,5.32922777 C20.1645899,2.43935949 17.668253,1.78040875 15.3467102,1.78051965 C13.9590819,1.78063054 12.2872793,2.22144663 11.8218769,3.77666797 C10.6356371,7.74035315 14.9268829,8.01205112 17.4914216,8.72556324 C18.6746589,9.05470592 20.0658259,9.98779437 20.0007339,11.428459 C19.9326393,12.936549 18.4281243,13.8861611 17.1697149,14.2303858 C14.7358963,14.8962122 11.9207481,13.2518296 11.8079363,10.5413928 L11.8079363,10.5413928 Z" id="Shape"></path>
                    </g>
                    <path d="M0.644054967,26.5911644 L3.63686543,14.7205557 L3.85852403,14.7205557 C4.70226749,16.8927671 5.85544636,21.4252512 5.85544636,21.4252512 L7.29423233,26.5911641 L8.29169603,26.5911641 L11.6506596,14.8304687 L11.9009979,14.8304687 L15.1631126,26.5911641 L15.8280884,26.5911641 C15.2686221,24.1640643 13.759127,19.2456756 13.759127,19.2456756 L12.2815508,13.9511644 L11.2999465,13.9511644 L10.5551176,16.6983089 L8.67427877,23.1838598 L7.79002163,25.8411092 L4.37099298,13.9511644 L3.22436565,13.9511644 L2.53444639,16.8089034 C2.53444639,16.8089034 0.613440175,23.3259777 0,26.5911644 L0.644054967,26.5911644 Z" id="Shape" fill="#201C1D"></path>
                    <path d="M14.0808152,-2.39808173e-14 L11.3374578,11.9768902 L11.1342746,11.9768902 C10.3608578,9.78523023 9.30379728,5.21216533 9.30379728,5.21216533 L7.98493521,2.65497868e-07 L7.07061087,2.65497868e-07 L3.9916195,11.865993 L3.76214707,11.865993 L0.77193209,2.65497866e-07 L0.162382531,2.65497866e-07 C0.675216894,2.44883067 2.05889439,7.41125539 2.05889439,7.41125539 L3.41331352,12.7531701 L4.31310041,12.7531701 L4.99584719,9.98142945 L6.71991669,3.43781126 L7.53047033,0.756770703 L10.6645203,12.7531701 L11.7155754,12.7531701 L12.3479894,9.86984474 C12.3479894,9.86984474 14.1088783,3.29442101 14.6711877,-2.39808173e-14 L14.0808152,-2.39808173e-14 L14.0808152,-2.39808173e-14 Z" id="Shape-4" fill="#E52F2C"></path>
                    <path d="M16.4625253,26.5632354 L16.4625253,13.9232354 L17.2522028,13.9232354 L17.2522028,26.5632354 L16.4625253,26.5632354 Z" id="I-2" fill="#000000"></path>
                </g>
            </g>
        </g>
    </g>
</svg>