<?xml version="1.0" encoding="UTF-8" standalone="no"?>
<svg width="61px" height="61px" viewBox="0 0 61 61" version="1.1" xmlns="http://www.w3.org/2000/svg" xmlns:xlink="http://www.w3.org/1999/xlink" xmlns:sketch="http://www.bohemiancoding.com/sketch/ns">
    <!-- Generator: Sketch 3.2.2 (9983) - http://www.bohemiancoding.com/sketch -->
    <title>ui8</title>
    <desc>Created with Sketch.</desc>
    <defs></defs>
    <g id="Page-1" stroke="none" stroke-width="1" fill="none" fill-rule="evenodd" sketch:type="MSPage">
        <g id="SVG_icons" sketch:type="MSLayerGroup" transform="translate(-357.000000, -1095.000000)">
            <g id="ui8" transform="translate(357.992537, 1095.591109)" sketch:type="MSShapeGroup">
                <rect id="Rectangle-14" fill="#FFFFFF" x="0" y="0" width="60" height="60" rx="2"></rect>
                <g id="Logo" transform="translate(11.785714, 10.000000)">
                    <path d="M12.164481,2.80412946 C12.164481,2.80412946 15.7503836,0.328892299 17.7603585,0.328892299 C19.5706139,0.328892299 23.6251719,2.80412946 23.6251719,2.80412946 L31.8125698,7.78041295 C31.8125698,7.78041295 34.3717078,9.52153776 34.901995,10.7627651 C35.5548598,12.2909063 35.3620257,16.0885184 35.3620257,16.0885184 L35.5175781,25.9204102 C35.5175781,25.9204102 35.260061,28.345906 34.901995,29.1768973 C34.4514905,30.2224174 33.0918666,31.5499442 33.0918666,31.5499442 L22.8808594,37.2017997 C22.8808594,37.2017997 19.9010163,39.4450388 18.3018276,39.4824219 C16.6236028,39.5216525 13.0486189,37.4316406 13.0486189,37.4316406 L5.06487165,32.7594866 C5.06487165,32.7594866 1.89878603,31.1145304 0.99155971,29.7286551 C0.211541795,28.5371029 0.00313895089,25.0272042 0.00313895089,25.0272042 L0.00732421875,13.7294224 C0.00732421875,13.7294224 0.190460246,10.6579987 0.99155971,9.45661272 C1.60577833,8.53548661 4.25327846,7.36188616 4.25327846,7.36188616 L12.164481,2.80412946 Z" id="Path-134" fill="#000000"></path>
                    <ellipse id="Oval-4" fill="#379AFF" cx="35.5357143" cy="9.82142857" rx="6.96428571" ry="6.96428571"></ellipse>
                    <path d="M22.4741908,14.82387 L24.2857143,14.82387 L24.2857142,24.3380301 L22.4741908,24.3380301 L22.4741908,14.82387 Z" id="Path-136" fill="#FFFFFF"></path>
                    <path d="M13.3725478,20.9124981 L13.3725478,14.8060846 L11.4027623,14.8060846 L11.4027623,22.2580192 L11.4058658,22.2607208 C11.4187188,22.3147229 11.5841745,22.9672877 12.2094291,23.5758753 C12.355884,23.7184264 12.7546062,24.047711 12.9547119,24.1828264 C13.2748413,24.3989841 14.2991804,24.7521983 15.7332376,24.7473579 C17.1613867,24.7425374 17.7364136,24.5859964 18.6503383,23.996364 C19.3091976,23.5712909 19.8568491,22.4058763 19.9588682,22.1791936 L19.9744011,22.1649383 L19.9744011,22.1441887 C19.9754052,22.1418814 19.9759129,22.1406991 19.9759129,22.1406991 C19.9759129,22.1406991 19.9754035,22.1393823 19.9744011,22.1368056 L19.9744011,14.8060846 L18.0046156,14.8060846 L18.0046156,20.3967875 C17.9238008,22.041741 17.7477155,22.0313692 17.4825614,22.3465179 C17.210301,22.6701127 16.2009166,22.7936663 15.7332376,22.7936663 C15.2303669,22.7936663 14.324428,22.7197691 13.8855852,22.3465179 C13.5003452,22.0188577 13.4404294,21.5511477 13.3725478,20.9124981 Z" id="Path-137" fill="#FFFFFF"></path>
                    <path d="M36.3150446,8.96242383 C36.4905905,8.81234409 36.5783622,8.63349235 36.5783622,8.42586324 C36.5783622,8.24531618 36.4945206,8.07944106 36.3268349,7.9282329 C36.1591492,7.77702475 35.9036944,7.7014218 35.5604627,7.7014218 C35.2198511,7.7014218 34.9735664,7.77702475 34.8216013,7.9282329 C34.6696361,8.07944106 34.5936546,8.2566002 34.5936546,8.45971564 C34.5936546,8.6876563 34.6919065,8.86594384 34.8884132,8.99458362 C35.0849199,9.12322339 35.3167943,9.18754232 35.5840434,9.18754232 C35.895834,9.18754232 36.1394986,9.11250357 36.3150446,8.96242383 L36.3150446,8.96242383 Z M36.4427733,11.359174 C36.6589306,11.2068374 36.7670077,10.9794644 36.7670077,10.6770481 C36.7670077,10.3633476 36.6556556,10.1252547 36.432948,9.96276236 C36.2102404,9.80027001 35.924655,9.71902505 35.5761831,9.71902505 C35.2381916,9.71902505 34.9624314,9.80196261 34.7488941,9.96784022 C34.5353569,10.1337178 34.4285899,10.3633477 34.4285899,10.6567366 C34.4285899,10.9095025 34.5261867,11.1278483 34.7213833,11.3117806 C34.91658,11.4957129 35.2185407,11.5876777 35.6272746,11.5876777 C35.9547858,11.5876777 36.2266159,11.5115106 36.4427733,11.359174 L36.4427733,11.359174 Z M34.1613421,9.16723087 C33.9543551,8.98668382 33.8508631,8.75197617 33.8508631,8.46310088 C33.8508631,8.10200677 34.002826,7.79169617 34.3067563,7.53215978 C34.6106867,7.27262339 35.0416848,7.14285714 35.5997638,7.14285714 C36.1395022,7.14285714 36.5626402,7.26528878 36.8691906,7.51015572 C37.1757411,7.75502266 37.329014,8.04107261 37.329014,8.36831415 C37.329014,8.67073047 37.2399323,8.91559374 37.0617662,9.10291131 C36.9622028,9.2089827 36.8076199,9.3127957 36.5980128,9.41435342 C36.8312007,9.50688378 37.0146042,9.61295359 37.1482287,9.73256601 C37.3971372,9.95824983 37.5215896,10.2516344 37.5215896,10.6127285 C37.5215896,11.0392709 37.3552164,11.4009238 37.0224651,11.697698 C36.6897138,11.9944723 36.2194148,12.1428571 35.6115542,12.1428571 C35.0639555,12.1428571 34.6008617,12.0147835 34.2222589,11.7586324 C33.843656,11.5024812 33.6543574,11.1306727 33.6543574,10.6431957 C33.6543574,10.3565772 33.7355789,10.1088929 33.8980245,9.90013541 C34.06047,9.69137788 34.3015146,9.53170897 34.6211654,9.4211239 C34.4246588,9.34890508 34.2713858,9.26427492 34.1613421,9.16723087 L34.1613421,9.16723087 Z" id="8" fill="#FFFFFF"></path>
                </g>
            </g>
        </g>
    </g>
</svg>